<svg width="635" height="400" viewBox="0 0 635 400" fill="none" xmlns="http://www.w3.org/2000/svg">
<path d="M29 306.063C29 146.453 158.39 15 318 15C477.61 15 607 146.453 607 306.063H29Z" fill="#EEF9FD"/>
<g filter="url(#filter0_d)">
<ellipse cx="509.133" cy="91.948" rx="11.7106" ry="11.7095" fill="white"/>
</g>
<g filter="url(#filter1_d)">
<ellipse cx="73.3329" cy="250.862" rx="9.20116" ry="9.20028" fill="white"/>
</g>
<path d="M478.623 114.163C478.623 108.874 482.872 104.529 488.113 104.388H376.073C375.978 104.388 375.884 104.388 375.789 104.388C375.695 104.388 375.6 104.388 375.506 104.388C370.265 104.529 366.016 108.874 366.016 114.163V114.352V155.247L449.019 157.231C449.019 165.4 455.676 172.059 463.844 172.059C472.013 172.059 478.67 165.4 478.67 157.231V118.838L479.142 118.13H478.623V114.163Z" fill="#EEF9FD"/>
<path d="M449.538 161.197V129.558C449.538 124.174 445.147 119.782 439.765 119.782C439.67 119.782 439.576 119.782 439.482 119.782C434.241 119.924 429.991 124.269 429.991 129.558V157.42L366.016 158.081L351.002 157.231C351.002 165.4 357.659 172.059 365.827 172.059H463.844C457.045 172.106 451.285 167.478 449.538 161.197Z" fill="#E4F0D8"/>
<g filter="url(#filter2_d)">
<path d="M429.992 129.558C429.992 124.269 434.241 119.924 439.482 119.782H327.394C327.3 119.782 327.205 119.782 327.111 119.782C327.017 119.782 326.922 119.782 326.828 119.782C321.587 119.924 317.338 124.269 317.338 129.558V129.747V183.817L400.341 277.036C400.341 285.206 406.998 291.865 415.166 291.865C423.334 291.865 429.992 285.206 429.992 277.036V134.28L430.464 133.572H429.944V129.558H429.992Z" fill="white"/>
</g>
<g filter="url(#filter3_d)">
<path d="M400.341 277.32V158.081C400.341 152.697 395.95 148.305 390.567 148.305C390.473 148.305 390.379 148.305 390.284 148.305C385.043 148.447 380.794 152.792 380.794 158.081V184.195L381.172 255.55L317.338 183.865L302.323 277.084C302.323 285.253 308.981 291.912 317.149 291.912H415.166C407.093 291.912 400.483 285.395 400.341 277.32Z" fill="#FFD2B1"/>
</g>
<g filter="url(#filter4_d)">
<path d="M351.143 363.172H268.14H253.126C253.126 371.341 259.783 378 267.951 378H268.093H365.969C357.8 378 351.143 371.341 351.143 363.172Z" fill="#4749A0"/>
</g>
<g filter="url(#filter5_d)">
<path d="M277.961 148.305C277.866 148.305 277.772 148.305 277.677 148.305C272.437 148.447 268.187 152.791 268.187 158.08V158.269V363.125H351.19C351.19 371.294 357.848 377.953 366.016 377.953C374.184 377.953 380.841 371.294 380.841 363.125V304.284V265.041V255.125V249.741V227.027V162.803L381.313 162.094H380.794V158.128C380.794 152.839 385.043 148.494 390.284 148.352H278.197C278.102 148.305 278.008 148.305 277.961 148.305Z" fill="#FFF1E6"/>
</g>
<g opacity="0.3" filter="url(#filter6_d)">
<path d="M327.441 164.456H285.043C284.287 164.456 283.674 163.842 283.674 163.087C283.674 162.331 284.287 161.717 285.043 161.717H327.441C328.197 161.717 328.811 162.331 328.811 163.087C328.811 163.842 328.197 164.456 327.441 164.456Z" fill="#4749A0"/>
</g>
<g opacity="0.3" filter="url(#filter7_d)">
<path d="M327.441 169.934H285.043C284.287 169.934 283.674 169.32 283.674 168.564C283.674 167.809 284.287 167.195 285.043 167.195H327.441C328.197 167.195 328.811 167.809 328.811 168.564C328.811 169.32 328.197 169.934 327.441 169.934Z" fill="#4749A0"/>
</g>
<g opacity="0.3" filter="url(#filter8_d)">
<path d="M363.938 175.412H285.043C284.287 175.412 283.674 174.798 283.674 174.043C283.674 173.287 284.287 172.673 285.043 172.673H363.938C364.694 172.673 365.308 173.287 365.308 174.043C365.308 174.798 364.694 175.412 363.938 175.412Z" fill="#4749A0"/>
</g>
<g opacity="0.3" filter="url(#filter9_d)">
<path d="M327.441 244.311H285.043C284.287 244.311 283.674 243.697 283.674 242.941C283.674 242.186 284.287 241.572 285.043 241.572H327.441C328.197 241.572 328.811 242.186 328.811 242.941C328.811 243.697 328.197 244.311 327.441 244.311Z" fill="#4749A0"/>
</g>
<g opacity="0.3" filter="url(#filter10_d)">
<path d="M363.938 249.789H285.043C284.287 249.789 283.674 249.175 283.674 248.419C283.674 247.664 284.287 247.05 285.043 247.05H363.938C364.694 247.05 365.308 247.664 365.308 248.419C365.308 249.175 364.694 249.789 363.938 249.789Z" fill="#4749A0"/>
</g>
<g opacity="0.3" filter="url(#filter11_d)">
<path d="M327.441 287.19H285.043C284.287 287.19 283.674 286.576 283.674 285.82C283.674 285.064 284.287 284.45 285.043 284.45H327.441C328.197 284.45 328.811 285.064 328.811 285.82C328.811 286.576 328.197 287.19 327.441 287.19Z" fill="#4749A0"/>
</g>
<g opacity="0.3" filter="url(#filter12_d)">
<path d="M363.938 292.667H285.043C284.287 292.667 283.674 292.053 283.674 291.298C283.674 290.542 284.287 289.928 285.043 289.928H363.938C364.694 289.928 365.308 290.542 365.308 291.298C365.308 292.053 364.694 292.667 363.938 292.667Z" fill="#4749A0"/>
</g>
<g opacity="0.3" filter="url(#filter13_d)">
<path d="M363.938 180.89H285.043C284.287 180.89 283.674 180.276 283.674 179.52C283.674 178.765 284.287 178.151 285.043 178.151H363.938C364.694 178.151 365.308 178.765 365.308 179.52C365.308 180.276 364.694 180.89 363.938 180.89Z" fill="#4749A0"/>
</g>
<g opacity="0.3" filter="url(#filter14_d)">
<path d="M363.938 186.368H285.043C284.287 186.368 283.674 185.754 283.674 184.998C283.674 184.243 284.287 183.629 285.043 183.629H363.938C364.694 183.629 365.308 184.243 365.308 184.998C365.308 185.754 364.694 186.368 363.938 186.368Z" fill="#4749A0"/>
</g>
<g opacity="0.3" filter="url(#filter15_d)">
<path d="M327.441 324.119H285.043C284.287 324.119 283.674 323.505 283.674 322.749C283.674 321.994 284.287 321.38 285.043 321.38H327.441C328.197 321.38 328.811 321.994 328.811 322.749C328.811 323.505 328.197 324.119 327.441 324.119Z" fill="#4749A0"/>
</g>
<g opacity="0.3" filter="url(#filter16_d)">
<path d="M363.938 329.596H285.043C284.287 329.596 283.674 328.982 283.674 328.227C283.674 327.471 284.287 326.857 285.043 326.857H363.938C364.694 326.857 365.308 327.471 365.308 328.227C365.308 328.982 364.694 329.596 363.938 329.596Z" fill="#4749A0"/>
</g>
<g opacity="0.5" filter="url(#filter17_d)">
<path d="M359.595 206.437H286.648C284.476 206.437 282.776 204.69 282.776 202.565V198.032C282.776 195.859 284.523 194.159 286.648 194.159H359.595C361.766 194.159 363.466 195.907 363.466 198.032V202.565C363.466 204.69 361.719 206.437 359.595 206.437Z" fill="white"/>
</g>
<g opacity="0.5" filter="url(#filter18_d)">
<path d="M359.595 223.296H286.648C284.476 223.296 282.776 221.549 282.776 219.424V214.89C282.776 212.718 284.523 211.018 286.648 211.018H359.595C361.766 211.018 363.466 212.765 363.466 214.89V219.424C363.466 221.549 361.719 223.296 359.595 223.296Z" fill="white"/>
</g>
<g opacity="0.5" filter="url(#filter19_d)">
<path d="M359.595 311.793H286.648C284.476 311.793 282.776 310.046 282.776 307.921V303.387C282.776 301.215 284.523 299.515 286.648 299.515H359.595C361.766 299.515 363.466 301.262 363.466 303.387V307.921C363.466 310.046 361.719 311.793 359.595 311.793Z" fill="white"/>
</g>
<g opacity="0.5" filter="url(#filter20_d)">
<path d="M293.919 268.914H286.648C284.476 268.914 282.776 267.167 282.776 265.042V260.508C282.776 258.336 284.523 256.636 286.648 256.636H293.919C296.091 256.636 297.791 258.383 297.791 260.508V265.042C297.791 267.167 296.044 268.914 293.919 268.914Z" fill="white"/>
</g>
<g opacity="0.5" filter="url(#filter21_d)">
<path d="M312.616 268.914H305.345C303.173 268.914 301.473 267.167 301.473 265.042V260.508C301.473 258.336 303.22 256.636 305.345 256.636H312.616C314.788 256.636 316.488 258.383 316.488 260.508V265.042C316.488 267.167 314.741 268.914 312.616 268.914Z" fill="white"/>
</g>
<g opacity="0.5" filter="url(#filter22_d)">
<path d="M331.313 268.914H324.042C321.87 268.914 320.171 267.167 320.171 265.042V260.508C320.171 258.336 321.917 256.636 324.042 256.636H331.313C333.485 256.636 335.185 258.383 335.185 260.508V265.042C335.185 267.167 333.438 268.914 331.313 268.914Z" fill="white"/>
</g>
<path opacity="0.5" d="M350.01 268.914H342.739C340.567 268.914 338.867 267.167 338.867 265.042V260.508C338.867 258.336 340.614 256.636 342.739 256.636H350.01C352.182 256.636 353.882 258.383 353.882 260.508V265.042C353.882 267.167 352.182 268.914 350.01 268.914Z" fill="white"/>
<path d="M89.9815 330.278H108.456V328.43H89.9815V330.278Z" fill="#002384"/>
<path d="M87.1327 336.971C88.0933 336.045 79.8174 332.125 79.8174 332.125L46.5659 348.374L47.0092 355.216L87.1327 336.971Z" fill="#B3C5FF"/>
<path d="M115.846 318.112L108.278 315.499L106.735 317.531C106.735 317.531 103.796 321.306 102.914 322.322L108.719 325.66L115.846 318.112Z" fill="#3E66A4"/>
<path d="M91.6121 322.825C88.1341 323.971 88.4365 325.476 88.4365 325.476L88.1341 326.91C88.1341 326.91 105.146 329.705 108.473 330.278L109.38 325.261L103.407 321.965C103.407 321.965 103.407 322.036 103.331 322.036C102.5 322.968 95.0145 321.678 91.6121 322.825Z" fill="#6888EB"/>
<path d="M108.464 328.67L88.6102 325.197L88.2806 327.081L108.134 330.555L108.464 328.67Z" fill="#002384"/>
<path d="M233.746 332.232C230.22 334.581 223.681 334.948 220.008 330.837C207.96 316.965 182.835 288.192 182.835 288.192C175.268 281.293 169.317 276.962 167.48 281.88C165.57 286.871 167.627 290.394 160.501 293.991C153.375 297.587 150.73 299.349 149.408 305.221C147.571 313.515 138.829 308.964 135.303 314.91C131.776 320.855 128.838 325.846 118.773 322.837C108.708 319.827 107.533 316.524 107.533 316.524C107.533 316.524 148.747 263.97 156.461 255.529C164.174 247.088 169.905 246.941 179.455 254.428C187.61 260.814 210.237 280.999 223.314 292.009C230.293 297.734 240.431 327.828 233.746 332.232Z" fill="#E4F0D8"/>
<path d="M191.593 253.389C189.601 247.24 186.503 244.795 185.249 245.388C184.733 245.61 186.651 247.758 186.355 248.203C186.134 248.647 178.684 248.573 177.061 248.277C175.438 247.981 171.455 249.092 176.545 250.499C181.635 251.907 185.692 255.463 185.692 255.463L191.593 253.389Z" fill="#B3C5FF"/>
<path d="M230.369 232.371L229.466 224.514L231.648 220.182L243.61 214.821L246.093 229.58L230.369 232.371Z" fill="#B3C5FF"/>
<path d="M185.127 255.708C199.997 279.379 204.414 290.265 211.187 294.868C217.96 299.471 252.559 251.397 252.559 251.397L247.554 244.383C235.26 243.872 225.837 282.521 221.052 278.43C219.506 277.115 217.371 278.283 217.076 277.261C215.236 271.781 212.806 275.726 210.524 272.877C206.255 267.763 190.574 252.42 190.574 252.42L185.127 255.708Z" fill="#E85449"/>
<path d="M239.556 333.51C218.887 334.098 154.753 334.538 148.156 333.51C141.559 332.481 124.115 346.22 112.608 341.812C101.1 337.404 96.1159 350.923 90.0324 350.335C83.9488 349.82 76.6192 350.188 68.63 352.98C60.5675 355.772 55.8032 342.62 55.8032 342.62C55.8032 342.62 115.173 307.721 131.005 307.868C142.805 308.015 248.865 304.415 248.865 304.415C248.865 304.415 248.278 333.289 239.556 333.51Z" fill="#FFD2B1"/>
<path d="M214.046 242.96C215.009 257.38 205.745 301.153 205.449 306.082C219.901 311.452 220.716 315.719 225.311 323.003C231.092 332.125 242.283 332.125 242.283 332.125C251.991 325.283 247.693 323.591 256.809 265.031C259.477 248.037 260.218 234.353 236.354 233.323C227.979 232.955 219.827 236.266 219.827 236.266L214.046 242.96Z" fill="#FE5F4A"/>
<path d="M227.619 236.917L229.466 231.121L245.667 229.6L250.712 236.99L227.619 236.917Z" fill="#FE5F4A"/>
<path d="M244.667 213.99C247.676 208.161 245.768 201.225 240.412 198.421C235.055 195.618 228.304 198.126 225.369 203.955C222.361 209.784 224.342 219.377 228.598 221.59C232.854 223.804 241.659 219.819 244.667 213.99Z" fill="#B3C5FF"/>
<path d="M234.265 194.572C230.817 197.154 228.616 199.737 228.616 199.737C228.616 199.737 228.542 204.016 228.542 206.451C228.542 208.96 231.404 211.911 231.917 212.354C231.917 212.354 233.091 210.362 234.632 210.731C236.172 211.1 235.512 213.682 233.898 214.42C232.284 215.158 234.191 219.364 235.585 219.438C236.979 219.511 243.876 217.519 243.876 217.519C243.876 217.519 247.544 207.263 248.865 204.902C246.297 197.966 242.188 193.908 234.265 194.572Z" fill="#4749A0"/>
<path d="M134.082 247.889C134.452 248.554 135.19 248.996 135.928 248.996H190.485C191.224 248.996 191.593 248.554 191.593 247.889C191.593 247.299 191.593 247.152 191.593 247.004L136.002 246.783L122.196 222.948C121.901 222.432 121.975 222.579 121.754 222.21C120.572 222.875 120.203 223.76 120.646 224.719L134.082 247.889Z" fill="#4749A0"/>
<path d="M167.576 247.149L135.628 247.001L121.389 222.21L152.377 222.804L167.576 247.149Z" fill="#4749A0" fill-opacity="0.5"/>
<path d="M124.16 224.058L151.499 224.626L164.804 245.302L136.666 245.231L124.16 224.058Z" fill="#FDE3E1"/>
<path d="M149.298 256.386C143.715 254.364 144.46 255.664 135.826 251.838C130.616 249.527 134.784 246.929 139.026 248.156C143.269 249.383 143.12 246.856 143.12 246.856C143.12 246.856 142.003 244.618 142.822 244.402C143.641 244.185 144.832 245.485 145.353 247.145C145.874 248.806 152.796 252.199 152.796 252.199L149.298 256.386Z" fill="#B3C5FF"/>
<path d="M151.029 250.843C147.725 252.101 148.386 256.247 146.33 259.8C146.33 259.8 179.739 274.532 183.705 276.161C187.67 277.789 190.974 275.568 195.747 272.163C200.446 268.758 223.209 263.057 225.926 261.133C228.569 259.282 229.304 232.853 219.097 238.776C215.279 240.997 203.824 245.512 194.719 252.545C189.726 256.395 188.477 257.431 188.257 259.208C187.817 262.835 183.558 258.394 181.795 258.986C180.033 259.578 180.107 261.799 177.096 260.911C174.085 259.948 151.029 250.843 151.029 250.843Z" fill="#FE5F4A"/>
<path d="M136.169 225.905L142.163 236.066H146.33L139.97 225.905H136.169Z" fill="#4749A0"/>
<path d="M148.735 243.113C147.998 243.86 146.59 243.337 145.518 241.992C144.445 240.646 144.177 239.002 144.848 238.255C145.518 237.507 146.993 238.031 148.065 239.376C149.138 240.721 149.406 242.365 148.735 243.113Z" fill="#4749A0"/>
<path d="M344.01 131.444C344.175 138.601 351.727 145.009 357.287 145.009C362.847 145.009 395.127 145.258 395.127 145.258C395.127 145.258 408.653 146.507 412.138 161.153C415.457 174.966 408.985 154.162 421.764 152.831C433.133 151.666 448.567 139.1 442.344 132.027C436.203 124.87 407.159 121.126 393.716 113.553C380.273 105.98 375.211 103.983 375.211 103.983L344.01 131.444Z" fill="#4749A0"/>
<path d="M372.475 65.6262C384.919 69.52 406.191 75.8687 407.705 70.5358C409.05 65.7108 378.361 39.7234 371.887 37.2686C365.412 34.8138 370.878 39.1309 376.427 43.7866C381.976 48.4423 394.252 63.256 397.615 65.2876C393.663 63.5099 384.162 57.3305 370.794 53.9445C367.346 57.1612 369.532 64.7797 372.475 65.6262Z" fill="#B3C5FF"/>
<path d="M343.701 122.519C341.246 134.944 346.326 140.485 355.639 139.646C363.853 138.974 370.118 147.621 371.473 141.493C372.404 137.463 375.537 123.191 376.976 111.354C377.738 105.141 378.077 99.6841 377.4 96.6618C374.944 85.9159 380.787 78.1083 380.956 70.0488C381.125 60.0585 374.436 54.6855 370.88 53.6781C365.038 51.999 354.2 48.3051 345.818 56.1966C339.129 62.577 353.607 87.0912 354.454 95.4865C355.64 108.751 345.902 111.521 343.701 122.519Z" fill="#FDE3E1"/>
<path d="M377.699 39.0937L374.512 43.7282C373.673 44.9079 371.996 45.245 370.822 44.4023L354.384 33.1109C353.21 32.2682 352.874 30.5829 353.713 29.4032L356.9 24.7687C357.739 23.589 359.416 23.2519 360.59 24.0945L377.028 35.386C378.286 36.2287 378.538 37.914 377.699 39.0937Z" fill="#4749A0"/>
<path d="M372.712 45.7941C372.289 45.7941 371.867 45.7092 371.529 45.4543L353.283 32.964C352.776 32.6242 352.523 32.1993 352.354 31.6046C352.269 31.0098 352.354 30.5 352.692 29.9902L357 23.6176C357.675 22.683 358.943 22.4281 359.956 23.0228L378.202 35.5131C379.131 36.1928 379.385 37.4673 378.794 38.4869L374.485 44.8595C374.063 45.4543 373.387 45.7941 372.712 45.7941ZM358.774 23.6176C358.351 23.6176 358.013 23.7875 357.76 24.2124L353.452 30.5849C353.283 30.8399 353.198 31.1797 353.283 31.5196C353.367 31.8595 353.536 32.1144 353.79 32.3693L372.036 44.8595C372.627 45.2843 373.387 45.1144 373.81 44.5196L378.118 38.1471C378.54 37.5523 378.371 36.7876 377.78 36.3627L359.449 23.7875C359.28 23.6176 359.027 23.6176 358.774 23.6176Z" fill="#6888EB"/>
<path d="M348.12 29.6824C345.348 27.3943 325.101 24.852 325.101 32.14C325.101 49.5973 311.155 36.5467 310.566 46.9702C309.558 64.4276 297.796 53.7498 302.501 69.4275C304.686 76.885 296.368 82.9018 298.049 88.8339C300.821 98.749 311.995 98.41 314.767 92.0542C318.38 83.6645 336.275 89.3424 333.754 69.0037C332.662 60.3598 344.508 66.9699 341.735 50.7837C340.895 45.6991 348.792 49.2583 349.549 36.5467C349.633 35.2755 348.12 29.6824 348.12 29.6824Z" fill="#FE5F4A"/>
<path d="M355.502 51.6423C355.676 48.6876 356.722 41.1741 354.892 39.5701C352.713 37.6285 355.851 23.6146 359.25 22.2638C363.869 20.491 368.749 23.9523 370.144 26.6537C371.538 29.3552 372.41 35.3491 371.015 37.1219C368.749 39.9078 366.57 39.4857 365.873 40.752C365.176 42.0184 365.786 47.3369 368.488 53.0775C368.488 53.0775 367.878 58.3116 355.502 51.6423Z" fill="#B3C5FF"/>
<path d="M346.895 34.6489C347.249 36.9655 348.31 38.5694 349.23 38.3912C350.22 38.1239 350.716 36.1636 350.362 33.8469C350.008 31.5302 348.947 29.9264 348.027 30.1046C347.036 30.2828 346.541 32.3322 346.895 34.6489Z" fill="#EEF9FD"/>
<path d="M346.923 34.1424C347.365 36.2017 348.692 37.6274 349.842 37.469C351.08 37.2314 351.699 35.4889 351.257 33.4296C350.815 31.3703 349.488 29.9447 348.338 30.1031C347.1 30.3407 346.481 32.0831 346.923 34.1424Z" fill="#FE5F4A"/>
<path d="M348.709 33.7253C349.066 36.042 350.14 37.6458 351.07 37.4676C352.001 37.2894 352.573 35.24 352.216 32.9233C351.858 30.6066 350.784 29.0028 349.854 29.181C348.923 29.4483 348.422 31.4977 348.709 33.7253Z" fill="#FE5F4A"/>
<path d="M349.666 33.2188C350.02 35.2781 351.081 36.7038 352.001 36.5454C352.991 36.3078 353.487 34.5653 353.133 32.506C352.779 30.4467 351.718 29.0211 350.798 29.1795C349.807 29.4171 349.312 31.2388 349.666 33.2188Z" fill="#4749A0"/>
<path d="M369.874 26.5444C365.927 19.6929 360.664 25.3746 360.746 27.8813C360.746 29.3852 362.144 30.3879 362.144 31.4741C362.226 32.5603 360.252 32.1425 359.595 30.9728C357.785 27.5471 355.729 28.299 357.292 31.7248C357.95 33.2288 356.552 37.9914 355.4 39.3282C352.933 37.9914 349.973 34.4821 350.548 30.3879C351.124 26.1266 352.111 24.6226 354.907 22.7009C357.127 21.1134 359.759 20.5285 363.131 21.0298C366.667 21.4476 369.381 24.4555 369.874 26.5444Z" fill="#FE5F4A"/>
<path d="M346.773 55.8297C340.255 60.091 322.103 84.9904 320.948 91.7584C319.792 98.8605 350.816 113.399 356.427 116.658C358.242 117.744 361.212 115.154 358.819 113.148C352.219 107.55 331.591 95.2677 331.591 91.7584C331.591 88.3326 350.569 72.29 351.971 65.2714C353.456 58.0857 351.064 52.9888 346.773 55.8297Z" fill="#B3C5FF"/>
<path opacity="0.5" d="M352.575 122.456L351.399 120.161L352.491 119.566C352.491 119.566 355.598 117.866 357.698 115.826C359.209 114.296 360.301 110.982 360.553 109.877L360.889 108.602L363.408 109.197L363.072 110.472C362.988 110.642 361.896 115.316 359.545 117.696C357.194 120.076 353.835 121.861 353.751 121.946L352.575 122.456Z" fill="#4749A0"/>
<path opacity="0.5" d="M377.264 97.518L354.171 97.2013L354.664 94.7468L376.771 95.0635L377.264 97.518Z" fill="#4749A0"/>
<path d="M413.747 166.064C411.58 157.034 417.249 145.495 427.921 143.906C440.343 141.983 438.592 128.772 442.927 132.284C447.263 135.795 443.511 147.251 433.006 151.849C422.501 156.365 424.002 158.706 418.5 166.566C416.415 169.409 414.498 169.409 413.747 166.064Z" fill="#3D4184"/>
<path d="M443.098 131.523C465.897 162.446 484.702 206.261 489.029 207.188C493.356 208.199 493.939 200.194 497.35 202.385L491.526 211.822C491.526 211.822 488.447 214.771 485.784 211.232C483.121 207.693 441.85 160.003 439.104 154.61C436.358 149.217 434.944 141.213 433.612 141.213C433.612 141.213 436.608 139.106 437.19 136.916C437.773 134.725 440.935 128.658 443.098 131.523Z" fill="#A4B9ED"/>
<path d="M437.09 136.311C441.297 146.656 465.447 203.97 468.14 206.306C470.832 208.642 479.583 210.06 481.351 211.979C483.118 213.898 482.444 213.898 482.444 213.898C482.444 213.898 468.476 213.898 465.531 213.898C462.586 213.898 460.903 209.893 460.987 206.806C461.072 203.72 433.303 170.099 424.132 157.668C422.365 155.249 419.756 146.656 419.756 146.656C419.756 146.656 422.785 143.653 430.106 142.151C436.164 140.899 437.09 136.311 437.09 136.311Z" fill="#B3C5FF"/>
<path d="M460.583 206.326C463.936 208.581 465.11 205.44 466.535 204.876C467.96 204.312 468.966 204.956 469.301 205.681C469.637 206.406 479.194 210.192 481.457 210.756C485.984 211.884 483.972 213.898 483.972 213.898C483.972 213.898 462.846 213.898 461.756 213.898C460.666 213.978 460.08 208.42 460.583 206.326Z" fill="#FE5F4A"/>
<path d="M460.401 212.974C463.496 214.175 467.764 212.974 471.529 213.62C475.294 214.267 483.494 214.821 483.494 214.821H460.735L460.401 212.974Z" fill="#4749A0"/>
<path d="M483.494 210.142C487.502 209.31 485.967 206.232 486.564 204.818C487.161 203.404 488.354 203.154 489.122 203.404C489.889 203.653 499.439 199.494 501.486 198.246C505.493 195.834 505.664 198.662 505.664 198.662C505.664 198.662 490.912 213.886 490.145 214.718C489.378 215.466 484.688 211.972 483.494 210.142Z" fill="#FE5F4A"/>
<path d="M489.036 213.978C491.903 212.458 493.951 208.576 496.9 206.213C499.848 203.85 505.664 198.196 505.664 198.196L490.347 214.822L489.036 213.978Z" fill="#4749A0"/>
<path d="M392.166 119.614C380.853 117.598 378.804 108.356 377.738 104.407C376.672 100.458 377.738 97.5178 377.738 97.5178C377.738 97.5178 385.854 110.792 395.937 112.809C406.02 114.909 396.265 120.37 392.166 119.614Z" fill="#FDE3E1"/>
<path d="M191.275 141.295L195.575 131.232L195.575 124.682C195.575 120.457 199.053 117.04 203.353 117.04L255.433 117.04C259.733 117.04 263.211 120.457 263.211 124.682C263.211 128.906 259.781 132.324 255.481 132.324L205.044 132.798L191.275 141.295Z" fill="#FFD2B1"/>
<path opacity="0.5" d="M210.514 124.567C210.514 125.502 209.96 126.24 209.259 126.24C208.558 126.24 208.004 125.502 208.004 124.567C208.004 123.632 208.558 122.894 209.259 122.894C209.923 122.894 210.514 123.632 210.514 124.567Z" fill="white"/>
<path opacity="0.5" d="M218.042 124.567C218.042 125.502 217.304 126.24 216.369 126.24C215.434 126.24 214.696 125.502 214.696 124.567C214.696 123.632 215.434 122.894 216.369 122.894C217.304 122.894 218.042 123.632 218.042 124.567Z" fill="white"/>
<path opacity="0.5" d="M226.407 124.567C226.407 125.502 225.669 126.24 224.734 126.24C223.799 126.24 223.061 125.502 223.061 124.567C223.061 123.632 223.799 122.894 224.734 122.894C225.619 122.894 226.407 123.632 226.407 124.567Z" fill="white"/>
<g filter="url(#filter23_d)">
<path d="M412.284 281.922H287.92C283.718 281.922 280.272 278.522 280.272 274.272V260.341C280.272 256.138 283.671 252.691 287.92 252.691H412.284C416.486 252.691 419.932 256.091 419.932 260.341V274.272C419.932 278.522 416.486 281.922 412.284 281.922Z" fill="#EEF9FD"/>
</g>
<g opacity="0.5" filter="url(#filter24_d)">
<path d="M402.982 266.008H317.382C315.966 266.008 314.833 264.875 314.833 263.458C314.833 262.041 315.966 260.908 317.382 260.908H402.982C404.399 260.908 405.532 262.041 405.532 263.458C405.532 264.875 404.399 266.008 402.982 266.008Z" fill="#4749A0"/>
</g>
<g opacity="0.5" filter="url(#filter25_d)">
<path d="M373.379 274.934H317.382C315.966 274.934 314.833 273.8 314.833 272.384C314.833 270.967 315.966 269.833 317.382 269.833H373.426C374.842 269.833 375.975 270.967 375.975 272.384C375.975 273.8 374.795 274.934 373.379 274.934Z" fill="#4749A0"/>
</g>
<path opacity="0.025" d="M298.78 281.639C293.208 281.639 288.723 277.153 288.723 271.58V264.922C288.723 259.397 293.208 254.863 298.78 254.863C304.304 254.863 308.836 259.35 308.836 264.922V271.58C308.789 277.153 304.304 281.639 298.78 281.639Z" fill="#FEFEFF"/>
<path opacity="0.05" d="M298.78 281.45C293.256 281.45 288.77 276.964 288.77 271.486V265.016C288.77 259.491 293.256 255.052 298.733 255.052C304.257 255.052 308.695 259.538 308.695 265.016V271.486C308.742 277.011 304.257 281.45 298.78 281.45Z" fill="#FDFEFF"/>
<path opacity="0.075" d="M298.78 281.308C293.256 281.308 288.817 276.869 288.817 271.391V265.063C288.817 259.585 293.256 255.146 298.733 255.146H298.78C304.257 255.146 308.695 259.585 308.695 265.063V271.391C308.695 276.869 304.257 281.308 298.78 281.308Z" fill="#FCFDFF"/>
<path opacity="0.1" d="M298.78 281.12C293.303 281.12 288.912 276.728 288.912 271.25V265.111C288.912 259.68 293.303 255.241 298.78 255.241H298.827C304.257 255.241 308.695 259.633 308.695 265.111V271.25C308.6 276.728 304.209 281.12 298.78 281.12Z" fill="#FBFCFF"/>
<path opacity="0.125" d="M298.78 280.978H298.732C293.35 280.978 288.959 276.586 288.959 271.202V265.252C288.959 259.869 293.35 255.477 298.732 255.477H298.78C304.162 255.477 308.553 259.869 308.553 265.252V271.202C308.553 276.586 304.162 280.978 298.78 280.978Z" fill="#FAFBFF"/>
<path opacity="0.15" d="M298.78 280.789H298.733C293.35 280.789 289.006 276.444 289.006 271.061V265.252C289.006 259.869 293.35 255.524 298.733 255.524H298.78C304.162 255.524 308.506 259.869 308.506 265.252V271.061C308.506 276.444 304.162 280.789 298.78 280.789Z" fill="#F9FBFF"/>
<path opacity="0.175" d="M298.78 280.6H298.685C293.35 280.6 289.054 276.255 289.054 270.966V265.347C289.054 260.01 293.397 255.713 298.685 255.713H298.78C304.115 255.713 308.412 260.058 308.412 265.347V270.966C308.459 276.303 304.115 280.6 298.78 280.6Z" fill="#F8FAFF"/>
<path opacity="0.2" d="M298.78 280.458H298.685C293.397 280.458 289.101 276.161 289.101 270.872V265.394C289.101 260.105 293.397 255.808 298.685 255.808H298.78C304.068 255.808 308.364 260.105 308.364 265.394V270.872C308.412 276.161 304.115 280.458 298.78 280.458Z" fill="#F7F9FF"/>
<path opacity="0.225" d="M298.827 280.27H298.733C293.492 280.27 289.195 276.02 289.195 270.73V265.441C289.195 260.2 293.444 255.902 298.733 255.902H298.827C304.068 255.902 308.364 260.152 308.364 265.441V270.73C308.317 276.02 304.068 280.27 298.827 280.27Z" fill="#F6F8FF"/>
<path opacity="0.25" d="M298.827 280.128H298.732C293.492 280.128 289.29 275.878 289.29 270.683V265.583C289.29 260.341 293.539 256.138 298.732 256.138H298.827C304.068 256.138 308.27 260.389 308.27 265.583V270.683C308.27 275.878 304.021 280.128 298.827 280.128Z" fill="#F5F8FF"/>
<path opacity="0.275" d="M298.827 279.939H298.685C293.492 279.939 289.29 275.736 289.29 270.541V265.583C289.29 260.388 293.492 256.186 298.685 256.186H298.827C304.02 256.186 308.223 260.388 308.223 265.583V270.541C308.223 275.736 304.02 279.939 298.827 279.939Z" fill="#F4F7FF"/>
<path opacity="0.3" d="M298.827 279.797H298.685C293.539 279.797 289.337 275.594 289.337 270.447V265.677C289.337 260.53 293.539 256.327 298.685 256.327H298.827C303.973 256.327 308.175 260.53 308.175 265.677V270.447C308.175 275.594 303.973 279.797 298.827 279.797Z" fill="#F3F6FF"/>
<path opacity="0.325" d="M298.827 279.608H298.685C293.586 279.608 289.431 275.453 289.431 270.353V265.725C289.431 260.625 293.586 256.469 298.685 256.469H298.827C303.926 256.469 308.081 260.625 308.081 265.725V270.353C308.081 275.453 303.926 279.608 298.827 279.608Z" fill="#F2F6FF"/>
<path opacity="0.35" d="M298.827 279.467H298.685C293.586 279.467 289.478 275.359 289.478 270.258V265.819C289.478 260.719 293.586 256.611 298.685 256.611H298.827C303.926 256.611 308.034 260.719 308.034 265.819V270.258C308.034 275.311 303.926 279.467 298.827 279.467Z" fill="#F1F5FF"/>
<path opacity="0.375" d="M298.827 279.278H298.638C293.586 279.278 289.478 275.169 289.478 270.117V265.866C289.478 260.814 293.586 256.705 298.638 256.705H298.827C303.879 256.705 307.987 260.814 307.987 265.866V270.117C307.987 275.169 303.879 279.278 298.827 279.278Z" fill="#F0F4FF"/>
<path opacity="0.4" d="M298.827 279.136H298.638C293.633 279.136 289.573 275.075 289.573 270.069V265.961C289.573 260.955 293.633 256.894 298.638 256.894H298.827C303.832 256.894 307.892 260.955 307.892 265.961V270.069C307.939 275.028 303.879 279.136 298.827 279.136Z" fill="#EFF3FF"/>
<path opacity="0.425" d="M298.827 278.947H298.638C293.681 278.947 289.62 274.933 289.62 269.927V266.008C289.62 261.049 293.633 256.988 298.638 256.988H298.827C303.785 256.988 307.845 261.002 307.845 266.008V269.927C307.845 274.933 303.832 278.947 298.827 278.947Z" fill="#EEF3FF"/>
<path opacity="0.45" d="M298.874 278.759H298.685C293.728 278.759 289.715 274.745 289.715 269.786V266.055C289.715 261.097 293.728 257.083 298.685 257.083H298.874C303.832 257.083 307.845 261.097 307.845 266.055V269.786C307.798 274.792 303.784 278.759 298.874 278.759Z" fill="#EDF2FF"/>
<path opacity="0.475" d="M298.874 278.617H298.685C293.775 278.617 289.809 274.65 289.809 269.739V266.15C289.809 261.238 293.775 257.272 298.685 257.272H298.874C303.784 257.272 307.751 261.238 307.751 266.15V269.739C307.751 274.65 303.784 278.617 298.874 278.617Z" fill="#ECF1FF"/>
<path opacity="0.5" d="M298.874 278.428H298.638C293.775 278.428 289.809 274.461 289.809 269.597V266.197C289.809 261.333 293.775 257.366 298.638 257.366H298.874C303.737 257.366 307.703 261.333 307.703 266.197V269.597C307.703 274.508 303.737 278.428 298.874 278.428Z" fill="#ECF1FF"/>
<path opacity="0.525" d="M298.874 278.286H298.638C293.822 278.286 289.856 274.367 289.856 269.503V266.244C289.856 261.428 293.775 257.461 298.638 257.461H298.874C303.69 257.461 307.656 261.38 307.656 266.244V269.503C307.609 274.367 303.69 278.286 298.874 278.286Z" fill="#EBF0FF"/>
<path opacity="0.55" d="M298.874 278.097H298.638C293.822 278.097 289.951 274.225 289.951 269.408V266.339C289.951 261.522 293.822 257.649 298.638 257.649H298.874C303.69 257.649 307.562 261.522 307.562 266.339V269.408C307.562 274.225 303.69 278.097 298.874 278.097Z" fill="#EAEFFF"/>
<path opacity="0.575" d="M298.874 277.955H298.638C293.869 277.955 289.998 274.083 289.998 269.314V266.433C289.998 261.663 293.869 257.791 298.638 257.791H298.874C303.643 257.791 307.514 261.663 307.514 266.433V269.314C307.514 274.083 303.643 277.955 298.874 277.955Z" fill="#E9EEFF"/>
<path opacity="0.6" d="M298.874 277.766H298.591C293.869 277.766 290.045 273.941 290.045 269.219V266.48C290.045 261.758 293.869 257.933 298.591 257.933H298.874C303.596 257.933 307.42 261.758 307.42 266.48V269.219C307.467 273.941 303.643 277.766 298.874 277.766Z" fill="#E8EEFF"/>
<path opacity="0.625" d="M298.874 277.625H298.591C293.917 277.625 290.092 273.8 290.092 269.125V266.575C290.092 261.9 293.917 258.074 298.591 258.074H298.874C303.548 258.074 307.373 261.9 307.373 266.575V269.125C307.373 273.8 303.596 277.625 298.874 277.625Z" fill="#E7EDFF"/>
<path opacity="0.65" d="M298.921 277.436H298.638C293.964 277.436 290.187 273.658 290.187 268.983V266.575C290.187 261.9 293.964 258.122 298.638 258.122H298.921C303.596 258.122 307.373 261.9 307.373 266.575V268.983C307.326 273.658 303.548 277.436 298.921 277.436Z" fill="#E6ECFF"/>
<path opacity="0.675" d="M298.921 277.295H298.638C294.011 277.295 290.281 273.564 290.281 268.936V266.716C290.281 262.089 294.011 258.358 298.638 258.358H298.921C303.548 258.358 307.278 262.089 307.278 266.716V268.936C307.278 273.517 303.548 277.295 298.921 277.295Z" fill="#E5EBFF"/>
<path opacity="0.7" d="M298.921 277.105H298.591C294.011 277.105 290.281 273.374 290.281 268.794V266.763C290.281 262.183 294.011 258.452 298.591 258.452H298.921C303.501 258.452 307.231 262.183 307.231 266.763V268.794C307.231 273.374 303.501 277.105 298.921 277.105Z" fill="#E4EBFF"/>
<path opacity="0.725" d="M298.921 276.917H298.591C294.058 276.917 290.328 273.233 290.328 268.653V266.764C290.328 262.23 294.011 258.5 298.591 258.5H298.921C303.454 258.5 307.184 262.183 307.184 266.764V268.653C307.184 273.233 303.454 276.917 298.921 276.917Z" fill="#E3EAFF"/>
<path opacity="0.75" d="M298.921 276.775H298.591C294.058 276.775 290.423 273.092 290.423 268.606V266.905C290.423 262.372 294.106 258.736 298.591 258.736H298.921C303.454 258.736 307.09 262.419 307.09 266.905V268.606C307.09 273.092 303.454 276.775 298.921 276.775Z" fill="#E2E9FF"/>
<path opacity="0.775" d="M298.921 276.586H298.591C294.106 276.586 290.47 272.949 290.47 268.463V266.905C290.47 262.419 294.106 258.782 298.591 258.782H298.921C303.407 258.782 307.042 262.419 307.042 266.905V268.463C307.042 272.949 303.407 276.586 298.921 276.586Z" fill="#E1E9FF"/>
<path opacity="0.8" d="M298.921 276.444H298.544C294.106 276.444 290.47 272.855 290.47 268.369V267C290.47 262.561 294.058 258.925 298.544 258.925H298.921C303.36 258.925 306.995 262.514 306.995 267V268.369C306.995 272.808 303.36 276.444 298.921 276.444Z" fill="#E0E8FF"/>
<path opacity="0.825" d="M298.921 276.256H298.544C294.153 276.256 290.564 272.667 290.564 268.275V267.094C290.564 262.703 294.153 259.114 298.544 259.114H298.921C303.312 259.114 306.901 262.703 306.901 267.094V268.275C306.948 272.667 303.36 276.256 298.921 276.256Z" fill="#DFE7FF"/>
<path opacity="0.85" d="M298.921 276.114H298.544C294.153 276.114 290.612 272.572 290.612 268.18V267.141C290.612 262.75 294.153 259.208 298.544 259.208H298.921C303.312 259.208 306.853 262.75 306.853 267.141V268.18C306.853 272.525 303.312 276.114 298.921 276.114Z" fill="#DEE6FF"/>
<path opacity="0.875" d="M298.969 275.925H298.544C294.2 275.925 290.659 272.383 290.659 268.039V267.189C290.659 262.844 294.2 259.302 298.544 259.302H298.921C303.265 259.302 306.806 262.844 306.806 267.189V268.039C306.806 272.43 303.312 275.925 298.969 275.925Z" fill="#DDE6FF"/>
<path opacity="0.9" d="M298.969 275.783H298.544C294.247 275.783 290.753 272.289 290.753 267.991V267.33C290.753 263.033 294.247 259.538 298.544 259.538H298.921C303.218 259.538 306.712 263.033 306.712 267.33V267.991C306.759 272.289 303.265 275.783 298.969 275.783Z" fill="#DCE5FF"/>
<path opacity="0.925" d="M298.969 275.594H298.544C294.294 275.594 290.8 272.147 290.8 267.85V267.33C290.8 263.08 294.247 259.585 298.544 259.585H298.969C303.218 259.585 306.712 263.033 306.712 267.33V267.85C306.712 272.147 303.218 275.594 298.969 275.594Z" fill="#DBE4FF"/>
<path opacity="0.95" d="M298.969 275.406H298.544C294.294 275.406 290.895 271.958 290.895 267.755V267.425C290.895 263.175 294.342 259.775 298.544 259.775H298.969C303.218 259.775 306.617 263.222 306.617 267.425V267.755C306.617 272.006 303.218 275.406 298.969 275.406Z" fill="#DAE3FF"/>
<path opacity="0.975" d="M298.969 275.264H298.544C294.342 275.264 290.942 271.864 290.942 267.661V267.472C290.942 263.269 294.342 259.869 298.544 259.869H298.969C303.171 259.869 306.57 263.269 306.57 267.472V267.661C306.57 271.864 303.171 275.264 298.969 275.264Z" fill="#D9E3FF"/>
<path opacity="0.5" d="M298.969 275.075H298.544C294.389 275.075 290.989 271.675 290.989 267.519C290.989 263.363 294.389 259.963 298.544 259.963H298.969C303.124 259.963 306.523 263.363 306.523 267.519C306.523 271.722 303.124 275.075 298.969 275.075Z" fill="#D8E2FF"/>
<g opacity="0.5" filter="url(#filter26_d)">
<path d="M298.591 275.925C303.519 275.925 307.514 271.929 307.514 267C307.514 262.07 303.519 258.074 298.591 258.074C293.663 258.074 289.667 262.07 289.667 267C289.667 271.929 293.663 275.925 298.591 275.925Z" fill="#4749A0"/>
</g>
<path opacity="0.5" d="M301.377 264.733C301.377 266.386 300.102 267.898 298.544 267.898C296.986 267.898 295.711 266.339 295.711 264.733C295.711 263.08 296.986 261.758 298.544 261.758C300.149 261.758 301.377 263.08 301.377 264.733Z" fill="white"/>
<path opacity="0.5" d="M304.162 271.108C304.162 272.336 301.66 274.036 298.591 274.036C295.522 274.036 293.02 272.336 293.02 271.108C293.02 269.88 295.522 268.936 298.591 268.936C301.66 268.936 304.162 269.88 304.162 271.108Z" fill="white"/>
<g filter="url(#filter27_d)">
<rect x="364.332" y="305.339" width="62.8142" height="19.3967" rx="9.69833" fill="#FE5F4A"/>
</g>
<g filter="url(#filter28_d)">
<rect x="200.83" y="333.972" width="100.687" height="24.9386" rx="12.4693" fill="#B3C5FF"/>
</g>
<g filter="url(#filter29_d)">
<rect x="256.254" y="154.784" width="45.7785" height="18.4573" rx="9.22866" fill="white"/>
</g>
<g filter="url(#filter30_d)">
<rect x="453.926" y="261.735" width="70.2634" height="28.4372" rx="14.2186" fill="#FFD2B1"/>
</g>
<g clip-path="url(#clip0)">
<path d="M39.3337 337.859C36.1382 335.333 34.7801 336.405 34.7801 336.405L33.1824 336.941C33.1824 336.941 39.9728 354.475 41.3309 357.921L47.4023 355.777L46.923 348.426H46.8431C45.6448 347.737 42.5292 340.31 39.3337 337.859Z" fill="#FE5F4A"/>
<path d="M43.4747 357.205L35.2829 336.187L33.1874 336.937L41.3792 357.955L43.4747 357.205Z" fill="#E85449"/>
</g>
<defs>
<filter id="filter0_d" x="479.423" y="70.2385" width="63.4211" height="63.4189" filterUnits="userSpaceOnUse" color-interpolation-filters="sRGB">
<feFlood flood-opacity="0" result="BackgroundImageFix"/>
<feColorMatrix in="SourceAlpha" type="matrix" values="0 0 0 0 0 0 0 0 0 0 0 0 0 0 0 0 0 0 127 0"/>
<feOffset dx="2" dy="10"/>
<feGaussianBlur stdDeviation="10"/>
<feColorMatrix type="matrix" values="0 0 0 0 0 0 0 0 0 0 0 0 0 0 0 0 0 0 0.07 0"/>
<feBlend mode="normal" in2="BackgroundImageFix" result="effect1_dropShadow"/>
<feBlend mode="normal" in="SourceGraphic" in2="effect1_dropShadow" result="shape"/>
</filter>
<filter id="filter1_d" x="46.1317" y="231.662" width="58.4023" height="58.4006" filterUnits="userSpaceOnUse" color-interpolation-filters="sRGB">
<feFlood flood-opacity="0" result="BackgroundImageFix"/>
<feColorMatrix in="SourceAlpha" type="matrix" values="0 0 0 0 0 0 0 0 0 0 0 0 0 0 0 0 0 0 127 0"/>
<feOffset dx="2" dy="10"/>
<feGaussianBlur stdDeviation="10"/>
<feColorMatrix type="matrix" values="0 0 0 0 0 0 0 0 0 0 0 0 0 0 0 0 0 0 0.07 0"/>
<feBlend mode="normal" in2="BackgroundImageFix" result="effect1_dropShadow"/>
<feBlend mode="normal" in="SourceGraphic" in2="effect1_dropShadow" result="shape"/>
</filter>
<filter id="filter2_d" x="310.338" y="119.782" width="136.144" height="186.082" filterUnits="userSpaceOnUse" color-interpolation-filters="sRGB">
<feFlood flood-opacity="0" result="BackgroundImageFix"/>
<feColorMatrix in="SourceAlpha" type="matrix" values="0 0 0 0 0 0 0 0 0 0 0 0 0 0 0 0 0 0 127 0"/>
<feOffset dy="7"/>
<feGaussianBlur stdDeviation="3.5"/>
<feColorMatrix type="matrix" values="0 0 0 0 0 0 0 0 0 0 0 0 0 0 0 0 0 0 0.12 0"/>
<feBlend mode="normal" in2="BackgroundImageFix" result="effect1_dropShadow"/>
<feBlend mode="normal" in="SourceGraphic" in2="effect1_dropShadow" result="shape"/>
</filter>
<filter id="filter3_d" x="295.323" y="148.305" width="126.843" height="157.606" filterUnits="userSpaceOnUse" color-interpolation-filters="sRGB">
<feFlood flood-opacity="0" result="BackgroundImageFix"/>
<feColorMatrix in="SourceAlpha" type="matrix" values="0 0 0 0 0 0 0 0 0 0 0 0 0 0 0 0 0 0 127 0"/>
<feOffset dy="7"/>
<feGaussianBlur stdDeviation="3.5"/>
<feColorMatrix type="matrix" values="0 0 0 0 0 0 0 0 0 0 0 0 0 0 0 0 0 0 0.12 0"/>
<feBlend mode="normal" in2="BackgroundImageFix" result="effect1_dropShadow"/>
<feBlend mode="normal" in="SourceGraphic" in2="effect1_dropShadow" result="shape"/>
</filter>
<filter id="filter4_d" x="246.126" y="363.172" width="126.843" height="28.8282" filterUnits="userSpaceOnUse" color-interpolation-filters="sRGB">
<feFlood flood-opacity="0" result="BackgroundImageFix"/>
<feColorMatrix in="SourceAlpha" type="matrix" values="0 0 0 0 0 0 0 0 0 0 0 0 0 0 0 0 0 0 127 0"/>
<feOffset dy="7"/>
<feGaussianBlur stdDeviation="3.5"/>
<feColorMatrix type="matrix" values="0 0 0 0 0 0 0 0 0 0 0 0 0 0 0 0 0 0 0.12 0"/>
<feBlend mode="normal" in2="BackgroundImageFix" result="effect1_dropShadow"/>
<feBlend mode="normal" in="SourceGraphic" in2="effect1_dropShadow" result="shape"/>
</filter>
<filter id="filter5_d" x="261.187" y="148.305" width="136.097" height="243.647" filterUnits="userSpaceOnUse" color-interpolation-filters="sRGB">
<feFlood flood-opacity="0" result="BackgroundImageFix"/>
<feColorMatrix in="SourceAlpha" type="matrix" values="0 0 0 0 0 0 0 0 0 0 0 0 0 0 0 0 0 0 127 0"/>
<feOffset dy="7"/>
<feGaussianBlur stdDeviation="3.5"/>
<feColorMatrix type="matrix" values="0 0 0 0 0 0 0 0 0 0 0 0 0 0 0 0 0 0 0.12 0"/>
<feBlend mode="normal" in2="BackgroundImageFix" result="effect1_dropShadow"/>
<feBlend mode="normal" in="SourceGraphic" in2="effect1_dropShadow" result="shape"/>
</filter>
<filter id="filter6_d" x="276.674" y="161.717" width="59.1371" height="16.7392" filterUnits="userSpaceOnUse" color-interpolation-filters="sRGB">
<feFlood flood-opacity="0" result="BackgroundImageFix"/>
<feColorMatrix in="SourceAlpha" type="matrix" values="0 0 0 0 0 0 0 0 0 0 0 0 0 0 0 0 0 0 127 0"/>
<feOffset dy="7"/>
<feGaussianBlur stdDeviation="3.5"/>
<feColorMatrix type="matrix" values="0 0 0 0 0 0 0 0 0 0 0 0 0 0 0 0 0 0 0.12 0"/>
<feBlend mode="normal" in2="BackgroundImageFix" result="effect1_dropShadow"/>
<feBlend mode="normal" in="SourceGraphic" in2="effect1_dropShadow" result="shape"/>
</filter>
<filter id="filter7_d" x="276.674" y="167.195" width="59.1371" height="16.7392" filterUnits="userSpaceOnUse" color-interpolation-filters="sRGB">
<feFlood flood-opacity="0" result="BackgroundImageFix"/>
<feColorMatrix in="SourceAlpha" type="matrix" values="0 0 0 0 0 0 0 0 0 0 0 0 0 0 0 0 0 0 127 0"/>
<feOffset dy="7"/>
<feGaussianBlur stdDeviation="3.5"/>
<feColorMatrix type="matrix" values="0 0 0 0 0 0 0 0 0 0 0 0 0 0 0 0 0 0 0.12 0"/>
<feBlend mode="normal" in2="BackgroundImageFix" result="effect1_dropShadow"/>
<feBlend mode="normal" in="SourceGraphic" in2="effect1_dropShadow" result="shape"/>
</filter>
<filter id="filter8_d" x="276.674" y="172.673" width="95.634" height="16.7392" filterUnits="userSpaceOnUse" color-interpolation-filters="sRGB">
<feFlood flood-opacity="0" result="BackgroundImageFix"/>
<feColorMatrix in="SourceAlpha" type="matrix" values="0 0 0 0 0 0 0 0 0 0 0 0 0 0 0 0 0 0 127 0"/>
<feOffset dy="7"/>
<feGaussianBlur stdDeviation="3.5"/>
<feColorMatrix type="matrix" values="0 0 0 0 0 0 0 0 0 0 0 0 0 0 0 0 0 0 0.12 0"/>
<feBlend mode="normal" in2="BackgroundImageFix" result="effect1_dropShadow"/>
<feBlend mode="normal" in="SourceGraphic" in2="effect1_dropShadow" result="shape"/>
</filter>
<filter id="filter9_d" x="276.674" y="241.572" width="59.1371" height="16.7392" filterUnits="userSpaceOnUse" color-interpolation-filters="sRGB">
<feFlood flood-opacity="0" result="BackgroundImageFix"/>
<feColorMatrix in="SourceAlpha" type="matrix" values="0 0 0 0 0 0 0 0 0 0 0 0 0 0 0 0 0 0 127 0"/>
<feOffset dy="7"/>
<feGaussianBlur stdDeviation="3.5"/>
<feColorMatrix type="matrix" values="0 0 0 0 0 0 0 0 0 0 0 0 0 0 0 0 0 0 0.12 0"/>
<feBlend mode="normal" in2="BackgroundImageFix" result="effect1_dropShadow"/>
<feBlend mode="normal" in="SourceGraphic" in2="effect1_dropShadow" result="shape"/>
</filter>
<filter id="filter10_d" x="276.674" y="247.05" width="95.634" height="16.7392" filterUnits="userSpaceOnUse" color-interpolation-filters="sRGB">
<feFlood flood-opacity="0" result="BackgroundImageFix"/>
<feColorMatrix in="SourceAlpha" type="matrix" values="0 0 0 0 0 0 0 0 0 0 0 0 0 0 0 0 0 0 127 0"/>
<feOffset dy="7"/>
<feGaussianBlur stdDeviation="3.5"/>
<feColorMatrix type="matrix" values="0 0 0 0 0 0 0 0 0 0 0 0 0 0 0 0 0 0 0.12 0"/>
<feBlend mode="normal" in2="BackgroundImageFix" result="effect1_dropShadow"/>
<feBlend mode="normal" in="SourceGraphic" in2="effect1_dropShadow" result="shape"/>
</filter>
<filter id="filter11_d" x="276.674" y="284.45" width="59.1371" height="16.7392" filterUnits="userSpaceOnUse" color-interpolation-filters="sRGB">
<feFlood flood-opacity="0" result="BackgroundImageFix"/>
<feColorMatrix in="SourceAlpha" type="matrix" values="0 0 0 0 0 0 0 0 0 0 0 0 0 0 0 0 0 0 127 0"/>
<feOffset dy="7"/>
<feGaussianBlur stdDeviation="3.5"/>
<feColorMatrix type="matrix" values="0 0 0 0 0 0 0 0 0 0 0 0 0 0 0 0 0 0 0.12 0"/>
<feBlend mode="normal" in2="BackgroundImageFix" result="effect1_dropShadow"/>
<feBlend mode="normal" in="SourceGraphic" in2="effect1_dropShadow" result="shape"/>
</filter>
<filter id="filter12_d" x="276.674" y="289.928" width="95.634" height="16.7392" filterUnits="userSpaceOnUse" color-interpolation-filters="sRGB">
<feFlood flood-opacity="0" result="BackgroundImageFix"/>
<feColorMatrix in="SourceAlpha" type="matrix" values="0 0 0 0 0 0 0 0 0 0 0 0 0 0 0 0 0 0 127 0"/>
<feOffset dy="7"/>
<feGaussianBlur stdDeviation="3.5"/>
<feColorMatrix type="matrix" values="0 0 0 0 0 0 0 0 0 0 0 0 0 0 0 0 0 0 0.12 0"/>
<feBlend mode="normal" in2="BackgroundImageFix" result="effect1_dropShadow"/>
<feBlend mode="normal" in="SourceGraphic" in2="effect1_dropShadow" result="shape"/>
</filter>
<filter id="filter13_d" x="276.674" y="178.151" width="95.634" height="16.7392" filterUnits="userSpaceOnUse" color-interpolation-filters="sRGB">
<feFlood flood-opacity="0" result="BackgroundImageFix"/>
<feColorMatrix in="SourceAlpha" type="matrix" values="0 0 0 0 0 0 0 0 0 0 0 0 0 0 0 0 0 0 127 0"/>
<feOffset dy="7"/>
<feGaussianBlur stdDeviation="3.5"/>
<feColorMatrix type="matrix" values="0 0 0 0 0 0 0 0 0 0 0 0 0 0 0 0 0 0 0.12 0"/>
<feBlend mode="normal" in2="BackgroundImageFix" result="effect1_dropShadow"/>
<feBlend mode="normal" in="SourceGraphic" in2="effect1_dropShadow" result="shape"/>
</filter>
<filter id="filter14_d" x="276.674" y="183.629" width="95.634" height="16.7392" filterUnits="userSpaceOnUse" color-interpolation-filters="sRGB">
<feFlood flood-opacity="0" result="BackgroundImageFix"/>
<feColorMatrix in="SourceAlpha" type="matrix" values="0 0 0 0 0 0 0 0 0 0 0 0 0 0 0 0 0 0 127 0"/>
<feOffset dy="7"/>
<feGaussianBlur stdDeviation="3.5"/>
<feColorMatrix type="matrix" values="0 0 0 0 0 0 0 0 0 0 0 0 0 0 0 0 0 0 0.12 0"/>
<feBlend mode="normal" in2="BackgroundImageFix" result="effect1_dropShadow"/>
<feBlend mode="normal" in="SourceGraphic" in2="effect1_dropShadow" result="shape"/>
</filter>
<filter id="filter15_d" x="276.674" y="321.38" width="59.1371" height="16.7393" filterUnits="userSpaceOnUse" color-interpolation-filters="sRGB">
<feFlood flood-opacity="0" result="BackgroundImageFix"/>
<feColorMatrix in="SourceAlpha" type="matrix" values="0 0 0 0 0 0 0 0 0 0 0 0 0 0 0 0 0 0 127 0"/>
<feOffset dy="7"/>
<feGaussianBlur stdDeviation="3.5"/>
<feColorMatrix type="matrix" values="0 0 0 0 0 0 0 0 0 0 0 0 0 0 0 0 0 0 0.12 0"/>
<feBlend mode="normal" in2="BackgroundImageFix" result="effect1_dropShadow"/>
<feBlend mode="normal" in="SourceGraphic" in2="effect1_dropShadow" result="shape"/>
</filter>
<filter id="filter16_d" x="276.674" y="326.857" width="95.634" height="16.7392" filterUnits="userSpaceOnUse" color-interpolation-filters="sRGB">
<feFlood flood-opacity="0" result="BackgroundImageFix"/>
<feColorMatrix in="SourceAlpha" type="matrix" values="0 0 0 0 0 0 0 0 0 0 0 0 0 0 0 0 0 0 127 0"/>
<feOffset dy="7"/>
<feGaussianBlur stdDeviation="3.5"/>
<feColorMatrix type="matrix" values="0 0 0 0 0 0 0 0 0 0 0 0 0 0 0 0 0 0 0.12 0"/>
<feBlend mode="normal" in2="BackgroundImageFix" result="effect1_dropShadow"/>
<feBlend mode="normal" in="SourceGraphic" in2="effect1_dropShadow" result="shape"/>
</filter>
<filter id="filter17_d" x="275.776" y="194.159" width="94.6897" height="26.2781" filterUnits="userSpaceOnUse" color-interpolation-filters="sRGB">
<feFlood flood-opacity="0" result="BackgroundImageFix"/>
<feColorMatrix in="SourceAlpha" type="matrix" values="0 0 0 0 0 0 0 0 0 0 0 0 0 0 0 0 0 0 127 0"/>
<feOffset dy="7"/>
<feGaussianBlur stdDeviation="3.5"/>
<feColorMatrix type="matrix" values="0 0 0 0 0 0 0 0 0 0 0 0 0 0 0 0 0 0 0.12 0"/>
<feBlend mode="normal" in2="BackgroundImageFix" result="effect1_dropShadow"/>
<feBlend mode="normal" in="SourceGraphic" in2="effect1_dropShadow" result="shape"/>
</filter>
<filter id="filter18_d" x="275.776" y="211.018" width="94.6897" height="26.2781" filterUnits="userSpaceOnUse" color-interpolation-filters="sRGB">
<feFlood flood-opacity="0" result="BackgroundImageFix"/>
<feColorMatrix in="SourceAlpha" type="matrix" values="0 0 0 0 0 0 0 0 0 0 0 0 0 0 0 0 0 0 127 0"/>
<feOffset dy="7"/>
<feGaussianBlur stdDeviation="3.5"/>
<feColorMatrix type="matrix" values="0 0 0 0 0 0 0 0 0 0 0 0 0 0 0 0 0 0 0.12 0"/>
<feBlend mode="normal" in2="BackgroundImageFix" result="effect1_dropShadow"/>
<feBlend mode="normal" in="SourceGraphic" in2="effect1_dropShadow" result="shape"/>
</filter>
<filter id="filter19_d" x="275.776" y="299.515" width="94.6897" height="26.2781" filterUnits="userSpaceOnUse" color-interpolation-filters="sRGB">
<feFlood flood-opacity="0" result="BackgroundImageFix"/>
<feColorMatrix in="SourceAlpha" type="matrix" values="0 0 0 0 0 0 0 0 0 0 0 0 0 0 0 0 0 0 127 0"/>
<feOffset dy="7"/>
<feGaussianBlur stdDeviation="3.5"/>
<feColorMatrix type="matrix" values="0 0 0 0 0 0 0 0 0 0 0 0 0 0 0 0 0 0 0.12 0"/>
<feBlend mode="normal" in2="BackgroundImageFix" result="effect1_dropShadow"/>
<feBlend mode="normal" in="SourceGraphic" in2="effect1_dropShadow" result="shape"/>
</filter>
<filter id="filter20_d" x="275.776" y="256.636" width="29.0142" height="26.2781" filterUnits="userSpaceOnUse" color-interpolation-filters="sRGB">
<feFlood flood-opacity="0" result="BackgroundImageFix"/>
<feColorMatrix in="SourceAlpha" type="matrix" values="0 0 0 0 0 0 0 0 0 0 0 0 0 0 0 0 0 0 127 0"/>
<feOffset dy="7"/>
<feGaussianBlur stdDeviation="3.5"/>
<feColorMatrix type="matrix" values="0 0 0 0 0 0 0 0 0 0 0 0 0 0 0 0 0 0 0.12 0"/>
<feBlend mode="normal" in2="BackgroundImageFix" result="effect1_dropShadow"/>
<feBlend mode="normal" in="SourceGraphic" in2="effect1_dropShadow" result="shape"/>
</filter>
<filter id="filter21_d" x="294.473" y="256.636" width="29.0142" height="26.2781" filterUnits="userSpaceOnUse" color-interpolation-filters="sRGB">
<feFlood flood-opacity="0" result="BackgroundImageFix"/>
<feColorMatrix in="SourceAlpha" type="matrix" values="0 0 0 0 0 0 0 0 0 0 0 0 0 0 0 0 0 0 127 0"/>
<feOffset dy="7"/>
<feGaussianBlur stdDeviation="3.5"/>
<feColorMatrix type="matrix" values="0 0 0 0 0 0 0 0 0 0 0 0 0 0 0 0 0 0 0.12 0"/>
<feBlend mode="normal" in2="BackgroundImageFix" result="effect1_dropShadow"/>
<feBlend mode="normal" in="SourceGraphic" in2="effect1_dropShadow" result="shape"/>
</filter>
<filter id="filter22_d" x="313.171" y="256.636" width="29.0142" height="26.2781" filterUnits="userSpaceOnUse" color-interpolation-filters="sRGB">
<feFlood flood-opacity="0" result="BackgroundImageFix"/>
<feColorMatrix in="SourceAlpha" type="matrix" values="0 0 0 0 0 0 0 0 0 0 0 0 0 0 0 0 0 0 127 0"/>
<feOffset dy="7"/>
<feGaussianBlur stdDeviation="3.5"/>
<feColorMatrix type="matrix" values="0 0 0 0 0 0 0 0 0 0 0 0 0 0 0 0 0 0 0.12 0"/>
<feBlend mode="normal" in2="BackgroundImageFix" result="effect1_dropShadow"/>
<feBlend mode="normal" in="SourceGraphic" in2="effect1_dropShadow" result="shape"/>
</filter>
<filter id="filter23_d" x="273.272" y="252.691" width="153.661" height="43.2313" filterUnits="userSpaceOnUse" color-interpolation-filters="sRGB">
<feFlood flood-opacity="0" result="BackgroundImageFix"/>
<feColorMatrix in="SourceAlpha" type="matrix" values="0 0 0 0 0 0 0 0 0 0 0 0 0 0 0 0 0 0 127 0"/>
<feOffset dy="7"/>
<feGaussianBlur stdDeviation="3.5"/>
<feColorMatrix type="matrix" values="0 0 0 0 0 0 0 0 0 0 0 0 0 0 0 0 0 0 0.12 0"/>
<feBlend mode="normal" in2="BackgroundImageFix" result="effect1_dropShadow"/>
<feBlend mode="normal" in="SourceGraphic" in2="effect1_dropShadow" result="shape"/>
</filter>
<filter id="filter24_d" x="307.833" y="260.908" width="104.699" height="19.1006" filterUnits="userSpaceOnUse" color-interpolation-filters="sRGB">
<feFlood flood-opacity="0" result="BackgroundImageFix"/>
<feColorMatrix in="SourceAlpha" type="matrix" values="0 0 0 0 0 0 0 0 0 0 0 0 0 0 0 0 0 0 127 0"/>
<feOffset dy="7"/>
<feGaussianBlur stdDeviation="3.5"/>
<feColorMatrix type="matrix" values="0 0 0 0 0 0 0 0 0 0 0 0 0 0 0 0 0 0 0.12 0"/>
<feBlend mode="normal" in2="BackgroundImageFix" result="effect1_dropShadow"/>
<feBlend mode="normal" in="SourceGraphic" in2="effect1_dropShadow" result="shape"/>
</filter>
<filter id="filter25_d" x="307.833" y="269.833" width="75.1428" height="19.1006" filterUnits="userSpaceOnUse" color-interpolation-filters="sRGB">
<feFlood flood-opacity="0" result="BackgroundImageFix"/>
<feColorMatrix in="SourceAlpha" type="matrix" values="0 0 0 0 0 0 0 0 0 0 0 0 0 0 0 0 0 0 127 0"/>
<feOffset dy="7"/>
<feGaussianBlur stdDeviation="3.5"/>
<feColorMatrix type="matrix" values="0 0 0 0 0 0 0 0 0 0 0 0 0 0 0 0 0 0 0.12 0"/>
<feBlend mode="normal" in2="BackgroundImageFix" result="effect1_dropShadow"/>
<feBlend mode="normal" in="SourceGraphic" in2="effect1_dropShadow" result="shape"/>
</filter>
<filter id="filter26_d" x="282.667" y="258.074" width="31.8471" height="31.8505" filterUnits="userSpaceOnUse" color-interpolation-filters="sRGB">
<feFlood flood-opacity="0" result="BackgroundImageFix"/>
<feColorMatrix in="SourceAlpha" type="matrix" values="0 0 0 0 0 0 0 0 0 0 0 0 0 0 0 0 0 0 127 0"/>
<feOffset dy="7"/>
<feGaussianBlur stdDeviation="3.5"/>
<feColorMatrix type="matrix" values="0 0 0 0 0 0 0 0 0 0 0 0 0 0 0 0 0 0 0.12 0"/>
<feBlend mode="normal" in2="BackgroundImageFix" result="effect1_dropShadow"/>
<feBlend mode="normal" in="SourceGraphic" in2="effect1_dropShadow" result="shape"/>
</filter>
<filter id="filter27_d" x="357.332" y="305.339" width="76.8142" height="33.3967" filterUnits="userSpaceOnUse" color-interpolation-filters="sRGB">
<feFlood flood-opacity="0" result="BackgroundImageFix"/>
<feColorMatrix in="SourceAlpha" type="matrix" values="0 0 0 0 0 0 0 0 0 0 0 0 0 0 0 0 0 0 127 0"/>
<feOffset dy="7"/>
<feGaussianBlur stdDeviation="3.5"/>
<feColorMatrix type="matrix" values="0 0 0 0 0 0 0 0 0 0 0 0 0 0 0 0 0 0 0.12 0"/>
<feBlend mode="normal" in2="BackgroundImageFix" result="effect1_dropShadow"/>
<feBlend mode="normal" in="SourceGraphic" in2="effect1_dropShadow" result="shape"/>
</filter>
<filter id="filter28_d" x="193.83" y="333.972" width="114.687" height="38.9386" filterUnits="userSpaceOnUse" color-interpolation-filters="sRGB">
<feFlood flood-opacity="0" result="BackgroundImageFix"/>
<feColorMatrix in="SourceAlpha" type="matrix" values="0 0 0 0 0 0 0 0 0 0 0 0 0 0 0 0 0 0 127 0"/>
<feOffset dy="7"/>
<feGaussianBlur stdDeviation="3.5"/>
<feColorMatrix type="matrix" values="0 0 0 0 0 0 0 0 0 0 0 0 0 0 0 0 0 0 0.12 0"/>
<feBlend mode="normal" in2="BackgroundImageFix" result="effect1_dropShadow"/>
<feBlend mode="normal" in="SourceGraphic" in2="effect1_dropShadow" result="shape"/>
</filter>
<filter id="filter29_d" x="249.254" y="154.784" width="59.7785" height="32.4573" filterUnits="userSpaceOnUse" color-interpolation-filters="sRGB">
<feFlood flood-opacity="0" result="BackgroundImageFix"/>
<feColorMatrix in="SourceAlpha" type="matrix" values="0 0 0 0 0 0 0 0 0 0 0 0 0 0 0 0 0 0 127 0"/>
<feOffset dy="7"/>
<feGaussianBlur stdDeviation="3.5"/>
<feColorMatrix type="matrix" values="0 0 0 0 0 0 0 0 0 0 0 0 0 0 0 0 0 0 0.12 0"/>
<feBlend mode="normal" in2="BackgroundImageFix" result="effect1_dropShadow"/>
<feBlend mode="normal" in="SourceGraphic" in2="effect1_dropShadow" result="shape"/>
</filter>
<filter id="filter30_d" x="446.926" y="261.735" width="84.2634" height="42.4372" filterUnits="userSpaceOnUse" color-interpolation-filters="sRGB">
<feFlood flood-opacity="0" result="BackgroundImageFix"/>
<feColorMatrix in="SourceAlpha" type="matrix" values="0 0 0 0 0 0 0 0 0 0 0 0 0 0 0 0 0 0 127 0"/>
<feOffset dy="7"/>
<feGaussianBlur stdDeviation="3.5"/>
<feColorMatrix type="matrix" values="0 0 0 0 0 0 0 0 0 0 0 0 0 0 0 0 0 0 0.12 0"/>
<feBlend mode="normal" in2="BackgroundImageFix" result="effect1_dropShadow"/>
<feBlend mode="normal" in="SourceGraphic" in2="effect1_dropShadow" result="shape"/>
</filter>
<clipPath id="clip0">
<rect width="14.22" height="21.7461" fill="white" transform="translate(33.1824 336.174)"/>
</clipPath>
</defs>
</svg>
