<svg width="38" height="38" viewBox="0 0 38 38" fill="none" xmlns="http://www.w3.org/2000/svg">
<path d="M19 0C8.50403 0 0 8.50403 0 19C0 29.496 8.50403 38 19 38C29.496 38 38 29.496 38 19C37.9847 8.51169 29.4883 0.0153226 19 0ZM19 36.7742C9.18589 36.7742 1.22581 28.8141 1.22581 19C1.22581 9.18589 9.18589 1.22581 19 1.22581C28.8141 1.22581 36.7742 9.18589 36.7742 19C36.7665 28.8141 28.8141 36.7665 19 36.7742Z" fill="white"/>
<path d="M27.6651 10.3351C27.4276 10.0976 27.0369 10.0976 26.7994 10.3351L19.0002 18.1343L11.201 10.3351C10.9635 10.0899 10.5804 10.0823 10.3352 10.3198C10.0901 10.5573 10.0824 10.9403 10.3199 11.1855C10.3276 11.1931 10.3276 11.1931 10.3352 11.2008L18.1344 19L10.3352 26.7992C10.0901 27.0367 10.0824 27.4198 10.3199 27.6649C10.5574 27.9101 10.9405 27.9177 11.1856 27.6802C11.1933 27.6726 11.1933 27.6726 11.201 27.6649L19.0002 19.8657L26.7994 27.6649C27.0445 27.9024 27.4276 27.8948 27.6651 27.6496C27.8949 27.4121 27.8949 27.0367 27.6651 26.7992L19.8659 19L27.6651 11.2008C27.9102 10.9633 27.9102 10.5726 27.6651 10.3351Z" fill="white"/>
</svg>
