<svg width="635" height="540" viewBox="0 0 635 540" fill="none" xmlns="http://www.w3.org/2000/svg">
<g clip-path="url(#clip0)">
<g opacity="0.5" filter="url(#filter0_d)">
<path d="M140.364 269.643H45.1741C37.6681 269.643 31.5268 263.693 31.5268 256.42V164.189C31.5268 156.916 37.6681 150.966 45.1741 150.966H140.364C147.87 150.966 154.012 156.916 154.012 164.189V256.42C153.67 263.693 147.529 269.643 140.364 269.643Z" fill="#ABE9FF"/>
</g>
<g filter="url(#filter1_d)">
<path d="M554.902 388.981H447.77C440.264 388.981 434.123 383.031 434.123 375.758V272.287C434.123 265.015 440.264 259.064 447.77 259.064H554.902C562.408 259.064 568.549 265.015 568.549 272.287V376.089C568.549 383.361 562.408 388.981 554.902 388.981Z" fill="white"/>
</g>
<g filter="url(#filter2_d)">
<path d="M140.364 388.981H71.4453C63.9393 388.981 57.798 383.031 57.798 375.758V302.37C57.798 295.097 63.9393 289.147 71.4453 289.147H140.364C147.87 289.147 154.012 295.097 154.012 302.37V376.089C153.67 383.362 147.529 388.981 140.364 388.981Z" fill="white"/>
</g>
<g filter="url(#filter3_d)">
<path d="M399.961 442.865H189.792C182.286 442.865 176.145 436.915 176.145 429.642V83.5279C176.145 76.2552 182.286 70.3048 189.792 70.3048H399.961C407.467 70.3048 413.608 76.2552 413.608 83.5279V429.973C413.608 436.915 407.467 442.865 399.961 442.865Z" fill="white"/>
</g>
<g filter="url(#filter4_d)">
<path d="M516.689 238.238H447.77C440.264 238.238 434.123 232.288 434.123 225.015V158.238C434.123 150.966 440.264 145.015 447.77 145.015H516.689C524.195 145.015 530.336 150.966 530.336 158.238V225.015C530.336 232.288 524.195 238.238 516.689 238.238Z" fill="white"/>
</g>
<path d="M449.274 281.933H451.148C451.341 281.933 451.501 281.98 451.629 282.074C451.761 282.162 451.85 282.284 451.894 282.439L453.933 289.616C453.983 289.793 454.027 289.987 454.066 290.197C454.11 290.402 454.151 290.62 454.19 290.852C454.234 290.62 454.281 290.402 454.331 290.197C454.386 289.987 454.444 289.793 454.505 289.616L456.86 282.439C456.904 282.312 456.99 282.196 457.117 282.091C457.249 281.985 457.41 281.933 457.597 281.933H458.252C458.446 281.933 458.606 281.98 458.733 282.074C458.86 282.162 458.949 282.284 458.999 282.439L461.336 289.616C461.458 289.97 461.563 290.363 461.651 290.794C461.69 290.579 461.729 290.371 461.767 290.172C461.812 289.973 461.856 289.788 461.9 289.616L463.939 282.439C463.978 282.301 464.064 282.182 464.196 282.082C464.329 281.983 464.489 281.933 464.677 281.933H466.427L462.704 293.931H460.69L458.07 285.733C458.037 285.628 458.001 285.514 457.962 285.393C457.929 285.271 457.896 285.141 457.863 285.003C457.83 285.141 457.794 285.271 457.755 285.393C457.722 285.514 457.689 285.628 457.655 285.733L455.011 293.931H452.996L449.274 281.933Z" fill="black"/>
<path d="M470.802 285.285C471.338 285.285 471.83 285.371 472.277 285.542C472.73 285.714 473.12 285.965 473.446 286.297C473.772 286.624 474.026 287.027 474.209 287.509C474.391 287.984 474.482 288.529 474.482 289.143C474.482 289.298 474.474 289.428 474.458 289.533C474.447 289.633 474.422 289.713 474.383 289.774C474.35 289.829 474.303 289.871 474.242 289.898C474.181 289.92 474.104 289.931 474.01 289.931H468.754C468.815 290.805 469.05 291.447 469.459 291.856C469.868 292.266 470.409 292.47 471.083 292.47C471.415 292.47 471.7 292.432 471.937 292.354C472.181 292.277 472.391 292.191 472.567 292.097C472.75 292.003 472.907 291.917 473.04 291.84C473.178 291.762 473.311 291.724 473.438 291.724C473.521 291.724 473.593 291.74 473.653 291.773C473.714 291.807 473.767 291.854 473.811 291.914L474.408 292.661C474.181 292.927 473.927 293.151 473.645 293.333C473.363 293.51 473.068 293.654 472.758 293.765C472.454 293.87 472.142 293.944 471.821 293.989C471.506 294.033 471.2 294.055 470.901 294.055C470.31 294.055 469.76 293.958 469.251 293.765C468.743 293.566 468.301 293.275 467.925 292.893C467.549 292.506 467.253 292.031 467.038 291.466C466.822 290.897 466.715 290.238 466.715 289.492C466.715 288.911 466.808 288.366 466.996 287.857C467.184 287.343 467.452 286.897 467.801 286.521C468.154 286.14 468.583 285.838 469.086 285.617C469.594 285.396 470.166 285.285 470.802 285.285ZM470.843 286.754C470.246 286.754 469.779 286.922 469.442 287.26C469.105 287.597 468.889 288.076 468.795 288.695H472.642C472.642 288.43 472.606 288.181 472.534 287.948C472.462 287.71 472.352 287.503 472.203 287.326C472.053 287.149 471.865 287.011 471.639 286.911C471.412 286.806 471.147 286.754 470.843 286.754Z" fill="black"/>
<path d="M476.168 293.931V281.601H478.216V286.463C478.553 286.104 478.934 285.819 479.36 285.609C479.786 285.393 480.283 285.285 480.852 285.285C481.317 285.285 481.739 285.382 482.121 285.575C482.508 285.763 482.839 286.04 483.116 286.405C483.397 286.77 483.613 287.221 483.762 287.757C483.917 288.294 483.994 288.911 483.994 289.608C483.994 290.244 483.909 290.833 483.737 291.375C483.566 291.917 483.32 292.387 482.999 292.786C482.684 293.184 482.3 293.496 481.847 293.723C481.399 293.944 480.897 294.055 480.338 294.055C480.079 294.055 479.841 294.027 479.625 293.972C479.41 293.922 479.214 293.85 479.037 293.756C478.86 293.662 478.694 293.549 478.539 293.416C478.39 293.278 478.246 293.126 478.108 292.96L478.017 293.532C477.984 293.676 477.926 293.778 477.843 293.839C477.766 293.9 477.658 293.931 477.52 293.931H476.168ZM480.148 286.878C479.722 286.878 479.357 286.969 479.053 287.152C478.755 287.329 478.476 287.58 478.216 287.907V291.724C478.448 292.011 478.7 292.213 478.97 292.329C479.247 292.44 479.545 292.495 479.866 292.495C480.175 292.495 480.454 292.437 480.703 292.321C480.952 292.205 481.162 292.028 481.333 291.79C481.51 291.552 481.645 291.253 481.739 290.894C481.833 290.529 481.88 290.1 481.88 289.608C481.88 289.11 481.839 288.69 481.756 288.347C481.679 287.998 481.565 287.716 481.416 287.5C481.267 287.285 481.084 287.127 480.869 287.027C480.659 286.928 480.418 286.878 480.148 286.878Z" fill="black"/>
<path d="M499.566 287.932C499.566 288.811 499.42 289.619 499.127 290.355C498.834 291.09 498.422 291.724 497.892 292.255C497.361 292.786 496.723 293.198 495.977 293.491C495.23 293.784 494.404 293.931 493.498 293.931H488.922V281.933H493.498C494.404 281.933 495.23 282.082 495.977 282.381C496.723 282.674 497.361 283.086 497.892 283.617C498.422 284.143 498.834 284.773 499.127 285.509C499.42 286.245 499.566 287.052 499.566 287.932ZM497.286 287.932C497.286 287.273 497.198 286.684 497.021 286.164C496.844 285.639 496.593 285.196 496.267 284.837C495.941 284.472 495.543 284.192 495.073 283.999C494.609 283.805 494.084 283.708 493.498 283.708H491.168V292.155H493.498C494.084 292.155 494.609 292.058 495.073 291.865C495.543 291.671 495.941 291.394 496.267 291.035C496.593 290.67 496.844 290.227 497.021 289.707C497.198 289.182 497.286 288.59 497.286 287.932Z" fill="black"/>
<path d="M504.707 285.285C505.243 285.285 505.735 285.371 506.183 285.542C506.636 285.714 507.026 285.965 507.352 286.297C507.678 286.624 507.932 287.027 508.115 287.509C508.297 287.984 508.388 288.529 508.388 289.143C508.388 289.298 508.38 289.428 508.363 289.533C508.352 289.633 508.327 289.713 508.289 289.774C508.255 289.829 508.209 289.871 508.148 289.898C508.087 289.92 508.01 289.931 507.916 289.931H502.66C502.72 290.805 502.955 291.447 503.364 291.856C503.773 292.266 504.315 292.47 504.989 292.47C505.321 292.47 505.605 292.432 505.843 292.354C506.086 292.277 506.296 292.191 506.473 292.097C506.655 292.003 506.813 291.917 506.946 291.84C507.084 291.762 507.216 291.724 507.344 291.724C507.426 291.724 507.498 291.74 507.559 291.773C507.62 291.807 507.672 291.854 507.717 291.914L508.314 292.661C508.087 292.927 507.833 293.151 507.551 293.333C507.269 293.51 506.973 293.654 506.664 293.765C506.36 293.87 506.048 293.944 505.727 293.989C505.412 294.033 505.105 294.055 504.807 294.055C504.215 294.055 503.665 293.958 503.157 293.765C502.649 293.566 502.206 293.275 501.831 292.893C501.455 292.506 501.159 292.031 500.944 291.466C500.728 290.897 500.62 290.238 500.62 289.492C500.62 288.911 500.714 288.366 500.902 287.857C501.09 287.343 501.358 286.897 501.706 286.521C502.06 286.14 502.488 285.838 502.991 285.617C503.5 285.396 504.072 285.285 504.707 285.285ZM504.749 286.754C504.152 286.754 503.685 286.922 503.348 287.26C503.011 287.597 502.795 288.076 502.701 288.695H506.548C506.548 288.43 506.512 288.181 506.44 287.948C506.368 287.71 506.258 287.503 506.108 287.326C505.959 287.149 505.771 287.011 505.545 286.911C505.318 286.806 505.053 286.754 504.749 286.754Z" fill="black"/>
<path d="M515.098 287.077C515.043 287.166 514.985 287.229 514.924 287.268C514.863 287.301 514.786 287.318 514.692 287.318C514.592 287.318 514.484 287.29 514.368 287.235C514.258 287.179 514.128 287.119 513.979 287.052C513.83 286.98 513.658 286.917 513.465 286.861C513.277 286.806 513.053 286.778 512.793 286.778C512.39 286.778 512.072 286.864 511.84 287.036C511.608 287.207 511.492 287.431 511.492 287.708C511.492 287.89 511.55 288.045 511.666 288.172C511.787 288.294 511.945 288.402 512.138 288.496C512.337 288.59 512.561 288.676 512.81 288.753C513.059 288.825 513.313 288.905 513.573 288.994C513.832 289.082 514.087 289.185 514.335 289.301C514.584 289.411 514.805 289.555 514.998 289.732C515.197 289.904 515.355 290.111 515.471 290.355C515.593 290.598 515.653 290.891 515.653 291.234C515.653 291.643 515.579 292.022 515.43 292.371C515.28 292.714 515.062 293.012 514.775 293.267C514.487 293.516 514.131 293.712 513.705 293.856C513.285 293.994 512.802 294.063 512.254 294.063C511.961 294.063 511.674 294.036 511.392 293.98C511.116 293.931 510.848 293.859 510.588 293.765C510.334 293.671 510.096 293.56 509.875 293.433C509.66 293.306 509.469 293.167 509.303 293.018L509.776 292.238C509.836 292.144 509.908 292.072 509.991 292.022C510.074 291.972 510.179 291.948 510.306 291.948C510.433 291.948 510.552 291.984 510.663 292.055C510.779 292.127 510.911 292.205 511.061 292.288C511.21 292.371 511.384 292.448 511.583 292.52C511.787 292.592 512.044 292.628 512.354 292.628C512.597 292.628 512.804 292.6 512.976 292.545C513.152 292.484 513.296 292.407 513.407 292.313C513.523 292.219 513.606 292.111 513.655 291.989C513.711 291.862 513.738 291.732 513.738 291.599C513.738 291.4 513.678 291.237 513.556 291.11C513.44 290.982 513.282 290.872 513.083 290.778C512.89 290.684 512.666 290.601 512.412 290.529C512.163 290.451 511.906 290.368 511.641 290.28C511.381 290.191 511.124 290.089 510.87 289.973C510.621 289.851 510.397 289.699 510.198 289.516C510.005 289.334 509.847 289.11 509.726 288.844C509.61 288.579 509.552 288.258 509.552 287.882C509.552 287.533 509.621 287.202 509.759 286.886C509.897 286.571 510.099 286.297 510.364 286.065C510.635 285.827 510.969 285.639 511.367 285.501C511.771 285.357 512.235 285.285 512.76 285.285C513.346 285.285 513.879 285.382 514.36 285.575C514.841 285.769 515.242 286.023 515.562 286.339L515.098 287.077Z" fill="black"/>
<path d="M519.467 285.418V293.931H517.42V285.418H519.467ZM519.774 282.937C519.774 283.114 519.738 283.28 519.666 283.435C519.594 283.59 519.498 283.725 519.376 283.841C519.26 283.957 519.122 284.051 518.962 284.123C518.801 284.19 518.63 284.223 518.448 284.223C518.271 284.223 518.102 284.19 517.942 284.123C517.787 284.051 517.652 283.957 517.536 283.841C517.42 283.725 517.326 283.59 517.254 283.435C517.187 283.28 517.154 283.114 517.154 282.937C517.154 282.754 517.187 282.583 517.254 282.422C517.326 282.262 517.42 282.124 517.536 282.008C517.652 281.891 517.787 281.8 517.942 281.734C518.102 281.662 518.271 281.626 518.448 281.626C518.63 281.626 518.801 281.662 518.962 281.734C519.122 281.8 519.26 281.891 519.376 282.008C519.498 282.124 519.594 282.262 519.666 282.422C519.738 282.583 519.774 282.754 519.774 282.937Z" fill="black"/>
<path d="M524.731 285.268C525.096 285.268 525.439 285.307 525.759 285.384C526.08 285.456 526.373 285.564 526.638 285.708H529.084V286.471C529.084 286.599 529.05 286.698 528.984 286.77C528.918 286.842 528.805 286.892 528.644 286.919L527.882 287.061C527.937 287.204 527.978 287.356 528.006 287.517C528.039 287.677 528.056 287.846 528.056 288.023C528.056 288.443 527.97 288.825 527.799 289.168C527.633 289.505 527.401 289.793 527.102 290.031C526.809 290.269 526.458 290.454 526.049 290.587C525.646 290.714 525.207 290.778 524.731 290.778C524.411 290.778 524.098 290.747 523.794 290.686C523.529 290.847 523.397 291.027 523.397 291.226C523.397 291.397 523.474 291.524 523.629 291.607C523.789 291.685 523.996 291.74 524.25 291.773C524.51 291.807 524.803 291.829 525.129 291.84C525.455 291.845 525.79 291.862 526.132 291.889C526.475 291.917 526.809 291.967 527.135 292.039C527.462 292.105 527.752 292.213 528.006 292.362C528.266 292.512 528.473 292.716 528.628 292.976C528.788 293.231 528.868 293.56 528.868 293.964C528.868 294.34 528.774 294.705 528.586 295.059C528.404 295.413 528.136 295.728 527.782 296.005C527.434 296.281 527.006 296.503 526.497 296.669C525.989 296.84 525.408 296.926 524.756 296.926C524.11 296.926 523.549 296.862 523.073 296.735C522.598 296.613 522.203 296.447 521.888 296.237C521.578 296.033 521.346 295.795 521.191 295.524C521.037 295.253 520.959 294.971 520.959 294.677C520.959 294.279 521.081 293.944 521.324 293.673C521.567 293.402 521.904 293.187 522.335 293.026C522.125 292.91 521.957 292.755 521.83 292.562C521.703 292.368 521.639 292.116 521.639 291.807C521.639 291.679 521.661 291.549 521.705 291.417C521.75 291.278 521.816 291.143 521.904 291.01C521.998 290.877 522.114 290.753 522.253 290.637C522.391 290.515 522.554 290.407 522.742 290.313C522.311 290.081 521.971 289.771 521.722 289.384C521.479 288.997 521.357 288.543 521.357 288.023C521.357 287.603 521.44 287.224 521.606 286.886C521.777 286.543 522.012 286.253 522.311 286.015C522.615 285.772 522.971 285.586 523.38 285.459C523.794 285.332 524.245 285.268 524.731 285.268ZM526.978 294.312C526.978 294.146 526.928 294.011 526.829 293.906C526.729 293.801 526.594 293.72 526.422 293.665C526.251 293.604 526.049 293.56 525.817 293.532C525.591 293.505 525.348 293.485 525.088 293.474C524.834 293.458 524.568 293.444 524.292 293.433C524.021 293.416 523.759 293.391 523.504 293.358C523.272 293.485 523.084 293.637 522.941 293.814C522.802 293.986 522.733 294.185 522.733 294.412C522.733 294.561 522.769 294.699 522.841 294.827C522.918 294.959 523.037 295.073 523.198 295.167C523.363 295.261 523.576 295.333 523.836 295.383C524.096 295.438 524.413 295.466 524.789 295.466C525.171 295.466 525.499 295.435 525.776 295.374C526.052 295.319 526.279 295.239 526.456 295.134C526.638 295.034 526.771 294.912 526.854 294.769C526.936 294.63 526.978 294.478 526.978 294.312ZM524.731 289.467C524.986 289.467 525.207 289.434 525.394 289.367C525.582 289.295 525.737 289.198 525.859 289.077C525.986 288.955 526.08 288.808 526.141 288.637C526.207 288.466 526.24 288.277 526.24 288.073C526.24 287.652 526.113 287.321 525.859 287.077C525.61 286.828 525.234 286.704 524.731 286.704C524.228 286.704 523.85 286.828 523.596 287.077C523.347 287.321 523.222 287.652 523.222 288.073C523.222 288.272 523.253 288.457 523.314 288.629C523.38 288.8 523.474 288.95 523.596 289.077C523.723 289.198 523.88 289.295 524.068 289.367C524.261 289.434 524.483 289.467 524.731 289.467Z" fill="black"/>
<path d="M530.37 293.931V285.418H531.622C531.887 285.418 532.061 285.542 532.144 285.791L532.285 286.463C532.456 286.286 532.636 286.126 532.824 285.982C533.017 285.838 533.219 285.714 533.429 285.609C533.645 285.503 533.874 285.423 534.117 285.368C534.36 285.313 534.626 285.285 534.913 285.285C535.377 285.285 535.789 285.365 536.148 285.526C536.507 285.68 536.806 285.902 537.044 286.189C537.287 286.471 537.469 286.812 537.591 287.21C537.718 287.603 537.781 288.037 537.781 288.513V293.931H535.734V288.513C535.734 287.993 535.612 287.592 535.369 287.309C535.131 287.022 534.772 286.878 534.291 286.878C533.937 286.878 533.606 286.958 533.296 287.119C532.987 287.279 532.694 287.498 532.418 287.774V293.931H530.37Z" fill="black"/>
<path d="M234.134 363.16V365.331H227.639V369.397H232.756V371.496H227.639V375.644H234.134V377.824H224.893V363.16H234.134Z" fill="black"/>
<path d="M236.348 377.824V367.42H237.878C238.202 367.42 238.415 367.572 238.516 367.876L238.679 368.647C238.861 368.444 239.05 368.258 239.246 368.089C239.449 367.92 239.661 367.775 239.884 367.653C240.114 367.531 240.357 367.437 240.614 367.369C240.877 367.295 241.164 367.257 241.475 367.257C242.13 367.257 242.667 367.437 243.086 367.795C243.512 368.146 243.829 368.616 244.039 369.204C244.201 368.86 244.403 368.566 244.647 368.322C244.89 368.072 245.157 367.869 245.447 367.714C245.737 367.558 246.045 367.443 246.369 367.369C246.7 367.295 247.031 367.257 247.362 367.257C247.936 367.257 248.446 367.345 248.892 367.521C249.338 367.697 249.713 367.954 250.017 368.292C250.321 368.63 250.55 369.042 250.706 369.529C250.868 370.016 250.949 370.573 250.949 371.202V377.824H248.446V371.202C248.446 370.54 248.301 370.043 248.011 369.711C247.72 369.373 247.295 369.204 246.734 369.204C246.477 369.204 246.237 369.248 246.014 369.336C245.798 369.424 245.606 369.553 245.437 369.722C245.275 369.884 245.146 370.09 245.052 370.34C244.957 370.59 244.91 370.878 244.91 371.202V377.824H242.397V371.202C242.397 370.506 242.255 369.999 241.972 369.681C241.695 369.363 241.283 369.204 240.735 369.204C240.377 369.204 240.04 369.296 239.722 369.478C239.411 369.654 239.121 369.897 238.851 370.208V377.824H236.348Z" fill="black"/>
<path d="M261.554 377.824H260.429C260.192 377.824 260.007 377.79 259.872 377.723C259.736 377.649 259.635 377.503 259.568 377.287L259.345 376.547C259.081 376.783 258.821 376.993 258.564 377.175C258.315 377.351 258.054 377.5 257.784 377.621C257.514 377.743 257.227 377.834 256.923 377.895C256.619 377.956 256.281 377.987 255.91 377.987C255.471 377.987 255.065 377.929 254.694 377.814C254.322 377.692 254.001 377.513 253.731 377.277C253.468 377.04 253.262 376.746 253.113 376.394C252.965 376.043 252.89 375.634 252.89 375.167C252.89 374.775 252.992 374.39 253.194 374.011C253.404 373.626 253.748 373.281 254.228 372.977C254.707 372.666 255.346 372.409 256.143 372.206C256.94 372.003 257.93 371.888 259.112 371.861V371.253C259.112 370.557 258.963 370.043 258.666 369.711C258.375 369.373 257.95 369.204 257.389 369.204C256.984 369.204 256.646 369.252 256.376 369.346C256.106 369.441 255.869 369.549 255.667 369.671C255.471 369.786 255.288 369.891 255.119 369.985C254.951 370.08 254.765 370.127 254.562 370.127C254.393 370.127 254.248 370.083 254.126 369.995C254.005 369.908 253.907 369.799 253.833 369.671L253.377 368.87C254.572 367.775 256.014 367.227 257.703 367.227C258.311 367.227 258.852 367.328 259.324 367.531C259.804 367.727 260.209 368.004 260.54 368.363C260.871 368.714 261.121 369.137 261.29 369.63C261.466 370.124 261.554 370.665 261.554 371.253V377.824ZM256.69 376.263C256.947 376.263 257.183 376.239 257.399 376.192C257.615 376.144 257.818 376.073 258.007 375.979C258.203 375.884 258.389 375.769 258.564 375.634C258.747 375.492 258.929 375.326 259.112 375.137V373.383C258.382 373.416 257.771 373.481 257.278 373.575C256.791 373.663 256.4 373.778 256.102 373.92C255.805 374.062 255.592 374.228 255.464 374.417C255.342 374.606 255.282 374.812 255.282 375.036C255.282 375.475 255.41 375.789 255.667 375.979C255.93 376.168 256.271 376.263 256.69 376.263Z" fill="black"/>
<path d="M266.679 367.42V377.824H264.177V367.42H266.679ZM267.054 364.387C267.054 364.604 267.01 364.807 266.923 364.996C266.835 365.185 266.716 365.351 266.568 365.493C266.426 365.635 266.257 365.75 266.061 365.838C265.865 365.919 265.656 365.959 265.433 365.959C265.217 365.959 265.011 365.919 264.815 365.838C264.626 365.75 264.46 365.635 264.318 365.493C264.177 365.351 264.062 365.185 263.974 364.996C263.893 364.807 263.852 364.604 263.852 364.387C263.852 364.164 263.893 363.955 263.974 363.759C264.062 363.563 264.177 363.394 264.318 363.252C264.46 363.11 264.626 362.998 264.815 362.917C265.011 362.829 265.217 362.785 265.433 362.785C265.656 362.785 265.865 362.829 266.061 362.917C266.257 362.998 266.426 363.11 266.568 363.252C266.716 363.394 266.835 363.563 266.923 363.759C267.01 363.955 267.054 364.164 267.054 364.387Z" fill="black"/>
<path d="M272.181 362.755V377.824H269.678V362.755H272.181Z" fill="black"/>
<path d="M286.434 371.74C286.549 371.956 286.654 372.183 286.748 372.419C286.85 372.649 286.948 372.882 287.042 373.119C287.137 372.875 287.235 372.635 287.336 372.399C287.437 372.162 287.545 371.936 287.66 371.719L291.997 363.596C292.051 363.495 292.105 363.414 292.159 363.353C292.22 363.292 292.284 363.248 292.352 363.221C292.426 363.194 292.507 363.177 292.595 363.171C292.683 363.164 292.787 363.16 292.909 363.16H294.966V377.824H292.564V368.353C292.564 368.177 292.568 367.984 292.575 367.775C292.588 367.565 292.605 367.352 292.625 367.136L288.197 375.451C288.096 375.641 287.964 375.789 287.802 375.897C287.64 375.999 287.451 376.05 287.235 376.05H286.86C286.644 376.05 286.454 375.999 286.292 375.897C286.13 375.789 285.999 375.641 285.897 375.451L281.409 367.105C281.436 367.328 281.452 367.548 281.459 367.764C281.473 367.974 281.479 368.17 281.479 368.353V377.824H279.078V363.16H281.135C281.257 363.16 281.361 363.164 281.449 363.171C281.537 363.177 281.615 363.194 281.682 363.221C281.756 363.248 281.824 363.292 281.885 363.353C281.946 363.414 282.003 363.495 282.057 363.596L286.434 371.74Z" fill="black"/>
<path d="M305.923 377.824H304.798C304.562 377.824 304.376 377.79 304.241 377.723C304.106 377.649 304.004 377.503 303.937 377.287L303.714 376.547C303.45 376.783 303.19 376.993 302.934 377.175C302.684 377.351 302.424 377.5 302.154 377.621C301.883 377.743 301.596 377.834 301.292 377.895C300.988 377.956 300.651 377.987 300.279 377.987C299.84 377.987 299.435 377.929 299.063 377.814C298.692 377.692 298.371 377.513 298.101 377.277C297.837 377.04 297.631 376.746 297.482 376.394C297.334 376.043 297.26 375.634 297.26 375.167C297.26 374.775 297.361 374.39 297.563 374.011C297.773 373.626 298.117 373.281 298.597 372.977C299.077 372.666 299.715 372.409 300.512 372.206C301.309 372.003 302.299 371.888 303.481 371.861V371.253C303.481 370.557 303.332 370.043 303.035 369.711C302.745 369.373 302.319 369.204 301.758 369.204C301.353 369.204 301.015 369.252 300.745 369.346C300.475 369.441 300.238 369.549 300.036 369.671C299.84 369.786 299.658 369.891 299.489 369.985C299.32 370.08 299.134 370.127 298.931 370.127C298.763 370.127 298.617 370.083 298.496 369.995C298.374 369.908 298.276 369.799 298.202 369.671L297.746 368.87C298.942 367.775 300.384 367.227 302.072 367.227C302.68 367.227 303.221 367.328 303.694 367.531C304.173 367.727 304.579 368.004 304.91 368.363C305.241 368.714 305.49 369.137 305.659 369.63C305.835 370.124 305.923 370.665 305.923 371.253V377.824ZM301.059 376.263C301.316 376.263 301.552 376.239 301.768 376.192C301.985 376.144 302.187 376.073 302.376 375.979C302.572 375.884 302.758 375.769 302.934 375.634C303.116 375.492 303.298 375.326 303.481 375.137V373.383C302.751 373.416 302.14 373.481 301.647 373.575C301.161 373.663 300.769 373.778 300.472 373.92C300.174 374.062 299.962 374.228 299.833 374.417C299.712 374.606 299.651 374.812 299.651 375.036C299.651 375.475 299.779 375.789 300.036 375.979C300.299 376.168 300.64 376.263 301.059 376.263Z" fill="black"/>
<path d="M308.384 377.824V367.42H309.853C310.11 367.42 310.289 367.467 310.39 367.562C310.491 367.656 310.559 367.818 310.593 368.048L310.745 369.306C311.116 368.664 311.552 368.157 312.052 367.785C312.552 367.413 313.112 367.227 313.734 367.227C314.247 367.227 314.673 367.345 315.01 367.582L314.686 369.458C314.666 369.58 314.622 369.668 314.554 369.722C314.487 369.769 314.396 369.793 314.281 369.793C314.18 369.793 314.041 369.769 313.865 369.722C313.69 369.674 313.457 369.651 313.166 369.651C312.646 369.651 312.2 369.796 311.829 370.087C311.457 370.371 311.143 370.79 310.886 371.344V377.824H308.384Z" fill="black"/>
<path d="M319.189 362.755V371.385H319.655C319.824 371.385 319.956 371.361 320.05 371.314C320.145 371.266 320.246 371.179 320.354 371.05L322.938 367.856C323.053 367.72 323.175 367.616 323.303 367.541C323.431 367.46 323.6 367.42 323.81 367.42H326.099L322.867 371.283C322.752 371.425 322.634 371.557 322.513 371.679C322.391 371.794 322.259 371.895 322.117 371.983C322.259 372.084 322.384 372.203 322.492 372.338C322.6 372.473 322.708 372.619 322.817 372.774L326.282 377.824H324.022C323.826 377.824 323.661 377.79 323.526 377.723C323.391 377.655 323.269 377.54 323.161 377.378L320.516 373.433C320.415 373.278 320.314 373.176 320.212 373.129C320.111 373.082 319.959 373.058 319.757 373.058H319.189V377.824H316.686V362.755H319.189Z" fill="black"/>
<path d="M331.52 367.257C332.175 367.257 332.776 367.362 333.324 367.572C333.878 367.781 334.354 368.089 334.752 368.495C335.151 368.893 335.462 369.387 335.684 369.975C335.907 370.557 336.019 371.222 336.019 371.973C336.019 372.162 336.009 372.321 335.988 372.45C335.975 372.571 335.945 372.669 335.897 372.744C335.857 372.811 335.799 372.862 335.725 372.896C335.651 372.923 335.556 372.936 335.441 372.936H329.017C329.092 374.005 329.379 374.789 329.879 375.289C330.378 375.789 331.04 376.039 331.865 376.039C332.27 376.039 332.618 375.992 332.908 375.897C333.205 375.803 333.462 375.698 333.678 375.583C333.901 375.468 334.094 375.363 334.256 375.269C334.425 375.174 334.587 375.127 334.742 375.127C334.843 375.127 334.931 375.147 335.006 375.188C335.08 375.228 335.144 375.286 335.198 375.36L335.928 376.273C335.651 376.597 335.34 376.871 334.995 377.094C334.651 377.31 334.29 377.486 333.911 377.621C333.54 377.75 333.158 377.841 332.766 377.895C332.381 377.949 332.006 377.976 331.642 377.976C330.919 377.976 330.247 377.858 329.625 377.621C329.004 377.378 328.463 377.023 328.004 376.557C327.545 376.083 327.183 375.502 326.92 374.812C326.656 374.116 326.525 373.312 326.525 372.399C326.525 371.689 326.64 371.023 326.869 370.401C327.099 369.772 327.426 369.228 327.852 368.768C328.284 368.302 328.808 367.933 329.423 367.663C330.044 367.393 330.743 367.257 331.52 367.257ZM331.571 369.052C330.841 369.052 330.27 369.259 329.858 369.671C329.446 370.083 329.183 370.668 329.068 371.425H333.769C333.769 371.101 333.726 370.797 333.638 370.513C333.55 370.222 333.415 369.968 333.232 369.752C333.05 369.536 332.82 369.367 332.543 369.245C332.266 369.117 331.942 369.052 331.571 369.052Z" fill="black"/>
<path d="M341.464 377.987C340.565 377.987 339.873 377.733 339.386 377.226C338.9 376.712 338.657 376.006 338.657 375.106V369.296H337.603C337.468 369.296 337.35 369.252 337.249 369.164C337.154 369.076 337.107 368.944 337.107 368.768V367.775L338.779 367.501L339.305 364.661C339.332 364.526 339.393 364.421 339.488 364.347C339.589 364.273 339.714 364.235 339.863 364.235H341.16V367.511H343.895V369.296H341.16V374.934C341.16 375.259 341.241 375.512 341.403 375.695C341.565 375.877 341.781 375.968 342.051 375.968C342.207 375.968 342.335 375.952 342.436 375.918C342.544 375.877 342.636 375.837 342.71 375.796C342.791 375.756 342.862 375.718 342.923 375.685C342.984 375.644 343.044 375.624 343.105 375.624C343.179 375.624 343.24 375.644 343.287 375.685C343.335 375.718 343.385 375.772 343.439 375.847L344.189 377.064C343.825 377.368 343.406 377.598 342.933 377.753C342.46 377.909 341.97 377.987 341.464 377.987Z" fill="black"/>
<path d="M348.551 367.42V377.824H346.048V367.42H348.551ZM348.926 364.387C348.926 364.604 348.882 364.807 348.794 364.996C348.706 365.185 348.588 365.351 348.439 365.493C348.297 365.635 348.128 365.75 347.933 365.838C347.737 365.919 347.527 365.959 347.304 365.959C347.088 365.959 346.882 365.919 346.686 365.838C346.497 365.75 346.332 365.635 346.19 365.493C346.048 365.351 345.933 365.185 345.845 364.996C345.764 364.807 345.724 364.604 345.724 364.387C345.724 364.164 345.764 363.955 345.845 363.759C345.933 363.563 346.048 363.394 346.19 363.252C346.332 363.11 346.497 362.998 346.686 362.917C346.882 362.829 347.088 362.785 347.304 362.785C347.527 362.785 347.737 362.829 347.933 362.917C348.128 362.998 348.297 363.11 348.439 363.252C348.588 363.394 348.706 363.563 348.794 363.759C348.882 363.955 348.926 364.164 348.926 364.387Z" fill="black"/>
<path d="M351.387 377.824V367.42H352.917C353.242 367.42 353.454 367.572 353.556 367.876L353.728 368.697C353.937 368.481 354.157 368.285 354.387 368.109C354.623 367.933 354.87 367.781 355.126 367.653C355.39 367.524 355.67 367.426 355.967 367.359C356.265 367.291 356.589 367.257 356.94 367.257C357.507 367.257 358.011 367.355 358.45 367.551C358.889 367.741 359.254 368.011 359.544 368.363C359.841 368.708 360.064 369.123 360.213 369.61C360.368 370.09 360.446 370.621 360.446 371.202V377.824H357.943V371.202C357.943 370.567 357.795 370.077 357.497 369.732C357.207 369.38 356.768 369.204 356.18 369.204C355.748 369.204 355.343 369.302 354.964 369.499C354.586 369.695 354.228 369.962 353.89 370.3V377.824H351.387Z" fill="black"/>
<path d="M366.502 367.237C366.948 367.237 367.367 367.284 367.759 367.379C368.15 367.467 368.509 367.599 368.833 367.775H371.822V368.708C371.822 368.863 371.781 368.985 371.7 369.073C371.619 369.16 371.481 369.221 371.285 369.255L370.353 369.428C370.42 369.603 370.471 369.789 370.505 369.985C370.545 370.181 370.565 370.388 370.565 370.604C370.565 371.118 370.461 371.584 370.251 372.003C370.049 372.416 369.765 372.767 369.4 373.058C369.042 373.349 368.613 373.575 368.113 373.737C367.62 373.893 367.083 373.971 366.502 373.971C366.11 373.971 365.729 373.934 365.357 373.859C365.033 374.055 364.871 374.275 364.871 374.518C364.871 374.728 364.966 374.883 365.155 374.985C365.351 375.079 365.604 375.147 365.915 375.188C366.232 375.228 366.59 375.255 366.989 375.269C367.387 375.276 367.796 375.296 368.215 375.33C368.633 375.363 369.042 375.424 369.441 375.512C369.839 375.593 370.194 375.725 370.505 375.908C370.822 376.09 371.075 376.34 371.265 376.658C371.46 376.969 371.558 377.371 371.558 377.865C371.558 378.325 371.444 378.771 371.214 379.203C370.991 379.636 370.663 380.021 370.231 380.36C369.805 380.698 369.282 380.968 368.661 381.171C368.039 381.38 367.33 381.485 366.533 381.485C365.742 381.485 365.057 381.407 364.476 381.252C363.895 381.103 363.412 380.9 363.027 380.643C362.649 380.393 362.365 380.103 362.176 379.771C361.987 379.44 361.892 379.095 361.892 378.737C361.892 378.25 362.041 377.841 362.338 377.51C362.635 377.179 363.047 376.915 363.574 376.719C363.317 376.577 363.111 376.388 362.956 376.151C362.801 375.914 362.723 375.607 362.723 375.228C362.723 375.073 362.75 374.914 362.804 374.752C362.858 374.583 362.939 374.417 363.047 374.255C363.162 374.092 363.304 373.94 363.473 373.798C363.642 373.65 363.841 373.518 364.07 373.403C363.544 373.119 363.128 372.74 362.824 372.267C362.527 371.794 362.378 371.239 362.378 370.604C362.378 370.09 362.48 369.627 362.682 369.215C362.892 368.795 363.179 368.44 363.544 368.15C363.915 367.852 364.351 367.626 364.851 367.47C365.357 367.315 365.908 367.237 366.502 367.237ZM369.248 378.291C369.248 378.088 369.187 377.922 369.066 377.794C368.944 377.665 368.779 377.567 368.569 377.5C368.36 377.425 368.113 377.371 367.83 377.338C367.553 377.304 367.255 377.28 366.938 377.267C366.627 377.246 366.303 377.229 365.965 377.216C365.634 377.196 365.313 377.165 365.003 377.125C364.719 377.28 364.489 377.466 364.314 377.682C364.145 377.892 364.06 378.135 364.06 378.412C364.06 378.595 364.104 378.764 364.192 378.92C364.287 379.082 364.432 379.22 364.628 379.335C364.83 379.45 365.09 379.538 365.408 379.599C365.725 379.667 366.114 379.7 366.573 379.7C367.039 379.7 367.441 379.663 367.779 379.589C368.117 379.521 368.394 379.423 368.61 379.295C368.833 379.173 368.995 379.024 369.096 378.849C369.198 378.68 369.248 378.494 369.248 378.291ZM366.502 372.368C366.813 372.368 367.083 372.328 367.313 372.247C367.543 372.159 367.732 372.041 367.88 371.892C368.036 371.743 368.151 371.564 368.225 371.354C368.306 371.145 368.346 370.915 368.346 370.665C368.346 370.151 368.191 369.745 367.88 369.448C367.576 369.144 367.117 368.991 366.502 368.991C365.888 368.991 365.425 369.144 365.114 369.448C364.81 369.745 364.658 370.151 364.658 370.665C364.658 370.908 364.695 371.135 364.77 371.344C364.851 371.554 364.966 371.736 365.114 371.892C365.27 372.041 365.462 372.159 365.692 372.247C365.928 372.328 366.198 372.368 366.502 372.368Z" fill="black"/>
<path d="M49.5857 165.864C49.5519 165.931 49.512 165.979 49.4659 166.007C49.4229 166.034 49.3707 166.048 49.3093 166.048C49.2479 166.048 49.1788 166.025 49.1021 165.979C49.0253 165.93 48.9347 165.876 48.8303 165.818C48.7259 165.759 48.6031 165.707 48.4619 165.661C48.3237 165.612 48.1594 165.587 47.9691 165.587C47.7971 165.587 47.6467 165.609 47.5177 165.652C47.3918 165.692 47.2844 165.748 47.1953 165.822C47.1093 165.896 47.0449 165.985 47.0019 166.089C46.9589 166.191 46.9374 166.303 46.9374 166.426C46.9374 166.583 46.9804 166.713 47.0664 166.818C47.1554 166.922 47.2721 167.011 47.4164 167.085C47.5607 167.159 47.725 167.225 47.9092 167.283C48.0934 167.342 48.2807 167.405 48.4711 167.472C48.6645 167.537 48.8534 167.614 49.0376 167.703C49.2218 167.789 49.3861 167.899 49.5304 168.035C49.6747 168.167 49.7899 168.33 49.8758 168.523C49.9649 168.717 50.0094 168.952 50.0094 169.229C50.0094 169.53 49.9572 169.812 49.8528 170.077C49.7515 170.338 49.601 170.567 49.4014 170.764C49.2049 170.957 48.9639 171.111 48.6783 171.225C48.3928 171.335 48.0658 171.39 47.6973 171.39C47.4855 171.39 47.2767 171.369 47.071 171.326C46.8652 171.286 46.6672 171.228 46.4768 171.151C46.2895 171.074 46.113 170.982 45.9472 170.874C45.7844 170.767 45.6386 170.647 45.5096 170.515L45.8689 169.92C45.9027 169.877 45.9426 169.842 45.9886 169.814C46.0378 169.783 46.0915 169.768 46.1498 169.768C46.2266 169.768 46.3095 169.8 46.3985 169.865C46.4876 169.926 46.592 169.995 46.7117 170.072C46.8345 170.149 46.9773 170.22 47.1401 170.284C47.3059 170.346 47.5039 170.376 47.7342 170.376C48.0873 170.376 48.3606 170.293 48.554 170.127C48.7474 169.958 48.8442 169.717 48.8442 169.404C48.8442 169.229 48.7996 169.086 48.7106 168.975C48.6246 168.864 48.5095 168.772 48.3652 168.698C48.2209 168.622 48.0566 168.557 47.8724 168.505C47.6881 168.453 47.5008 168.396 47.3105 168.334C47.1201 168.273 46.9328 168.199 46.7486 168.113C46.5643 168.027 46.4001 167.915 46.2558 167.777C46.1115 167.638 45.9948 167.466 45.9057 167.26C45.8198 167.051 45.7768 166.795 45.7768 166.491C45.7768 166.248 45.8244 166.011 45.9195 165.781C46.0178 165.55 46.159 165.346 46.3433 165.168C46.5306 164.989 46.7593 164.846 47.0295 164.739C47.2997 164.631 47.6083 164.578 47.9553 164.578C48.3483 164.578 48.7106 164.639 49.0422 164.762C49.3738 164.885 49.6563 165.057 49.8896 165.278L49.5857 165.864Z" fill="#4749A0"/>
<path d="M55.1552 164.651V165.638H52.2029V167.486H54.5288V168.44H52.2029V170.326H55.1552V171.317H50.9548V164.651H55.1552Z" fill="#4749A0"/>
<path d="M62.6142 167.984C62.6142 168.473 62.5328 168.926 62.3701 169.344C62.2074 169.759 61.9786 170.118 61.6838 170.422C61.3891 170.727 61.0344 170.965 60.6199 171.137C60.2054 171.306 59.7464 171.39 59.2428 171.39C58.7393 171.39 58.2787 171.306 57.8611 171.137C57.4466 170.965 57.0905 170.727 56.7926 170.422C56.4979 170.118 56.2691 169.759 56.1064 169.344C55.9436 168.926 55.8623 168.473 55.8623 167.984C55.8623 167.495 55.9436 167.044 56.1064 166.629C56.2691 166.211 56.4979 165.85 56.7926 165.546C57.0905 165.241 57.4466 165.005 57.8611 164.836C58.2787 164.664 58.7393 164.578 59.2428 164.578C59.7464 164.578 60.2054 164.664 60.6199 164.836C61.0344 165.008 61.3891 165.246 61.6838 165.55C61.9786 165.851 62.2074 166.211 62.3701 166.629C62.5328 167.044 62.6142 167.495 62.6142 167.984ZM61.343 167.984C61.343 167.618 61.2939 167.291 61.1956 167.002C61.1005 166.71 60.9623 166.463 60.7811 166.26C60.6 166.057 60.3789 165.902 60.1179 165.794C59.86 165.687 59.5683 165.633 59.2428 165.633C58.9174 165.633 58.6241 165.687 58.3632 165.794C58.1022 165.902 57.8796 166.057 57.6953 166.26C57.5142 166.463 57.3745 166.71 57.2762 167.002C57.178 167.291 57.1288 167.618 57.1288 167.984C57.1288 168.35 57.178 168.679 57.2762 168.97C57.3745 169.259 57.5142 169.505 57.6953 169.708C57.8796 169.908 58.1022 170.061 58.3632 170.169C58.6241 170.276 58.9174 170.33 59.2428 170.33C59.5683 170.33 59.86 170.276 60.1179 170.169C60.3789 170.061 60.6 169.908 60.7811 169.708C60.9623 169.505 61.1005 169.259 61.1956 168.97C61.2939 168.679 61.343 168.35 61.343 167.984Z" fill="#4749A0"/>
<rect x="108.902" y="92.0325" width="112.379" height="35.0325" rx="17.5163" fill="#C7DEB0"/>
<rect x="356.688" y="398.106" width="112.379" height="35.0325" rx="17.5163" fill="#C7DEB0"/>
<rect x="530.782" y="345.557" width="79.2177" height="32.2668" rx="16.1334" fill="#FFD2B1"/>
<rect x="373.268" y="175.004" width="57.1104" height="23.0477" rx="11.5239" fill="#4749A0"/>
<rect x="103.375" y="408.247" width="57.1104" height="23.0477" rx="11.5239" fill="#FE5F4A"/>
<path d="M453.672 210.052C453.672 212.106 452.004 213.749 449.92 213.749C447.835 213.749 446.167 212.106 446.167 210.052C446.167 207.999 447.835 206.356 449.92 206.356C452.004 206.273 453.672 207.999 453.672 210.052Z" fill="#4749A0"/>
<path d="M453.543 186.642C453.543 188.696 451.876 190.339 449.791 190.339C447.706 190.339 446.038 188.696 446.038 186.642C446.038 184.589 447.706 182.946 449.791 182.946C451.876 182.863 453.543 184.589 453.543 186.642Z" fill="#4749A0"/>
<path d="M475.848 207.423H457.425V208.902H475.848V207.423Z" fill="#4749A0"/>
<path d="M498.747 184.013H457.296V185.492H498.747V184.013Z" fill="#4749A0"/>
<path d="M453.672 221.471C453.672 223.525 452.004 225.168 449.92 225.168C447.835 225.168 446.167 223.525 446.167 221.471C446.167 219.417 447.835 217.774 449.92 217.774C452.004 217.774 453.672 219.417 453.672 221.471Z" fill="#FE5F4A"/>
<path d="M453.543 198.061C453.543 200.115 451.876 201.758 449.791 201.758C447.706 201.758 446.038 200.115 446.038 198.061C446.038 196.007 447.706 194.364 449.791 194.364C451.876 194.364 453.543 196.007 453.543 198.061Z" fill="#FE5F4A"/>
<path d="M453.543 174.092C453.543 176.145 451.876 177.788 449.791 177.788C447.706 177.788 446.038 176.145 446.038 174.092C446.038 172.038 447.706 170.395 449.791 170.395C451.876 170.395 453.543 172.038 453.543 174.092Z" fill="#FE5F4A"/>
<path d="M470.852 218.925H457.425V220.403H470.852V218.925Z" fill="#FE5F4A"/>
<path d="M503.353 195.515H457.296V196.993H503.353V195.515Z" fill="#FE5F4A"/>
<path d="M484.93 171.545H457.296V173.024H484.93V171.545Z" fill="#FE5F4A"/>
<path d="M92.0388 349.369H84.2162V370.903H92.0388V349.369Z" fill="#FE5F4A"/>
<path d="M125.236 349.369H117.413V370.903H125.236V349.369Z" fill="#4749A0"/>
<path d="M136.279 336.797H128.457V370.97H136.279V336.797Z" fill="#4749A0"/>
<path d="M81.9813 364.149H74.1588V371.371H81.9813V364.149Z" fill="#4749A0"/>
<path d="M103.148 359.133H95.3257V370.903H103.148V359.133Z" fill="#4749A0"/>
<path d="M114.192 356.391H106.369V370.903H114.192V356.391Z" fill="#4749A0"/>
<path d="M547.547 335.509H451.749C450.091 335.509 448.801 334.218 448.801 332.559V309.787C448.801 308.128 450.091 306.837 451.749 306.837H547.547C549.205 306.837 550.495 308.128 550.495 309.787V332.559C550.587 334.218 549.205 335.509 547.547 335.509Z" fill="#FE5F4A"/>
<path d="M465.382 328.318C468.79 328.318 471.553 325.511 471.553 322.049C471.553 318.587 468.79 315.78 465.382 315.78C461.973 315.78 459.21 318.587 459.21 322.049C459.21 325.511 461.973 328.318 465.382 328.318Z" fill="white"/>
<path d="M468.882 319.928C468.974 320.021 467.5 321.68 465.566 323.524C465.29 323.8 465.013 324.077 464.737 324.354L464.553 324.538L464.368 324.354C462.895 322.786 461.789 321.588 461.881 321.496C461.974 321.403 463.171 322.51 464.737 323.985H464.368C464.645 323.708 464.921 323.432 465.198 323.155C467.132 321.311 468.79 319.836 468.882 319.928Z" fill="#FE5F4A"/>
<path d="M334.725 296.841C357.136 274.412 357.136 238.046 334.725 215.617C312.314 193.187 275.979 193.187 253.569 215.617C231.158 238.046 231.158 274.412 253.569 296.841C275.979 319.271 312.314 319.271 334.725 296.841Z" fill="#4749A0"/>
<path d="M310.801 241.67L310.34 240.564C311.077 240.287 311.814 240.011 312.551 239.734L313.011 240.84C312.274 241.117 311.537 241.394 310.801 241.67Z" fill="#00C8B7"/>
<path d="M333.829 269.973L292.193 294.495L250.65 269.973V269.881C250.65 269.696 252.953 267.76 256.453 264.994L256.546 264.902C268.06 255.591 292.193 236.507 292.193 236.507C292.193 236.507 316.419 255.591 327.841 264.994C331.434 267.852 333.829 269.788 333.829 269.973Z" fill="#FE5F4A"/>
<path d="M309.327 216.133H264.467C260.599 216.133 257.467 219.268 257.467 223.14V291.084C257.467 294.956 260.599 298.091 264.467 298.091H320.749C324.617 298.091 327.749 294.956 327.749 291.084V234.479L309.327 216.133Z" fill="white"/>
<path d="M309.327 227.473C309.327 231.345 312.459 234.479 316.327 234.479H327.657L309.327 216.133V227.473Z" fill="#FDE3E1"/>
<path d="M286.022 227.657H270.547C269.165 227.657 268.06 228.763 268.06 230.146V245.634C268.06 247.017 269.165 248.124 270.547 248.124H286.022C287.404 248.124 288.509 247.017 288.509 245.634V230.146C288.509 228.763 287.404 227.657 286.022 227.657Z" fill="#4749A0"/>
<path d="M307.3 253.747H270.086C268.981 253.747 268.06 254.669 268.06 255.775C268.06 256.882 268.981 257.804 270.086 257.804H307.3C308.405 257.804 309.327 256.882 309.327 255.775C309.327 254.669 308.405 253.747 307.3 253.747Z" fill="#4749A0"/>
<path d="M307.3 263.796H270.086C268.981 263.796 268.06 264.718 268.06 265.824C268.06 266.93 268.981 267.852 270.086 267.852H307.3C308.405 267.852 309.327 266.93 309.327 265.824C309.327 264.626 308.405 263.796 307.3 263.796Z" fill="#4749A0"/>
<path d="M290.443 273.476H270.178C269.073 273.476 268.152 274.398 268.152 275.504C268.152 276.611 269.073 277.532 270.178 277.532H290.443C291.549 277.532 292.47 276.611 292.47 275.504C292.378 274.306 291.549 273.476 290.443 273.476Z" fill="#4749A0"/>
<path d="M333.829 269.973V309.891C333.829 312.657 331.526 314.962 328.763 314.962H255.717C252.953 314.962 250.65 312.657 250.65 309.891V269.973L292.286 294.495L333.829 269.973Z" fill="#FDE3E1"/>
<path d="M332.447 313.487L305.642 286.659L292.193 294.588L278.745 286.659L251.94 313.487C252.861 314.501 254.151 315.054 255.624 315.054H328.763C330.236 315.054 331.526 314.409 332.447 313.487Z" fill="#FDE3E1"/>
<path d="M324.598 195.412C312.624 196.61 303.044 206.475 302.215 218.459C301.754 224.452 303.504 229.983 306.636 234.501C307.834 236.16 308.018 238.373 307.189 240.309L305.255 245.103L313.361 242.982C314.65 242.614 316.032 242.706 317.321 243.259C321.098 244.918 325.243 245.656 329.757 245.195C341.547 244.089 351.035 234.593 352.14 222.792C353.614 207.028 340.442 193.937 324.598 195.412Z" fill="#FE5F4A"/>
<path d="M327.822 233.026L329.204 231.643C329.204 231.643 328.099 229.061 332.704 224.728C335.468 222.147 336.02 219.658 335.836 217.63C335.468 214.403 332.796 211.73 329.572 211.361C327.546 211.176 325.059 211.73 322.48 214.495C318.15 219.105 315.571 217.999 315.571 217.999L314.189 219.381L327.822 233.026Z" fill="white"/>
<path d="M317.229 224.544C316.124 226.019 316.308 228.14 317.598 229.43C318.887 230.721 321.006 230.905 322.48 229.799L317.229 224.544Z" fill="white"/>
<path d="M336.757 212.928L335.928 213.758C335.283 212.744 334.362 211.822 333.257 211.176L334.086 210.347C334.823 209.609 336.02 209.609 336.757 210.347C337.402 211.084 337.402 212.191 336.757 212.928Z" fill="white"/>
<path d="M91.1933 207.528L91.0362 182.38C83.655 182.38 76.1166 185.366 70.3059 190.553C63.3957 196.526 59.1554 205.642 60.2548 216.645C60.4118 217.902 60.5688 219.003 60.8829 220.26C60.8829 220.26 60.8829 220.26 60.8829 220.417L91.1933 213.658V207.528Z" fill="#FE5F4A"/>
<path d="M122.446 199.827C118.206 191.025 109.882 183.794 97.9463 182.694C97.6322 182.694 97.3181 182.694 97.0041 182.537C96.847 182.537 96.5329 182.537 96.3759 182.537C95.7477 182.537 95.1195 182.537 94.4913 182.537C94.4913 182.537 94.4913 182.537 94.3342 182.537L94.4913 207.686V213.658L124.802 220.26C125.273 218.06 125.43 216.016 125.43 213.658C125.744 208.943 124.645 204.228 122.446 199.827Z" fill="#4749A0"/>
<path d="M92.9208 216.645L62.4534 223.404C65.5944 237.236 78.0012 247.767 92.7638 247.767C107.683 247.767 120.09 237.235 123.074 223.246L92.9208 216.645Z" fill="#4749A0"/>
<path d="M79.3512 310.525H78.0101C77.8596 310.525 77.7349 310.488 77.6361 310.415C77.5415 310.338 77.4727 310.243 77.4297 310.131L76.7334 308.228H72.871L72.1747 310.131C72.1403 310.23 72.0715 310.321 71.9683 310.402C71.8695 310.484 71.7469 310.525 71.6008 310.525H70.2532L73.9156 301.193H75.6888L79.3512 310.525ZM73.316 307.001H76.2885L75.1536 303.897C75.102 303.76 75.044 303.598 74.9795 303.413C74.9193 303.224 74.8592 303.02 74.799 302.8C74.7388 303.02 74.6786 303.224 74.6184 303.413C74.5626 303.603 74.5067 303.768 74.4508 303.91L73.316 307.001Z" fill="black"/>
<path d="M80.2212 310.525V303.904H81.1948C81.4012 303.904 81.5366 304.001 81.6011 304.194L81.7107 304.717C81.8439 304.579 81.9836 304.454 82.1298 304.343C82.2802 304.231 82.4371 304.134 82.6005 304.052C82.7681 303.97 82.9465 303.908 83.1357 303.865C83.3248 303.822 83.5311 303.801 83.7547 303.801C84.1158 303.801 84.436 303.863 84.7154 303.988C84.9948 304.108 85.227 304.28 85.4118 304.504C85.6009 304.723 85.7428 304.988 85.8374 305.298C85.9362 305.603 85.9857 305.941 85.9857 306.311V310.525H84.393V306.311C84.393 305.906 84.2985 305.595 84.1093 305.375C83.9245 305.151 83.6451 305.04 83.2711 305.04C82.996 305.04 82.7381 305.102 82.4973 305.227C82.2566 305.351 82.0288 305.521 81.8138 305.737V310.525H80.2212Z" fill="black"/>
<path d="M92.7349 310.525H92.0191C91.8687 310.525 91.7505 310.503 91.6645 310.46C91.5785 310.413 91.514 310.321 91.4711 310.183L91.3292 309.712C91.1616 309.862 90.9961 309.996 90.8327 310.112C90.6737 310.224 90.5082 310.318 90.3362 310.396C90.1643 310.473 89.9816 310.531 89.7881 310.57C89.5947 310.609 89.3798 310.628 89.1433 310.628C88.8639 310.628 88.606 310.592 88.3696 310.518C88.1332 310.441 87.929 310.327 87.757 310.176C87.5894 310.026 87.4583 309.839 87.3637 309.615C87.2691 309.391 87.2219 309.131 87.2219 308.834C87.2219 308.585 87.2863 308.339 87.4153 308.098C87.5486 307.853 87.7678 307.634 88.073 307.44C88.3782 307.242 88.7844 307.079 89.2917 306.95C89.7989 306.821 90.4286 306.748 91.1809 306.73V306.343C91.1809 305.9 91.0863 305.573 90.8972 305.362C90.7123 305.147 90.4415 305.04 90.0848 305.04C89.8268 305.04 89.6119 305.07 89.44 305.13C89.268 305.19 89.1176 305.259 88.9886 305.336C88.8639 305.41 88.7479 305.476 88.6404 305.536C88.5329 305.597 88.4147 305.627 88.2858 305.627C88.1783 305.627 88.0859 305.599 88.0085 305.543C87.9311 305.487 87.8688 305.418 87.8215 305.336L87.5314 304.827C88.2922 304.13 89.21 303.781 90.2846 303.781C90.6715 303.781 91.0154 303.846 91.3163 303.975C91.6215 304.1 91.8794 304.276 92.0901 304.504C92.3007 304.728 92.4597 304.997 92.5672 305.311C92.679 305.625 92.7349 305.969 92.7349 306.343V310.525ZM89.6398 309.531C89.8032 309.531 89.9536 309.516 90.0912 309.486C90.2288 309.456 90.3577 309.411 90.4781 309.35C90.6027 309.29 90.7209 309.217 90.8327 309.131C90.9488 309.041 91.0648 308.935 91.1809 308.815V307.698C90.7166 307.72 90.3276 307.761 90.0138 307.821C89.7043 307.877 89.455 307.95 89.2659 308.04C89.0767 308.131 88.9413 308.236 88.8596 308.357C88.7823 308.477 88.7436 308.608 88.7436 308.75C88.7436 309.03 88.8253 309.23 88.9886 309.35C89.1562 309.471 89.3733 309.531 89.6398 309.531Z" fill="black"/>
<path d="M95.9967 300.935V310.525H94.4041V300.935H95.9967Z" fill="black"/>
<path d="M100.149 312.345C100.102 312.457 100.039 312.541 99.962 312.596C99.8889 312.657 99.775 312.687 99.6203 312.687H98.4338L99.6718 310.034L96.9959 303.904H98.3887C98.5177 303.904 98.6165 303.934 98.6853 303.994C98.7541 304.054 98.8057 304.123 98.8401 304.201L100.252 307.634C100.299 307.746 100.34 307.862 100.375 307.982C100.409 308.103 100.439 308.223 100.465 308.344C100.499 308.219 100.536 308.098 100.575 307.982C100.618 307.866 100.663 307.748 100.71 307.627L102.038 304.201C102.073 304.115 102.129 304.044 102.206 303.988C102.288 303.932 102.378 303.904 102.477 303.904H103.753L100.149 312.345Z" fill="black"/>
<path d="M106.851 310.628C106.279 310.628 105.839 310.467 105.529 310.144C105.22 309.817 105.065 309.368 105.065 308.795V305.098H104.394C104.308 305.098 104.233 305.07 104.169 305.014C104.109 304.958 104.078 304.874 104.078 304.762V304.13L105.142 303.955L105.478 302.148C105.495 302.062 105.534 301.996 105.594 301.948C105.658 301.901 105.738 301.877 105.832 301.877H106.658V303.962H108.399V305.098H106.658V308.686C106.658 308.892 106.709 309.054 106.812 309.17C106.916 309.286 107.053 309.344 107.225 309.344C107.324 309.344 107.406 309.333 107.47 309.312C107.539 309.286 107.597 309.26 107.644 309.234C107.696 309.208 107.741 309.185 107.78 309.163C107.818 309.137 107.857 309.125 107.896 309.125C107.943 309.125 107.982 309.137 108.012 309.163C108.042 309.185 108.074 309.219 108.108 309.267L108.586 310.041C108.353 310.235 108.087 310.381 107.786 310.48C107.485 310.579 107.173 310.628 106.851 310.628Z" fill="black"/>
<path d="M111.361 303.904V310.525H109.768V303.904H111.361ZM111.6 301.974C111.6 302.112 111.572 302.241 111.516 302.361C111.46 302.482 111.385 302.587 111.29 302.678C111.2 302.768 111.092 302.841 110.968 302.897C110.843 302.949 110.71 302.975 110.568 302.975C110.43 302.975 110.299 302.949 110.175 302.897C110.054 302.841 109.949 302.768 109.859 302.678C109.768 302.587 109.695 302.482 109.639 302.361C109.588 302.241 109.562 302.112 109.562 301.974C109.562 301.832 109.588 301.699 109.639 301.574C109.695 301.449 109.768 301.342 109.859 301.251C109.949 301.161 110.054 301.09 110.175 301.038C110.299 300.983 110.43 300.955 110.568 300.955C110.71 300.955 110.843 300.983 110.968 301.038C111.092 301.09 111.2 301.161 111.29 301.251C111.385 301.342 111.46 301.449 111.516 301.574C111.572 301.699 111.6 301.832 111.6 301.974Z" fill="black"/>
<path d="M117.815 305.304C117.768 305.364 117.721 305.412 117.673 305.446C117.63 305.481 117.566 305.498 117.48 305.498C117.398 305.498 117.319 305.474 117.241 305.427C117.164 305.375 117.072 305.319 116.964 305.259C116.857 305.194 116.728 305.139 116.577 305.091C116.431 305.04 116.248 305.014 116.029 305.014C115.75 305.014 115.505 305.065 115.294 305.169C115.083 305.268 114.907 305.412 114.765 305.601C114.628 305.79 114.525 306.02 114.456 306.292C114.387 306.558 114.353 306.862 114.353 307.201C114.353 307.554 114.389 307.868 114.462 308.144C114.54 308.419 114.649 308.651 114.791 308.841C114.933 309.026 115.105 309.168 115.307 309.267C115.509 309.361 115.737 309.409 115.99 309.409C116.244 309.409 116.448 309.378 116.603 309.318C116.762 309.254 116.895 309.185 117.003 309.112C117.11 309.034 117.203 308.965 117.28 308.905C117.362 308.841 117.452 308.808 117.551 308.808C117.68 308.808 117.776 308.858 117.841 308.957L118.299 309.538C118.123 309.744 117.931 309.918 117.725 310.06C117.519 310.198 117.304 310.31 117.08 310.396C116.861 310.478 116.633 310.536 116.397 310.57C116.16 310.605 115.926 310.622 115.694 310.622C115.285 310.622 114.901 310.546 114.54 310.396C114.179 310.241 113.863 310.017 113.592 309.725C113.325 309.432 113.112 309.075 112.953 308.653C112.799 308.228 112.721 307.744 112.721 307.201C112.721 306.715 112.79 306.266 112.928 305.853C113.069 305.435 113.276 305.076 113.547 304.775C113.817 304.47 114.153 304.231 114.553 304.059C114.952 303.887 115.412 303.801 115.932 303.801C116.427 303.801 116.859 303.88 117.228 304.039C117.602 304.198 117.938 304.427 118.234 304.723L117.815 305.304Z" fill="black"/>
<path d="M123.239 305.194C123.196 305.263 123.151 305.313 123.103 305.343C123.056 305.369 122.996 305.382 122.923 305.382C122.845 305.382 122.762 305.36 122.671 305.317C122.585 305.274 122.484 305.227 122.368 305.175C122.252 305.119 122.119 305.07 121.968 305.027C121.822 304.984 121.648 304.962 121.446 304.962C121.132 304.962 120.885 305.029 120.705 305.162C120.524 305.296 120.434 305.47 120.434 305.685C120.434 305.827 120.479 305.947 120.569 306.046C120.664 306.141 120.786 306.225 120.937 306.298C121.092 306.371 121.266 306.438 121.459 306.498C121.653 306.554 121.85 306.616 122.052 306.685C122.254 306.754 122.452 306.834 122.645 306.924C122.839 307.01 123.011 307.122 123.161 307.26C123.316 307.393 123.439 307.554 123.529 307.744C123.623 307.933 123.671 308.161 123.671 308.428C123.671 308.746 123.613 309.041 123.497 309.312C123.381 309.578 123.211 309.811 122.987 310.009C122.764 310.202 122.486 310.355 122.155 310.467C121.829 310.574 121.453 310.628 121.027 310.628C120.799 310.628 120.576 310.607 120.356 310.564C120.142 310.525 119.933 310.469 119.731 310.396C119.533 310.323 119.348 310.237 119.176 310.138C119.009 310.039 118.861 309.931 118.732 309.815L119.099 309.208C119.146 309.135 119.202 309.079 119.267 309.041C119.331 309.002 119.413 308.983 119.512 308.983C119.611 308.983 119.703 309.011 119.789 309.066C119.879 309.122 119.982 309.183 120.099 309.247C120.215 309.312 120.35 309.372 120.505 309.428C120.664 309.484 120.864 309.512 121.104 309.512C121.294 309.512 121.455 309.49 121.588 309.447C121.726 309.4 121.837 309.34 121.923 309.267C122.014 309.193 122.078 309.11 122.117 309.015C122.16 308.916 122.181 308.815 122.181 308.712C122.181 308.557 122.134 308.43 122.039 308.331C121.949 308.232 121.827 308.146 121.672 308.073C121.521 308 121.347 307.935 121.15 307.879C120.956 307.819 120.756 307.754 120.55 307.685C120.348 307.617 120.148 307.537 119.95 307.447C119.757 307.352 119.583 307.234 119.428 307.092C119.278 306.95 119.155 306.776 119.06 306.569C118.97 306.363 118.925 306.113 118.925 305.82C118.925 305.549 118.979 305.291 119.086 305.046C119.194 304.801 119.351 304.588 119.557 304.407C119.768 304.222 120.028 304.076 120.337 303.968C120.651 303.856 121.012 303.801 121.42 303.801C121.876 303.801 122.291 303.876 122.665 304.026C123.039 304.177 123.35 304.375 123.6 304.62L123.239 305.194Z" fill="black"/>
<path d="M449.077 160.263C449.356 160.263 449.599 160.238 449.804 160.189C450.013 160.137 450.211 160.066 450.399 159.977V158.765H449.565C449.485 158.765 449.422 158.743 449.376 158.7C449.33 158.654 449.307 158.599 449.307 158.534V157.834H451.522V160.53C451.353 160.653 451.177 160.761 450.993 160.853C450.812 160.942 450.617 161.016 450.408 161.074C450.202 161.133 449.981 161.176 449.745 161.203C449.508 161.234 449.253 161.249 448.98 161.249C448.495 161.249 448.048 161.165 447.64 160.996C447.231 160.827 446.878 160.592 446.58 160.291C446.283 159.99 446.049 159.63 445.88 159.212C445.715 158.794 445.632 158.338 445.632 157.843C445.632 157.342 445.713 156.883 445.876 156.465C446.039 156.047 446.269 155.687 446.567 155.386C446.868 155.085 447.231 154.851 447.658 154.685C448.085 154.52 448.564 154.437 449.095 154.437C449.639 154.437 450.108 154.518 450.504 154.681C450.904 154.841 451.241 155.05 451.518 155.308L451.158 155.87C451.088 155.984 450.994 156.041 450.878 156.041C450.804 156.041 450.729 156.016 450.652 155.967C450.554 155.909 450.452 155.85 450.348 155.792C450.247 155.733 450.133 155.683 450.007 155.64C449.884 155.597 449.745 155.561 449.588 155.534C449.434 155.506 449.256 155.492 449.054 155.492C448.725 155.492 448.427 155.547 448.16 155.658C447.896 155.769 447.67 155.927 447.483 156.133C447.296 156.339 447.152 156.586 447.05 156.875C446.949 157.164 446.898 157.487 446.898 157.843C446.898 158.227 446.952 158.57 447.059 158.871C447.167 159.169 447.317 159.421 447.511 159.627C447.704 159.833 447.935 159.991 448.202 160.102C448.469 160.209 448.76 160.263 449.077 160.263Z" fill="black"/>
<path d="M452.611 161.176V156.446H453.279C453.395 156.446 453.477 156.468 453.523 156.511C453.569 156.554 453.599 156.628 453.615 156.732L453.684 157.304C453.853 157.012 454.051 156.781 454.278 156.612C454.505 156.443 454.76 156.359 455.043 156.359C455.276 156.359 455.469 156.413 455.623 156.52L455.475 157.373C455.466 157.428 455.446 157.468 455.416 157.493C455.385 157.514 455.343 157.525 455.291 157.525C455.245 157.525 455.182 157.514 455.102 157.493C455.023 157.471 454.917 157.46 454.785 157.46C454.548 157.46 454.346 157.526 454.177 157.659C454.008 157.788 453.865 157.978 453.748 158.23V161.176H452.611Z" fill="black"/>
<path d="M458.388 156.373C458.741 156.373 459.061 156.429 459.346 156.543C459.635 156.657 459.88 156.818 460.083 157.027C460.286 157.236 460.442 157.491 460.553 157.792C460.663 158.093 460.719 158.43 460.719 158.802C460.719 159.177 460.663 159.515 460.553 159.816C460.442 160.117 460.286 160.374 460.083 160.586C459.88 160.798 459.635 160.961 459.346 161.074C459.061 161.188 458.741 161.245 458.388 161.245C458.035 161.245 457.714 161.188 457.426 161.074C457.137 160.961 456.89 160.798 456.684 160.586C456.481 160.374 456.323 160.117 456.21 159.816C456.099 159.515 456.044 159.177 456.044 158.802C456.044 158.43 456.099 158.093 456.21 157.792C456.323 157.491 456.481 157.236 456.684 157.027C456.89 156.818 457.137 156.657 457.426 156.543C457.714 156.429 458.035 156.373 458.388 156.373ZM458.388 160.369C458.781 160.369 459.071 160.237 459.259 159.973C459.449 159.708 459.544 159.321 459.544 158.811C459.544 158.301 459.449 157.912 459.259 157.645C459.071 157.377 458.781 157.244 458.388 157.244C457.989 157.244 457.694 157.379 457.504 157.649C457.313 157.917 457.218 158.304 457.218 158.811C457.218 159.318 457.313 159.705 457.504 159.973C457.694 160.237 457.989 160.369 458.388 160.369Z" fill="black"/>
<path d="M461.03 156.446H461.933C462.019 156.446 462.091 156.466 462.15 156.506C462.208 156.546 462.245 156.597 462.26 156.658L462.937 159.184C462.974 159.323 463.003 159.458 463.025 159.59C463.049 159.722 463.072 159.854 463.094 159.986C463.128 159.854 463.163 159.722 463.2 159.59C463.24 159.458 463.281 159.323 463.324 159.184L464.107 156.649C464.125 156.588 464.162 156.537 464.218 156.497C464.273 156.457 464.337 156.437 464.411 156.437H464.913C464.996 156.437 465.065 156.457 465.12 156.497C465.176 156.537 465.212 156.588 465.231 156.649L466.005 159.23C466.045 159.363 466.08 159.492 466.111 159.618C466.144 159.741 466.177 159.865 466.207 159.991C466.229 159.859 466.252 159.727 466.276 159.595C466.304 159.462 466.338 159.326 466.378 159.184L467.078 156.658C467.093 156.597 467.13 156.546 467.188 156.506C467.247 156.466 467.314 156.446 467.391 156.446H468.252L466.755 161.176H465.839C465.741 161.176 465.67 161.108 465.627 160.973L464.775 158.239C464.747 158.15 464.721 158.061 464.697 157.972C464.675 157.88 464.657 157.789 464.641 157.7C464.623 157.792 464.603 157.884 464.581 157.977C464.56 158.066 464.535 158.156 464.508 158.249L463.647 160.973C463.604 161.108 463.521 161.176 463.398 161.176H462.527L461.03 156.446Z" fill="black"/>
<path d="M470.445 161.249C470.036 161.249 469.722 161.134 469.5 160.904C469.279 160.67 469.169 160.349 469.169 159.94V157.299H468.69C468.628 157.299 468.575 157.279 468.529 157.239C468.486 157.199 468.464 157.139 468.464 157.059V156.608L469.224 156.483L469.464 155.193C469.476 155.131 469.504 155.083 469.547 155.05C469.593 155.016 469.649 154.999 469.717 154.999H470.306V156.488H471.55V157.299H470.306V159.862C470.306 160.009 470.343 160.125 470.417 160.208C470.491 160.291 470.589 160.332 470.712 160.332C470.782 160.332 470.841 160.324 470.887 160.309C470.936 160.291 470.977 160.272 471.011 160.254C471.048 160.235 471.08 160.218 471.108 160.203C471.135 160.185 471.163 160.175 471.191 160.175C471.225 160.175 471.252 160.185 471.274 160.203C471.295 160.218 471.318 160.243 471.343 160.277L471.684 160.83C471.518 160.968 471.327 161.073 471.112 161.143C470.898 161.214 470.675 161.249 470.445 161.249Z" fill="black"/>
<path d="M472.455 161.176V154.326H473.592V156.958C473.777 156.783 473.979 156.641 474.2 156.534C474.421 156.426 474.681 156.373 474.979 156.373C475.237 156.373 475.465 156.417 475.665 156.506C475.864 156.592 476.03 156.715 476.162 156.875C476.297 157.032 476.399 157.221 476.466 157.442C476.537 157.66 476.572 157.901 476.572 158.166V161.176H475.435V158.166C475.435 157.877 475.367 157.654 475.232 157.497C475.1 157.337 474.9 157.258 474.633 157.258C474.437 157.258 474.252 157.302 474.081 157.391C473.909 157.48 473.746 157.602 473.592 157.755V161.176H472.455Z" fill="black"/>
<path d="M483.105 155.723C483.071 155.79 483.031 155.838 482.985 155.866C482.942 155.893 482.89 155.907 482.829 155.907C482.767 155.907 482.698 155.884 482.621 155.838C482.545 155.789 482.454 155.735 482.35 155.677C482.245 155.618 482.123 155.566 481.981 155.52C481.843 155.471 481.679 155.446 481.488 155.446C481.317 155.446 481.166 155.468 481.037 155.511C480.911 155.551 480.804 155.607 480.715 155.681C480.629 155.755 480.564 155.844 480.521 155.948C480.478 156.05 480.457 156.162 480.457 156.285C480.457 156.442 480.5 156.572 480.586 156.677C480.675 156.781 480.791 156.87 480.936 156.944C481.08 157.018 481.244 157.084 481.429 157.142C481.613 157.201 481.8 157.264 481.99 157.331C482.184 157.396 482.373 157.473 482.557 157.562C482.741 157.648 482.905 157.758 483.05 157.894C483.194 158.026 483.309 158.189 483.395 158.382C483.484 158.576 483.529 158.811 483.529 159.088C483.529 159.389 483.477 159.671 483.372 159.936C483.271 160.197 483.12 160.426 482.921 160.623C482.724 160.816 482.483 160.97 482.198 161.084C481.912 161.194 481.585 161.249 481.217 161.249C481.005 161.249 480.796 161.228 480.59 161.185C480.385 161.145 480.187 161.087 479.996 161.01C479.809 160.933 479.632 160.841 479.467 160.733C479.304 160.626 479.158 160.506 479.029 160.374L479.388 159.779C479.422 159.736 479.462 159.701 479.508 159.673C479.557 159.642 479.611 159.627 479.669 159.627C479.746 159.627 479.829 159.659 479.918 159.724C480.007 159.785 480.111 159.854 480.231 159.931C480.354 160.008 480.497 160.079 480.659 160.143C480.825 160.205 481.023 160.235 481.254 160.235C481.607 160.235 481.88 160.152 482.073 159.986C482.267 159.817 482.364 159.576 482.364 159.263C482.364 159.088 482.319 158.945 482.23 158.834C482.144 158.723 482.029 158.631 481.885 158.557C481.74 158.481 481.576 158.416 481.392 158.364C481.208 158.312 481.02 158.255 480.83 158.193C480.639 158.132 480.452 158.058 480.268 157.972C480.084 157.886 479.919 157.774 479.775 157.636C479.631 157.497 479.514 157.325 479.425 157.119C479.339 156.91 479.296 156.654 479.296 156.35C479.296 156.107 479.344 155.87 479.439 155.64C479.537 155.409 479.678 155.205 479.863 155.027C480.05 154.848 480.279 154.705 480.549 154.598C480.819 154.49 481.128 154.437 481.475 154.437C481.868 154.437 482.23 154.498 482.562 154.621C482.893 154.744 483.176 154.916 483.409 155.137L483.105 155.723Z" fill="black"/>
<path d="M485.962 161.249C485.553 161.249 485.239 161.134 485.018 160.904C484.797 160.67 484.686 160.349 484.686 159.94V157.299H484.207C484.146 157.299 484.092 157.279 484.046 157.239C484.003 157.199 483.981 157.139 483.981 157.059V156.608L484.741 156.483L484.981 155.193C484.993 155.131 485.021 155.083 485.064 155.05C485.11 155.016 485.167 154.999 485.234 154.999H485.824V156.488H487.067V157.299H485.824V159.862C485.824 160.009 485.86 160.125 485.934 160.208C486.008 160.291 486.106 160.332 486.229 160.332C486.3 160.332 486.358 160.324 486.404 160.309C486.453 160.291 486.495 160.272 486.528 160.254C486.565 160.235 486.597 160.218 486.625 160.203C486.653 160.185 486.68 160.175 486.708 160.175C486.742 160.175 486.769 160.185 486.791 160.203C486.812 160.218 486.835 160.243 486.86 160.277L487.201 160.83C487.035 160.968 486.845 161.073 486.63 161.143C486.415 161.214 486.192 161.249 485.962 161.249Z" fill="black"/>
<path d="M487.972 161.176V156.446H488.64C488.756 156.446 488.838 156.468 488.884 156.511C488.93 156.554 488.961 156.628 488.976 156.732L489.045 157.304C489.214 157.012 489.412 156.781 489.639 156.612C489.866 156.443 490.121 156.359 490.404 156.359C490.637 156.359 490.83 156.413 490.984 156.52L490.837 157.373C490.827 157.428 490.807 157.468 490.777 157.493C490.746 157.514 490.705 157.525 490.652 157.525C490.606 157.525 490.543 157.514 490.464 157.493C490.384 157.471 490.278 157.46 490.146 157.46C489.909 157.46 489.707 157.526 489.538 157.659C489.369 157.788 489.226 157.978 489.109 158.23V161.176H487.972Z" fill="black"/>
<path d="M495.3 161.176H494.789C494.681 161.176 494.597 161.16 494.535 161.13C494.474 161.096 494.428 161.03 494.397 160.931L494.296 160.595C494.176 160.702 494.058 160.798 493.941 160.881C493.828 160.961 493.71 161.028 493.587 161.084C493.464 161.139 493.333 161.18 493.195 161.208C493.057 161.236 492.904 161.249 492.735 161.249C492.535 161.249 492.351 161.223 492.182 161.171C492.013 161.116 491.867 161.034 491.744 160.927C491.625 160.819 491.531 160.686 491.464 160.526C491.396 160.366 491.362 160.18 491.362 159.968C491.362 159.79 491.408 159.615 491.5 159.443C491.596 159.267 491.752 159.111 491.97 158.972C492.188 158.831 492.478 158.714 492.841 158.622C493.203 158.53 493.653 158.478 494.19 158.465V158.189C494.19 157.872 494.123 157.639 493.987 157.488C493.855 157.334 493.662 157.258 493.407 157.258C493.223 157.258 493.069 157.279 492.947 157.322C492.824 157.365 492.716 157.414 492.624 157.47C492.535 157.522 492.452 157.57 492.375 157.613C492.299 157.656 492.214 157.677 492.122 157.677C492.045 157.677 491.979 157.657 491.924 157.617C491.869 157.577 491.824 157.528 491.791 157.47L491.583 157.105C492.127 156.608 492.782 156.359 493.55 156.359C493.826 156.359 494.072 156.405 494.287 156.497C494.505 156.586 494.689 156.712 494.839 156.875C494.99 157.035 495.104 157.227 495.18 157.451C495.26 157.676 495.3 157.921 495.3 158.189V161.176ZM493.089 160.466C493.206 160.466 493.313 160.455 493.412 160.434C493.51 160.412 493.602 160.38 493.688 160.337C493.777 160.294 493.862 160.242 493.941 160.18C494.024 160.116 494.107 160.04 494.19 159.954V159.157C493.858 159.172 493.581 159.201 493.356 159.244C493.135 159.284 492.957 159.336 492.822 159.401C492.687 159.466 492.59 159.541 492.532 159.627C492.477 159.713 492.449 159.807 492.449 159.908C492.449 160.108 492.507 160.251 492.624 160.337C492.744 160.423 492.899 160.466 493.089 160.466Z" fill="black"/>
<path d="M497.971 161.249C497.562 161.249 497.248 161.134 497.027 160.904C496.806 160.67 496.695 160.349 496.695 159.94V157.299H496.216C496.155 157.299 496.101 157.279 496.055 157.239C496.012 157.199 495.99 157.139 495.99 157.059V156.608L496.75 156.483L496.99 155.193C497.002 155.131 497.03 155.083 497.073 155.05C497.119 155.016 497.176 154.999 497.243 154.999H497.833V156.488H499.076V157.299H497.833V159.862C497.833 160.009 497.869 160.125 497.943 160.208C498.017 160.291 498.115 160.332 498.238 160.332C498.308 160.332 498.367 160.324 498.413 160.309C498.462 160.291 498.503 160.272 498.537 160.254C498.574 160.235 498.606 160.218 498.634 160.203C498.662 160.185 498.689 160.175 498.717 160.175C498.751 160.175 498.778 160.185 498.8 160.203C498.821 160.218 498.844 160.243 498.869 160.277L499.21 160.83C499.044 160.968 498.854 161.073 498.639 161.143C498.424 161.214 498.201 161.249 497.971 161.249Z" fill="black"/>
<path d="M501.934 156.373C502.231 156.373 502.505 156.42 502.753 156.515C503.005 156.611 503.222 156.751 503.403 156.935C503.584 157.116 503.725 157.341 503.827 157.608C503.928 157.872 503.979 158.175 503.979 158.516C503.979 158.602 503.974 158.674 503.965 158.733C503.959 158.788 503.945 158.833 503.923 158.866C503.905 158.897 503.879 158.92 503.845 158.935C503.811 158.948 503.768 158.954 503.716 158.954H500.796C500.83 159.439 500.96 159.796 501.188 160.023C501.415 160.251 501.716 160.364 502.09 160.364C502.274 160.364 502.433 160.343 502.565 160.3C502.7 160.257 502.816 160.209 502.915 160.157C503.016 160.105 503.103 160.057 503.177 160.014C503.254 159.971 503.328 159.95 503.398 159.95C503.444 159.95 503.484 159.959 503.518 159.977C503.552 159.996 503.581 160.022 503.606 160.056L503.937 160.47C503.811 160.618 503.67 160.742 503.513 160.844C503.357 160.942 503.193 161.022 503.021 161.084C502.852 161.142 502.678 161.183 502.5 161.208C502.325 161.233 502.155 161.245 501.989 161.245C501.66 161.245 501.355 161.191 501.072 161.084C500.79 160.973 500.544 160.812 500.335 160.6C500.127 160.384 499.962 160.12 499.843 159.807C499.723 159.49 499.663 159.124 499.663 158.71C499.663 158.387 499.715 158.084 499.82 157.802C499.924 157.516 500.073 157.268 500.266 157.059C500.463 156.847 500.701 156.68 500.98 156.557C501.263 156.434 501.581 156.373 501.934 156.373ZM501.957 157.188C501.625 157.188 501.366 157.282 501.178 157.47C500.991 157.657 500.871 157.923 500.819 158.267H502.956C502.956 158.12 502.936 157.981 502.896 157.852C502.856 157.72 502.795 157.605 502.712 157.507C502.629 157.408 502.525 157.331 502.399 157.276C502.273 157.218 502.126 157.188 501.957 157.188Z" fill="black"/>
<path d="M506.536 156.363C506.739 156.363 506.929 156.385 507.107 156.428C507.286 156.468 507.448 156.528 507.596 156.608H508.954V157.032C508.954 157.102 508.936 157.158 508.899 157.198C508.862 157.238 508.799 157.265 508.71 157.281L508.287 157.359C508.317 157.439 508.34 157.523 508.356 157.613C508.374 157.702 508.383 157.795 508.383 157.894C508.383 158.127 508.336 158.339 508.24 158.53C508.148 158.717 508.019 158.877 507.854 159.009C507.691 159.141 507.496 159.244 507.269 159.318C507.045 159.389 506.8 159.424 506.536 159.424C506.358 159.424 506.185 159.407 506.016 159.373C505.869 159.462 505.795 159.562 505.795 159.673C505.795 159.768 505.838 159.839 505.924 159.885C506.013 159.928 506.128 159.959 506.269 159.977C506.414 159.996 506.576 160.008 506.757 160.014C506.939 160.017 507.124 160.026 507.315 160.042C507.505 160.057 507.691 160.085 507.872 160.125C508.053 160.162 508.214 160.222 508.356 160.305C508.5 160.387 508.615 160.501 508.701 160.646C508.79 160.787 508.835 160.97 508.835 161.194C508.835 161.403 508.782 161.606 508.678 161.803C508.577 161.999 508.428 162.174 508.231 162.328C508.038 162.482 507.8 162.605 507.517 162.697C507.235 162.792 506.913 162.84 506.55 162.84C506.191 162.84 505.879 162.804 505.615 162.734C505.351 162.666 505.132 162.574 504.957 162.457C504.785 162.343 504.656 162.211 504.57 162.061C504.484 161.91 504.441 161.753 504.441 161.591C504.441 161.369 504.508 161.183 504.643 161.033C504.779 160.882 504.966 160.762 505.205 160.673C505.089 160.609 504.995 160.523 504.924 160.415C504.854 160.308 504.818 160.168 504.818 159.996C504.818 159.925 504.831 159.853 504.855 159.779C504.88 159.702 504.917 159.627 504.966 159.553C505.018 159.479 505.083 159.41 505.159 159.346C505.236 159.278 505.327 159.218 505.431 159.166C505.192 159.037 505.003 158.865 504.865 158.65C504.729 158.435 504.662 158.183 504.662 157.894C504.662 157.66 504.708 157.45 504.8 157.262C504.895 157.072 505.026 156.91 505.192 156.778C505.36 156.643 505.558 156.54 505.786 156.469C506.016 156.399 506.266 156.363 506.536 156.363ZM507.785 161.388C507.785 161.296 507.757 161.22 507.702 161.162C507.646 161.103 507.571 161.059 507.476 161.028C507.381 160.994 507.269 160.97 507.14 160.954C507.014 160.939 506.879 160.928 506.734 160.922C506.593 160.913 506.446 160.905 506.292 160.899C506.142 160.89 505.996 160.876 505.855 160.858C505.726 160.928 505.621 161.013 505.542 161.111C505.465 161.206 505.426 161.317 505.426 161.443C505.426 161.526 505.446 161.603 505.486 161.674C505.529 161.747 505.595 161.81 505.684 161.863C505.776 161.915 505.895 161.955 506.039 161.982C506.183 162.013 506.36 162.028 506.569 162.028C506.78 162.028 506.963 162.012 507.117 161.978C507.27 161.947 507.396 161.902 507.494 161.844C507.596 161.789 507.669 161.721 507.715 161.641C507.761 161.564 507.785 161.48 507.785 161.388ZM506.536 158.696C506.678 158.696 506.8 158.677 506.905 158.64C507.009 158.601 507.095 158.547 507.163 158.479C507.233 158.412 507.286 158.33 507.319 158.235C507.356 158.14 507.375 158.035 507.375 157.921C507.375 157.688 507.304 157.503 507.163 157.368C507.025 157.23 506.816 157.161 506.536 157.161C506.257 157.161 506.047 157.23 505.905 157.368C505.767 157.503 505.698 157.688 505.698 157.921C505.698 158.032 505.715 158.135 505.749 158.23C505.786 158.325 505.838 158.408 505.905 158.479C505.976 158.547 506.064 158.601 506.168 158.64C506.275 158.677 506.398 158.696 506.536 158.696Z" fill="black"/>
<path d="M511.345 162.476C511.312 162.555 511.267 162.615 511.212 162.655C511.16 162.698 511.078 162.72 510.968 162.72H510.12L511.005 160.825L509.093 156.446H510.088C510.18 156.446 510.251 156.468 510.3 156.511C510.349 156.554 510.386 156.603 510.41 156.658L511.419 159.111C511.453 159.191 511.482 159.273 511.507 159.36C511.531 159.446 511.553 159.532 511.571 159.618C511.596 159.529 511.622 159.443 511.649 159.36C511.68 159.277 511.712 159.192 511.746 159.106L512.695 156.658C512.719 156.597 512.759 156.546 512.815 156.506C512.873 156.466 512.937 156.446 513.008 156.446H513.92L511.345 162.476Z" fill="black"/>
<rect x="479.199" y="323.432" width="61.7161" height="0.921909" fill="white"/>
<rect x="479.199" y="318.822" width="61.7161" height="0.921909" fill="white"/>
<ellipse cx="382.479" cy="97.564" rx="5.52681" ry="5.53145" fill="#4749A0"/>
<ellipse cx="364.057" cy="97.564" rx="5.52681" ry="5.53145" fill="#4749A0"/>
<ellipse cx="345.634" cy="97.564" rx="5.52681" ry="5.53145" fill="#4749A0"/>
<path d="M218.517 183.302C218.517 163.444 234.615 147.347 254.472 147.347H257.205V183.302H218.517Z" fill="#FE5F4A"/>
<path d="M354.845 315.134C365.02 315.134 373.268 323.383 373.268 333.557L373.268 334.495L354.845 334.495L354.845 315.134Z" fill="#4749A0"/>
<g filter="url(#filter5_d)">
<ellipse cx="466.303" cy="107.705" rx="10.1325" ry="10.141" fill="white"/>
</g>
<g filter="url(#filter6_d)">
<ellipse cx="250.757" cy="69.9067" rx="12.8959" ry="12.9067" fill="white"/>
</g>
<g filter="url(#filter7_d)">
<ellipse cx="34.7508" cy="365.379" rx="8.75079" ry="8.75813" fill="white"/>
</g>
<g filter="url(#filter8_d)">
<ellipse cx="557.495" cy="262.586" rx="12.8959" ry="12.9067" fill="white"/>
</g>
<g filter="url(#filter9_d)">
<ellipse cx="193.647" cy="474.625" rx="7.36909" ry="7.37527" fill="white"/>
</g>
<g filter="url(#filter10_d)">
<ellipse cx="508.215" cy="446.507" rx="5.06625" ry="5.0705" fill="white"/>
</g>
</g>
<defs>
<filter id="filter0_d" x="-3.47321" y="133.966" width="222.485" height="218.677" filterUnits="userSpaceOnUse" color-interpolation-filters="sRGB">
<feFlood flood-opacity="0" result="BackgroundImageFix"/>
<feColorMatrix in="SourceAlpha" type="matrix" values="0 0 0 0 0 0 0 0 0 0 0 0 0 0 0 0 0 0 127 0"/>
<feOffset dx="15" dy="33"/>
<feGaussianBlur stdDeviation="25"/>
<feColorMatrix type="matrix" values="0 0 0 0 0 0 0 0 0 0 0 0 0 0 0 0 0 0 0.1 0"/>
<feBlend mode="normal" in2="BackgroundImageFix" result="effect1_dropShadow"/>
<feBlend mode="normal" in="SourceGraphic" in2="effect1_dropShadow" result="shape"/>
</filter>
<filter id="filter1_d" x="399.123" y="242.064" width="234.426" height="229.917" filterUnits="userSpaceOnUse" color-interpolation-filters="sRGB">
<feFlood flood-opacity="0" result="BackgroundImageFix"/>
<feColorMatrix in="SourceAlpha" type="matrix" values="0 0 0 0 0 0 0 0 0 0 0 0 0 0 0 0 0 0 127 0"/>
<feOffset dx="15" dy="33"/>
<feGaussianBlur stdDeviation="25"/>
<feColorMatrix type="matrix" values="0 0 0 0 0 0 0 0 0 0 0 0 0 0 0 0 0 0 0.1 0"/>
<feBlend mode="normal" in2="BackgroundImageFix" result="effect1_dropShadow"/>
<feBlend mode="normal" in="SourceGraphic" in2="effect1_dropShadow" result="shape"/>
</filter>
<filter id="filter2_d" x="22.798" y="272.147" width="196.214" height="199.834" filterUnits="userSpaceOnUse" color-interpolation-filters="sRGB">
<feFlood flood-opacity="0" result="BackgroundImageFix"/>
<feColorMatrix in="SourceAlpha" type="matrix" values="0 0 0 0 0 0 0 0 0 0 0 0 0 0 0 0 0 0 127 0"/>
<feOffset dx="15" dy="33"/>
<feGaussianBlur stdDeviation="25"/>
<feColorMatrix type="matrix" values="0 0 0 0 0 0 0 0 0 0 0 0 0 0 0 0 0 0 0.1 0"/>
<feBlend mode="normal" in2="BackgroundImageFix" result="effect1_dropShadow"/>
<feBlend mode="normal" in="SourceGraphic" in2="effect1_dropShadow" result="shape"/>
</filter>
<filter id="filter3_d" x="141.145" y="53.3048" width="337.463" height="472.561" filterUnits="userSpaceOnUse" color-interpolation-filters="sRGB">
<feFlood flood-opacity="0" result="BackgroundImageFix"/>
<feColorMatrix in="SourceAlpha" type="matrix" values="0 0 0 0 0 0 0 0 0 0 0 0 0 0 0 0 0 0 127 0"/>
<feOffset dx="15" dy="33"/>
<feGaussianBlur stdDeviation="25"/>
<feColorMatrix type="matrix" values="0 0 0 0 0 0 0 0 0 0 0 0 0 0 0 0 0 0 0.1 0"/>
<feBlend mode="normal" in2="BackgroundImageFix" result="effect1_dropShadow"/>
<feBlend mode="normal" in="SourceGraphic" in2="effect1_dropShadow" result="shape"/>
</filter>
<filter id="filter4_d" x="399.123" y="128.015" width="196.214" height="193.223" filterUnits="userSpaceOnUse" color-interpolation-filters="sRGB">
<feFlood flood-opacity="0" result="BackgroundImageFix"/>
<feColorMatrix in="SourceAlpha" type="matrix" values="0 0 0 0 0 0 0 0 0 0 0 0 0 0 0 0 0 0 127 0"/>
<feOffset dx="15" dy="33"/>
<feGaussianBlur stdDeviation="25"/>
<feColorMatrix type="matrix" values="0 0 0 0 0 0 0 0 0 0 0 0 0 0 0 0 0 0 0.1 0"/>
<feBlend mode="normal" in2="BackgroundImageFix" result="effect1_dropShadow"/>
<feBlend mode="normal" in="SourceGraphic" in2="effect1_dropShadow" result="shape"/>
</filter>
<filter id="filter5_d" x="438.17" y="87.564" width="60.265" height="60.282" filterUnits="userSpaceOnUse" color-interpolation-filters="sRGB">
<feFlood flood-opacity="0" result="BackgroundImageFix"/>
<feColorMatrix in="SourceAlpha" type="matrix" values="0 0 0 0 0 0 0 0 0 0 0 0 0 0 0 0 0 0 127 0"/>
<feOffset dx="2" dy="10"/>
<feGaussianBlur stdDeviation="10"/>
<feColorMatrix type="matrix" values="0 0 0 0 0 0 0 0 0 0 0 0 0 0 0 0 0 0 0.07 0"/>
<feBlend mode="normal" in2="BackgroundImageFix" result="effect1_dropShadow"/>
<feBlend mode="normal" in="SourceGraphic" in2="effect1_dropShadow" result="shape"/>
</filter>
<filter id="filter6_d" x="219.861" y="47" width="65.7918" height="65.8134" filterUnits="userSpaceOnUse" color-interpolation-filters="sRGB">
<feFlood flood-opacity="0" result="BackgroundImageFix"/>
<feColorMatrix in="SourceAlpha" type="matrix" values="0 0 0 0 0 0 0 0 0 0 0 0 0 0 0 0 0 0 127 0"/>
<feOffset dx="2" dy="10"/>
<feGaussianBlur stdDeviation="10"/>
<feColorMatrix type="matrix" values="0 0 0 0 0 0 0 0 0 0 0 0 0 0 0 0 0 0 0.07 0"/>
<feBlend mode="normal" in2="BackgroundImageFix" result="effect1_dropShadow"/>
<feBlend mode="normal" in="SourceGraphic" in2="effect1_dropShadow" result="shape"/>
</filter>
<filter id="filter7_d" x="8" y="346.62" width="57.5016" height="57.5163" filterUnits="userSpaceOnUse" color-interpolation-filters="sRGB">
<feFlood flood-opacity="0" result="BackgroundImageFix"/>
<feColorMatrix in="SourceAlpha" type="matrix" values="0 0 0 0 0 0 0 0 0 0 0 0 0 0 0 0 0 0 127 0"/>
<feOffset dx="2" dy="10"/>
<feGaussianBlur stdDeviation="10"/>
<feColorMatrix type="matrix" values="0 0 0 0 0 0 0 0 0 0 0 0 0 0 0 0 0 0 0.07 0"/>
<feBlend mode="normal" in2="BackgroundImageFix" result="effect1_dropShadow"/>
<feBlend mode="normal" in="SourceGraphic" in2="effect1_dropShadow" result="shape"/>
</filter>
<filter id="filter8_d" x="526.599" y="239.679" width="65.7918" height="65.8134" filterUnits="userSpaceOnUse" color-interpolation-filters="sRGB">
<feFlood flood-opacity="0" result="BackgroundImageFix"/>
<feColorMatrix in="SourceAlpha" type="matrix" values="0 0 0 0 0 0 0 0 0 0 0 0 0 0 0 0 0 0 127 0"/>
<feOffset dx="2" dy="10"/>
<feGaussianBlur stdDeviation="10"/>
<feColorMatrix type="matrix" values="0 0 0 0 0 0 0 0 0 0 0 0 0 0 0 0 0 0 0.07 0"/>
<feBlend mode="normal" in2="BackgroundImageFix" result="effect1_dropShadow"/>
<feBlend mode="normal" in="SourceGraphic" in2="effect1_dropShadow" result="shape"/>
</filter>
<filter id="filter9_d" x="168.278" y="457.249" width="54.7382" height="54.7505" filterUnits="userSpaceOnUse" color-interpolation-filters="sRGB">
<feFlood flood-opacity="0" result="BackgroundImageFix"/>
<feColorMatrix in="SourceAlpha" type="matrix" values="0 0 0 0 0 0 0 0 0 0 0 0 0 0 0 0 0 0 127 0"/>
<feOffset dx="2" dy="10"/>
<feGaussianBlur stdDeviation="10"/>
<feColorMatrix type="matrix" values="0 0 0 0 0 0 0 0 0 0 0 0 0 0 0 0 0 0 0.07 0"/>
<feBlend mode="normal" in2="BackgroundImageFix" result="effect1_dropShadow"/>
<feBlend mode="normal" in="SourceGraphic" in2="effect1_dropShadow" result="shape"/>
</filter>
<filter id="filter10_d" x="485.148" y="431.436" width="50.1325" height="50.141" filterUnits="userSpaceOnUse" color-interpolation-filters="sRGB">
<feFlood flood-opacity="0" result="BackgroundImageFix"/>
<feColorMatrix in="SourceAlpha" type="matrix" values="0 0 0 0 0 0 0 0 0 0 0 0 0 0 0 0 0 0 127 0"/>
<feOffset dx="2" dy="10"/>
<feGaussianBlur stdDeviation="10"/>
<feColorMatrix type="matrix" values="0 0 0 0 0 0 0 0 0 0 0 0 0 0 0 0 0 0 0.07 0"/>
<feBlend mode="normal" in2="BackgroundImageFix" result="effect1_dropShadow"/>
<feBlend mode="normal" in="SourceGraphic" in2="effect1_dropShadow" result="shape"/>
</filter>
<clipPath id="clip0">
<rect width="635" height="540" fill="white"/>
</clipPath>
</defs>
</svg>
