<svg width="90" height="90" viewBox="0 0 90 90" fill="none" xmlns="http://www.w3.org/2000/svg">
<rect opacity="0.5" width="90" height="90" rx="15" fill="#FFD2B1"/>
<path d="M40.8763 61C40.6847 61 40.5013 60.9583 40.318 60.875C39.7513 60.6084 39.443 59.9835 39.5763 59.3753L41.993 48.5521H36.3347C35.8347 48.5521 35.368 48.2688 35.143 47.8189C34.918 47.3689 34.9597 46.8357 35.2597 46.4274L47.6847 29.5469C48.0597 29.0386 48.7347 28.8553 49.318 29.122C49.893 29.3886 50.2013 30.0135 50.0597 30.6301L47.5847 41.4533H53.668C54.1763 41.4533 54.6347 41.7365 54.8597 42.1948C55.0847 42.6447 55.0347 43.1863 54.7263 43.5946L41.9347 60.4751C41.6763 60.8167 41.2763 61 40.8763 61Z" fill="#FE5F4A"/>
</svg>
