<svg width="90" height="90" viewBox="0 0 90 90" fill="none" xmlns="http://www.w3.org/2000/svg">
<rect opacity="0.5" width="90" height="90" rx="15" fill="#FFD2B1"/>
<path d="M55.0971 47.3029C50.1971 47.5034 45.5533 48.8233 41.4221 51.0037L36.1033 54.1805C34.6971 55.0217 32.9033 54.517 32.0971 53.0677L29.3908 48.2281C28.5846 46.7788 29.0658 44.9154 30.4658 44.0808L34.8721 41.4474C35.1283 41.2922 35.4533 41.3827 35.6033 41.648L39.0658 47.8528C39.2158 48.1246 39.5533 48.2087 39.8096 48.0469C40.0596 47.8852 40.1283 47.5423 39.9783 47.2835L36.4908 41.0334C36.3533 40.7875 36.4221 40.4705 36.6471 40.3022C40.2846 37.6948 43.3596 34.3692 45.7221 30.4936C46.6158 29.0249 48.7033 29.0637 49.5471 30.5713L56.9471 43.8414C57.7783 45.3424 56.7721 47.2317 55.0971 47.3029ZM56.0408 38.0571C56.3158 36.4331 55.3971 34.8092 53.9096 34.2463C53.4408 34.0716 53.0221 34.5956 53.2658 35.0421C53.8596 36.1032 54.4471 37.1643 55.0471 38.2383C55.3033 38.6977 55.9596 38.5683 56.0408 38.0571ZM43.7346 57.5967L41.2033 53.0483C41.0533 52.783 40.7283 52.6924 40.4721 52.8477C39.1033 53.6694 39.0471 53.7018 37.2158 54.7952C36.9596 54.9505 36.8721 55.2869 37.0221 55.5522L39.5596 60.1007C39.8846 60.683 40.4721 61 41.0658 61C41.6408 61 41.8658 60.7994 43.0971 60.0618C43.9221 59.5507 44.2096 58.4508 43.7346 57.5967ZM59.9408 33.8645C60.1971 33.7092 60.2846 33.3728 60.1346 33.1075C59.9846 32.8423 59.6596 32.7517 59.4033 32.907L58.0221 33.7287C57.5471 34.0133 57.7471 34.7574 58.2908 34.7574C58.4783 34.7574 58.4408 34.7574 59.9408 33.8645ZM55.0346 30.9983L55.3721 29.6978C55.4471 29.4002 55.2783 29.1026 54.9971 29.0184C54.7096 28.9408 54.4221 29.1155 54.3408 29.4066L54.0033 30.7071C53.9158 31.0565 54.1658 31.3994 54.5158 31.3994C54.7533 31.4124 54.9721 31.2441 55.0346 30.9983ZM60.9783 39.7588C61.0533 39.4611 60.8846 39.1635 60.6033 39.0794L59.3471 38.73C59.0596 38.6524 58.7721 38.8271 58.6908 39.1182C58.6158 39.4158 58.7846 39.7135 59.0658 39.7976C60.4408 40.1793 60.3658 40.1664 60.4596 40.1664C60.6971 40.1664 60.9158 40.0046 60.9783 39.7588Z" fill="#FE5F4A"/>
</svg>
