<svg width="90" height="90" viewBox="0 0 90 90" fill="none" xmlns="http://www.w3.org/2000/svg">
<rect opacity="0.5" width="90" height="90" rx="15" fill="#C7DEB0"/>
<path d="M46.2936 31C47.8871 33.3132 49.1277 35.8442 49.9803 38.5224C51.9265 38.2163 53.7963 37.563 55.5074 36.5859L56.0072 36.2739C53.6258 33.2602 50.1155 31.3532 46.2936 31Z" fill="#6CAC2C"/>
<path d="M48.5102 40.7767C47.346 40.9122 46.1701 40.9769 45 40.9769C43.824 40.9769 42.6539 40.9122 41.4897 40.7767C41.2427 41.8306 41.084 42.9079 41.0193 43.9912H48.9865C48.916 42.9138 48.7572 41.8365 48.5102 40.7767Z" fill="#6CAC2C"/>
<path d="M44.9999 51.0243C44.0121 51.0243 43.0243 51.0773 42.0424 51.1774C42.7656 53.3376 43.7593 55.4036 44.9999 57.3165C46.2406 55.4036 47.2343 53.3434 47.9575 51.1774C46.9756 51.0773 45.9878 51.0243 44.9999 51.0243Z" fill="#6CAC2C"/>
<path d="M50.9799 46.0035C50.9211 47.1866 50.7565 48.3697 50.5037 49.5234C52.6381 49.8766 54.696 50.6182 56.5717 51.7071L57.1362 52.0603C58.2122 50.2121 58.8472 48.1402 59.0001 46.0035H50.9799Z" fill="#6CAC2C"/>
<path d="M57.1362 37.9397L56.5717 38.2929C54.696 39.3818 52.6381 40.1234 50.5037 40.4766C50.7624 41.6303 50.9211 42.8075 50.9799 43.9906H58.9942C58.8472 41.8598 58.2122 39.7879 57.1362 37.9397Z" fill="#6CAC2C"/>
<path d="M41.0133 46.0035C41.078 47.0868 41.2367 48.1642 41.4896 49.218C43.8239 48.9531 46.1817 48.9531 48.516 49.218C48.763 48.1642 48.9218 47.0868 48.9864 46.0035H41.0133Z" fill="#6CAC2C"/>
<path d="M33.4284 38.2929L32.8639 37.9397C31.7879 39.7879 31.147 41.8598 31 43.9964H39.0143C39.0731 42.8134 39.2377 41.6361 39.4905 40.4825C37.3562 40.1234 35.3041 39.3818 33.4284 38.2929Z" fill="#6CAC2C"/>
<path d="M40.0198 51.4776C38.0736 51.7837 36.2038 52.437 34.4927 53.4141L33.9929 53.7261C36.3684 56.7397 39.8787 58.6468 43.7006 58.9941C42.1072 56.6868 40.8665 54.1499 40.0198 51.4776Z" fill="#6CAC2C"/>
<path d="M44.9999 32.6837C43.7592 34.5908 42.7597 36.6568 42.0364 38.817C43.0184 38.9171 44.0062 38.97 44.994 38.97C45.9818 38.97 46.9697 38.9171 47.9516 38.817C47.2342 36.6568 46.2405 34.5908 44.9999 32.6837Z" fill="#6CAC2C"/>
<path d="M55.5074 53.4141C53.7963 52.437 51.9265 51.7837 49.9803 51.4776C49.1277 54.1558 47.887 56.6868 46.2936 59C50.1155 58.6468 53.6258 56.7397 56.0071 53.7261L55.5074 53.4141Z" fill="#6CAC2C"/>
<path d="M33.9929 36.2739L34.4927 36.5859C36.2037 37.563 38.0735 38.2163 40.0197 38.5224C40.8664 35.8442 42.113 33.3132 43.7064 31C39.8845 31.3532 36.3742 33.2602 33.9929 36.2739Z" fill="#6CAC2C"/>
<path d="M39.0143 46.0035H31C31.147 48.1402 31.7879 50.2121 32.8639 52.0603L33.4284 51.7071C35.3041 50.6182 37.3562 49.8825 39.4964 49.5234C39.2377 48.3639 39.079 47.1866 39.0143 46.0035Z" fill="#6CAC2C"/>
</svg>
