<svg width="90" height="90" viewBox="0 0 90 90" fill="none" xmlns="http://www.w3.org/2000/svg">
<rect width="90" height="90" rx="15" fill="#EEF9FD"/>
<path d="M49.8 36.7724C49.834 36.7724 49.8596 36.7724 49.8936 36.7724H55.7234L49.4511 30.3742V36.3173C49.4255 36.5449 49.5787 36.7462 49.8 36.7724Z" fill="#4749A0"/>
<path d="M49.8936 38.6018C48.6681 38.6018 47.6723 37.5777 47.6723 36.3173V29H35.6638C34.1915 29 33 30.2254 33 31.7396V58.2604C33 59.7746 34.1915 61 35.6638 61H54.3362C55.8085 61 57 59.7746 57 58.2604V38.6018H49.8936ZM52.566 51.5908C52.566 52.0985 52.166 52.5011 51.6809 52.5011C51.1957 52.5011 50.7957 52.0897 50.7957 51.5908V48.6149L46.9574 53.0525C46.7957 53.2276 46.566 53.3239 46.3362 53.3239C46.1064 53.3501 45.8766 53.2626 45.7149 53.0963L41.9787 49.5777L38.8723 54.0591C38.6255 54.4705 38.1064 54.6018 37.7149 54.3479C37.6894 54.3304 37.6553 54.3129 37.6298 54.2867C37.2383 54.0241 37.1362 53.4814 37.4 53.0788C37.417 53.0525 37.434 53.0263 37.4511 53L41.1447 47.6958C41.2723 47.4683 41.5106 47.3282 41.766 47.3282C42.0128 47.3107 42.2511 47.3895 42.4298 47.5558L46.2511 51.2144L49.7234 47.2845H46.4809C45.9872 47.2845 45.5957 46.8731 45.5957 46.3742C45.5957 45.8753 45.9957 45.4639 46.4809 45.4639H51.6809C52.166 45.4639 52.566 45.6915 52.566 46.1991V51.5908Z" fill="#4749A0"/>
</svg>
