<svg width="145" height="32" viewBox="0 0 145 32" fill="none" xmlns="http://www.w3.org/2000/svg">
<path d="M37 6C26.7827 6 18.5 14.2827 18.5 24.5V31C28.7173 31 37 22.7173 37 12.5V6Z" fill="#FE5F4A"/>
<path d="M0 18.5C3.00811e-07 25.4036 5.59644 31 12.5 31L16.0658 31C16.0658 24.0964 10.4694 18.5 3.56579 18.5L0 18.5Z" fill="#FE5F4A"/>
<path d="M57.4774 8.72727C59.7041 8.72727 61.5441 9.49836 62.9974 11.0405C64.4741 12.5827 65.2124 14.3702 65.2124 16.4031C65.2124 18.9967 64.3803 21.0179 62.7161 22.4666C61.0519 23.9153 58.9541 24.6397 56.4226 24.6397C56.1414 24.6397 55.8366 24.6163 55.5085 24.5696C55.2038 24.5228 54.9459 24.4644 54.735 24.3943C54.524 24.3476 54.4068 24.3242 54.3834 24.3242C54.2896 24.3242 54.2428 24.5111 54.2428 24.885V26.6375C54.2428 28.1329 54.3248 29.1961 54.4889 29.8269C54.5358 29.9905 54.8639 30.1774 55.4733 30.3877C56.0828 30.598 56.4929 30.7032 56.7039 30.7032C56.7742 30.7032 56.8094 30.8901 56.8094 31.264C56.8328 31.6612 56.8211 31.9065 56.7742 32C56.5164 31.9766 55.778 31.9182 54.5592 31.8248C53.3638 31.7547 52.4965 31.7196 51.9574 31.7196C51.3949 31.7196 50.5159 31.7547 49.3205 31.8248C48.1251 31.9182 47.3985 31.9766 47.1406 32C47.0469 31.9065 47 31.6612 47 31.264C47 30.8901 47.0469 30.7032 47.1406 30.7032C47.3985 30.7032 47.8321 30.598 48.4415 30.3877C49.0509 30.1774 49.3791 29.9905 49.426 29.8269C49.5901 29.126 49.6721 28.238 49.6721 27.1632V14.8609C49.6721 13.5524 49.4611 12.6762 49.0392 12.2322C48.8751 12.0453 48.629 11.8934 48.3009 11.7766C47.9727 11.6597 47.6915 11.5779 47.4571 11.5312C47.2227 11.4845 47.1055 11.4494 47.1055 11.4261C47.1055 10.6083 47.1641 10.1993 47.2813 10.1993C48.7111 10.1993 50.5979 9.86053 52.9419 9.18291C53.6685 8.94925 54.0553 8.83242 54.1021 8.83242C54.2428 8.83242 54.3131 8.9843 54.3131 9.28806C54.3131 9.42826 54.2896 9.63855 54.2428 9.91895C55.2741 9.1245 56.3523 8.72727 57.4774 8.72727ZM56.95 10.7601C56.1296 10.7601 55.4733 11.0055 54.9811 11.4962C54.4889 11.9869 54.2428 12.6061 54.2428 13.3538V19.9781C54.2428 20.866 54.5358 21.5553 55.1217 22.046C55.7077 22.5133 56.3289 22.747 56.9852 22.747C59.0947 22.747 60.1495 21.0179 60.1495 17.5597C60.1495 13.0267 59.083 10.7601 56.95 10.7601Z" fill="black"/>
<path d="M74.7757 10.6199C74.0959 10.6199 73.5334 10.8886 73.088 11.4261C72.6427 11.9635 72.3497 12.5827 72.209 13.2837C72.0684 13.9613 71.9981 14.7207 71.9981 15.5619C71.9981 20.3052 73.2052 22.6769 75.6195 22.6769C76.6039 22.6769 77.3188 22.1979 77.7642 21.2399C78.233 20.2819 78.4674 19.1603 78.4674 17.8751C78.4674 13.0383 77.2368 10.6199 74.7757 10.6199ZM69.3963 11.0055C71.0136 9.46331 72.9708 8.69222 75.2679 8.69222C77.5649 8.69222 79.5104 9.46331 81.1043 11.0055C82.7216 12.5476 83.5303 14.4286 83.5303 16.6484C83.5303 18.8682 82.7333 20.7492 81.1394 22.2913C79.5456 23.8335 77.5884 24.6046 75.2679 24.6046C72.9708 24.6046 71.0136 23.8335 69.3963 22.2913C67.8024 20.7492 67.0055 18.8682 67.0055 16.6484C67.0055 14.4286 67.8024 12.5476 69.3963 11.0055Z" fill="black"/>
<path d="M95.8008 8.72727C98.0275 8.72727 99.8675 9.49836 101.321 11.0405C102.797 12.5827 103.536 14.3702 103.536 16.4031C103.536 18.9967 102.704 21.0179 101.039 22.4666C99.3753 23.9153 97.2774 24.6397 94.746 24.6397C94.4647 24.6397 94.16 24.6163 93.8319 24.5696C93.5271 24.5228 93.2693 24.4644 93.0584 24.3943C92.8474 24.3476 92.7302 24.3242 92.7068 24.3242C92.613 24.3242 92.5661 24.5111 92.5661 24.885V26.6375C92.5661 28.1329 92.6482 29.1961 92.8122 29.8269C92.8591 29.9905 93.1873 30.1774 93.7967 30.3877C94.4061 30.598 94.8163 30.7032 95.0273 30.7032C95.0976 30.7032 95.1327 30.8901 95.1327 31.264C95.1562 31.6612 95.1445 31.9065 95.0976 32C94.8398 31.9766 94.1014 31.9182 92.8826 31.8248C91.6872 31.7547 90.8199 31.7196 90.2808 31.7196C89.7183 31.7196 88.8393 31.7547 87.6439 31.8248C86.4485 31.9182 85.7218 31.9766 85.464 32C85.3702 31.9065 85.3234 31.6612 85.3234 31.264C85.3234 30.8901 85.3702 30.7032 85.464 30.7032C85.7218 30.7032 86.1555 30.598 86.7649 30.3877C87.3743 30.1774 87.7025 29.9905 87.7493 29.8269C87.9134 29.126 87.9955 28.238 87.9955 27.1632V14.8609C87.9955 13.5524 87.7845 12.6762 87.3626 12.2322C87.1985 12.0453 86.9524 11.8934 86.6243 11.7766C86.2961 11.6597 86.0148 11.5779 85.7804 11.5312C85.546 11.4845 85.4288 11.4494 85.4288 11.4261C85.4288 10.6083 85.4874 10.1993 85.6046 10.1993C87.0344 10.1993 88.9213 9.86053 91.2652 9.18291C91.9919 8.94925 92.3786 8.83242 92.4255 8.83242C92.5661 8.83242 92.6365 8.9843 92.6365 9.28806C92.6365 9.42826 92.613 9.63855 92.5661 9.91895C93.5975 9.1245 94.6757 8.72727 95.8008 8.72727ZM95.2734 10.7601C94.453 10.7601 93.7967 11.0055 93.3045 11.4962C92.8122 11.9869 92.5661 12.6061 92.5661 13.3538V19.9781C92.5661 20.866 92.8591 21.5553 93.4451 22.046C94.0311 22.5133 94.6522 22.747 95.3085 22.747C97.4181 22.747 98.4729 21.0179 98.4729 17.5597C98.4729 13.0267 97.4064 10.7601 95.2734 10.7601Z" fill="black"/>
<path d="M108.142 4.62651C107.626 4.11245 107.368 3.49325 107.368 2.76889C107.368 2.04454 107.626 1.43702 108.142 0.946331C108.657 0.432275 109.267 0.175246 109.97 0.175246C110.696 0.175246 111.306 0.432275 111.798 0.946331C112.314 1.43702 112.572 2.04454 112.572 2.76889C112.572 3.49325 112.314 4.11245 111.798 4.62651C111.306 5.1172 110.696 5.36254 109.97 5.36254C109.267 5.36254 108.657 5.1172 108.142 4.62651ZM112.572 19.1369C112.572 20.6323 112.654 21.6955 112.818 22.3264C112.865 22.49 113.193 22.6769 113.802 22.8872C114.435 23.0975 114.845 23.2026 115.033 23.2026C115.127 23.2026 115.173 23.4012 115.173 23.7985C115.173 24.1723 115.15 24.406 115.103 24.4995C114.869 24.4761 114.142 24.4294 112.923 24.3593C111.704 24.2658 110.825 24.2191 110.286 24.2191C109.724 24.2191 108.845 24.2658 107.649 24.3593C106.477 24.4294 105.751 24.4761 105.47 24.4995C105.399 24.406 105.364 24.1723 105.364 23.7985C105.364 23.4012 105.399 23.2026 105.47 23.2026C105.751 23.2026 106.184 23.0975 106.77 22.8872C107.38 22.6769 107.708 22.49 107.755 22.3264C107.919 21.6254 108.001 20.7375 108.001 19.6627V14.8609C108.001 13.5524 107.79 12.6762 107.368 12.2322C107.204 12.0453 106.958 11.8934 106.63 11.7766C106.325 11.6597 106.044 11.5779 105.786 11.5312C105.552 11.4845 105.434 11.4494 105.434 11.4261C105.434 10.6083 105.493 10.1993 105.61 10.1993C106.079 10.1993 107.099 10.0475 108.669 9.7437C110.263 9.41658 111.388 9.14786 112.044 8.93757C112.068 8.93757 112.138 8.92589 112.255 8.90252C112.372 8.85579 112.431 8.83242 112.431 8.83242C112.572 8.83242 112.689 8.9142 112.783 9.07777C112.9 9.21796 112.958 9.33479 112.958 9.42826C112.935 9.61519 112.888 9.96568 112.818 10.4797C112.747 10.9938 112.689 11.4494 112.642 11.8467C112.595 12.2205 112.572 12.5827 112.572 12.9332V19.1369Z" fill="black"/>
<path d="M124.561 10.6199C123.881 10.6199 123.319 10.8886 122.873 11.4261C122.428 11.9635 122.135 12.5827 121.994 13.2837C121.854 13.9613 121.783 14.7207 121.783 15.5619C121.783 20.3052 122.99 22.6769 125.405 22.6769C126.389 22.6769 127.104 22.1979 127.549 21.2399C128.018 20.2819 128.253 19.1603 128.253 17.8751C128.253 13.0383 127.022 10.6199 124.561 10.6199ZM119.182 11.0055C120.799 9.46331 122.756 8.69222 125.053 8.69222C127.35 8.69222 129.296 9.46331 130.89 11.0055C132.507 12.5476 133.315 14.4286 133.315 16.6484C133.315 18.8682 132.519 20.7492 130.925 22.2913C129.331 23.8335 127.374 24.6046 125.053 24.6046C122.756 24.6046 120.799 23.8335 119.182 22.2913C117.588 20.7492 116.791 18.8682 116.791 16.6484C116.791 14.4286 117.588 12.5476 119.182 11.0055Z" fill="black"/>
<path d="M137.851 5.74808C137.851 4.64987 137.792 3.80869 137.675 3.22453C137.558 2.85068 136.949 2.66375 135.847 2.66375H135.53C135.39 2.66375 135.32 2.43008 135.32 1.96276C135.32 1.56553 135.39 1.36692 135.53 1.36692C136.257 1.29682 136.984 1.20336 137.71 1.08653C138.46 0.969697 139.093 0.852866 139.609 0.736035C140.125 0.619204 140.582 0.502373 140.98 0.385542C141.402 0.268711 141.73 0.175246 141.965 0.105148L142.316 0H142.387C142.48 0 142.574 0.0700986 142.668 0.210296C142.762 0.350493 142.82 0.479007 142.844 0.595838C142.586 1.64732 142.457 2.82731 142.457 4.13582L142.422 19.1369C142.422 20.6323 142.504 21.6955 142.668 22.3264C142.715 22.49 143.043 22.6769 143.652 22.8872C144.262 23.0975 144.672 23.2026 144.883 23.2026C144.953 23.2026 144.988 23.4012 144.988 23.7985C145.012 24.1723 145 24.406 144.953 24.4995C144.695 24.4761 143.957 24.4294 142.738 24.3593C141.543 24.2658 140.675 24.2191 140.136 24.2191C139.574 24.2191 138.695 24.2658 137.499 24.3593C136.304 24.4294 135.577 24.4761 135.32 24.4995C135.226 24.406 135.179 24.1723 135.179 23.7985C135.179 23.4012 135.226 23.2026 135.32 23.2026C135.577 23.2026 136.011 23.0975 136.62 22.8872C137.23 22.6769 137.558 22.49 137.605 22.3264C137.769 21.6254 137.851 20.7375 137.851 19.6627V5.74808Z" fill="black"/>
</svg>
