<svg width="100" height="22" viewBox="0 0 100 22" fill="none" xmlns="http://www.w3.org/2000/svg">
<path d="M25.5173 4.125C18.4709 4.125 12.7587 9.83723 12.7587 16.8836V21.3125C19.8051 21.3125 25.5173 15.6003 25.5173 8.55387V4.125Z" fill="#FE5F4A"/>
<path d="M0 12.7188C2.07456e-07 17.4649 3.84755 21.3125 8.59375 21.3125L11.0799 21.3125C11.0799 16.5663 7.23231 12.7187 2.48611 12.7187L0 12.7188Z" fill="#FE5F4A"/>
<path d="M39.6396 6C41.1753 6 42.4443 6.53012 43.4465 7.59036C44.4649 8.6506 44.9741 9.87952 44.9741 11.2771C44.9741 13.0602 44.4002 14.4498 43.2525 15.4458C42.1048 16.4418 40.658 16.9398 38.9122 16.9398C38.7182 16.9398 38.5081 16.9237 38.2817 16.8916C38.0716 16.8594 37.8938 16.8193 37.7483 16.7711C37.6028 16.739 37.522 16.7229 37.5058 16.7229C37.4412 16.7229 37.4088 16.8514 37.4088 17.1084V18.3133C37.4088 19.3414 37.4654 20.0723 37.5786 20.506C37.6109 20.6185 37.8372 20.747 38.2575 20.8916C38.6778 21.0361 38.9607 21.1084 39.1062 21.1084C39.1547 21.1084 39.1789 21.2369 39.1789 21.494C39.1951 21.7671 39.187 21.9357 39.1547 22C38.9768 21.9839 38.4676 21.9438 37.6271 21.8795C36.8026 21.8313 36.2045 21.8072 35.8327 21.8072C35.4448 21.8072 34.8386 21.8313 34.0142 21.8795C33.1897 21.9438 32.6886 21.9839 32.5108 22C32.4461 21.9357 32.4138 21.7671 32.4138 21.494C32.4138 21.2369 32.4461 21.1084 32.5108 21.1084C32.6886 21.1084 32.9877 21.0361 33.408 20.8916C33.8283 20.747 34.0546 20.6185 34.0869 20.506C34.2001 20.0241 34.2566 19.4137 34.2566 18.6747V10.2169C34.2566 9.31727 34.1112 8.71486 33.8202 8.40964C33.707 8.28112 33.5373 8.17671 33.311 8.09639C33.0847 8.01606 32.8907 7.95984 32.729 7.92771C32.5674 7.89558 32.4866 7.87149 32.4866 7.85542C32.4866 7.29317 32.527 7.01205 32.6078 7.01205C33.5939 7.01205 34.8952 6.77912 36.5117 6.31325C37.0128 6.15261 37.2795 6.07229 37.3118 6.07229C37.4088 6.07229 37.4573 6.17671 37.4573 6.38554C37.4573 6.48193 37.4412 6.62651 37.4088 6.81928C38.1201 6.27309 38.8637 6 39.6396 6ZM39.2759 7.39759C38.7101 7.39759 38.2575 7.56627 37.918 7.90361C37.5786 8.24096 37.4088 8.66667 37.4088 9.18072V13.7349C37.4088 14.3454 37.6109 14.8193 38.015 15.1566C38.4191 15.4779 38.8475 15.6386 39.3001 15.6386C40.755 15.6386 41.4824 14.4498 41.4824 12.0723C41.4824 8.95582 40.7469 7.39759 39.2759 7.39759Z" fill="white"/>
<path d="M51.5694 7.3012C51.1007 7.3012 50.7127 7.48594 50.4056 7.85542C50.0984 8.2249 49.8964 8.6506 49.7994 9.13253C49.7024 9.59839 49.6539 10.1205 49.6539 10.6988C49.6539 13.9598 50.4864 15.5904 52.1514 15.5904C52.8303 15.5904 53.3234 15.261 53.6305 14.6024C53.9538 13.9438 54.1154 13.1727 54.1154 12.2892C54.1154 8.96386 53.2668 7.3012 51.5694 7.3012ZM47.8596 7.56627C48.9749 6.50602 50.3247 5.9759 51.9089 5.9759C53.4931 5.9759 54.8348 6.50602 55.934 7.56627C57.0494 8.62651 57.6071 9.91968 57.6071 11.4458C57.6071 12.9719 57.0575 14.2651 55.9583 15.3253C54.859 16.3855 53.5092 16.9157 51.9089 16.9157C50.3247 16.9157 48.9749 16.3855 47.8596 15.3253C46.7603 14.2651 46.2107 12.9719 46.2107 11.4458C46.2107 9.91968 46.7603 8.62651 47.8596 7.56627Z" fill="white"/>
<path d="M66.0695 6C67.6052 6 68.8742 6.53012 69.8764 7.59036C70.8948 8.6506 71.404 9.87952 71.404 11.2771C71.404 13.0602 70.8301 14.4498 69.6824 15.4458C68.5347 16.4418 67.0879 16.9398 65.3421 16.9398C65.1481 16.9398 64.938 16.9237 64.7117 16.8916C64.5015 16.8594 64.3237 16.8193 64.1782 16.7711C64.0327 16.739 63.9519 16.7229 63.9357 16.7229C63.8711 16.7229 63.8387 16.8514 63.8387 17.1084V18.3133C63.8387 19.3414 63.8953 20.0723 64.0085 20.506C64.0408 20.6185 64.2671 20.747 64.6874 20.8916C65.1077 21.0361 65.3906 21.1084 65.5361 21.1084C65.5846 21.1084 65.6088 21.2369 65.6088 21.494C65.625 21.7671 65.6169 21.9357 65.5846 22C65.4067 21.9839 64.8975 21.9438 64.057 21.8795C63.2325 21.8313 62.6344 21.8072 62.2626 21.8072C61.8747 21.8072 61.2685 21.8313 60.4441 21.8795C59.6196 21.9438 59.1185 21.9839 58.9407 22C58.8761 21.9357 58.8437 21.7671 58.8437 21.494C58.8437 21.2369 58.8761 21.1084 58.9407 21.1084C59.1185 21.1084 59.4176 21.0361 59.8379 20.8916C60.2582 20.747 60.4845 20.6185 60.5168 20.506C60.63 20.0241 60.6865 19.4137 60.6865 18.6747V10.2169C60.6865 9.31727 60.5411 8.71486 60.2501 8.40964C60.1369 8.28112 59.9672 8.17671 59.7409 8.09639C59.5146 8.01606 59.3206 7.95984 59.1589 7.92771C58.9973 7.89558 58.9165 7.87149 58.9165 7.85542C58.9165 7.29317 58.9569 7.01205 59.0377 7.01205C60.0238 7.01205 61.3251 6.77912 62.9416 6.31325C63.4427 6.15261 63.7094 6.07229 63.7417 6.07229C63.8387 6.07229 63.8872 6.17671 63.8872 6.38554C63.8872 6.48193 63.8711 6.62651 63.8387 6.81928C64.55 6.27309 65.2936 6 66.0695 6ZM65.7058 7.39759C65.14 7.39759 64.6874 7.56627 64.3479 7.90361C64.0085 8.24096 63.8387 8.66667 63.8387 9.18072V13.7349C63.8387 14.3454 64.0408 14.8193 64.4449 15.1566C64.8491 15.4779 65.2774 15.6386 65.7301 15.6386C67.1849 15.6386 67.9123 14.4498 67.9123 12.0723C67.9123 8.95582 67.1768 7.39759 65.7058 7.39759Z" fill="white"/>
<path d="M74.5804 3.18072C74.2248 2.82731 74.047 2.40161 74.047 1.90361C74.047 1.40562 74.2248 0.987952 74.5804 0.650602C74.9361 0.297189 75.3564 0.120482 75.8413 0.120482C76.3424 0.120482 76.7627 0.297189 77.1022 0.650602C77.4578 0.987952 77.6356 1.40562 77.6356 1.90361C77.6356 2.40161 77.4578 2.82731 77.1022 3.18072C76.7627 3.51807 76.3424 3.68675 75.8413 3.68675C75.3564 3.68675 74.9361 3.51807 74.5804 3.18072ZM77.6356 13.1566C77.6356 14.1847 77.6922 14.9157 77.8054 15.3494C77.8377 15.4618 78.064 15.5904 78.4843 15.7349C78.9208 15.8795 79.2036 15.9518 79.333 15.9518C79.3976 15.9518 79.43 16.0884 79.43 16.3614C79.43 16.6185 79.4138 16.7791 79.3815 16.8434C79.2198 16.8273 78.7187 16.7952 77.8781 16.747C77.0375 16.6827 76.4313 16.6506 76.0595 16.6506C75.6716 16.6506 75.0654 16.6827 74.241 16.747C73.4327 16.7952 72.9316 16.8273 72.7376 16.8434C72.6891 16.7791 72.6649 16.6185 72.6649 16.3614C72.6649 16.0884 72.6891 15.9518 72.7376 15.9518C72.9316 15.9518 73.2306 15.8795 73.6348 15.7349C74.0551 15.5904 74.2814 15.4618 74.3137 15.3494C74.4269 14.8675 74.4834 14.257 74.4834 13.5181V10.2169C74.4834 9.31727 74.338 8.71486 74.047 8.40964C73.9338 8.28112 73.7641 8.17671 73.5378 8.09639C73.3276 8.01606 73.1337 7.95984 72.9558 7.92771C72.7942 7.89558 72.7134 7.87149 72.7134 7.85542C72.7134 7.29317 72.7538 7.01205 72.8346 7.01205C73.1579 7.01205 73.8611 6.90763 74.9441 6.6988C76.0434 6.4739 76.8193 6.28916 77.2719 6.14458C77.2881 6.14458 77.3366 6.13655 77.4174 6.12048C77.4982 6.08835 77.5386 6.07229 77.5386 6.07229C77.6356 6.07229 77.7165 6.12851 77.7811 6.24096C77.8619 6.33735 77.9024 6.41767 77.9024 6.48193C77.8862 6.61044 77.8539 6.85141 77.8054 7.20482C77.7569 7.55823 77.7165 7.87149 77.6841 8.14458C77.6518 8.40161 77.6356 8.6506 77.6356 8.89157V13.1566Z" fill="white"/>
<path d="M85.9041 7.3012C85.4353 7.3012 85.0473 7.48594 84.7402 7.85542C84.4331 8.2249 84.231 8.6506 84.134 9.13253C84.037 9.59839 83.9885 10.1205 83.9885 10.6988C83.9885 13.9598 84.821 15.5904 86.486 15.5904C87.1649 15.5904 87.658 15.261 87.9651 14.6024C88.2884 13.9438 88.4501 13.1727 88.4501 12.2892C88.4501 8.96386 87.6014 7.3012 85.9041 7.3012ZM82.1942 7.56627C83.3096 6.50602 84.6594 5.9759 86.2435 5.9759C87.8277 5.9759 89.1694 6.50602 90.2686 7.56627C91.384 8.62651 91.9417 9.91968 91.9417 11.4458C91.9417 12.9719 91.3921 14.2651 90.2929 15.3253C89.1937 16.3855 87.8439 16.9157 86.2435 16.9157C84.6594 16.9157 83.3096 16.3855 82.1942 15.3253C81.095 14.2651 80.5453 12.9719 80.5453 11.4458C80.5453 9.91968 81.095 8.62651 82.1942 7.56627Z" fill="white"/>
<path d="M95.0697 3.95181C95.0697 3.19679 95.0293 2.61847 94.9484 2.21687C94.8676 1.95984 94.4473 1.83133 93.6876 1.83133H93.4693C93.3723 1.83133 93.3238 1.67068 93.3238 1.3494C93.3238 1.07631 93.3723 0.939759 93.4693 0.939759C93.9704 0.891566 94.4716 0.827309 94.9727 0.746988C95.49 0.666667 95.9264 0.586345 96.2821 0.506024C96.6377 0.425703 96.9529 0.345382 97.2277 0.26506C97.5187 0.184739 97.745 0.120482 97.9066 0.0722892L98.1491 0H98.1976C98.2623 0 98.3269 0.0481928 98.3916 0.144578C98.4563 0.240964 98.4967 0.329317 98.5128 0.409639C98.335 1.13253 98.2461 1.94378 98.2461 2.84337L98.2219 13.1566C98.2219 14.1847 98.2784 14.9157 98.3916 15.3494C98.4239 15.4618 98.6502 15.5904 99.0705 15.7349C99.4908 15.8795 99.7737 15.9518 99.9192 15.9518C99.9677 15.9518 99.9919 16.0884 99.9919 16.3614C100.008 16.6185 100 16.7791 99.9677 16.8434C99.7899 16.8273 99.2807 16.7952 98.4401 16.747C97.6157 16.6827 97.0176 16.6506 96.6458 16.6506C96.2578 16.6506 95.6516 16.6827 94.8272 16.747C94.0028 16.7952 93.5017 16.8273 93.3238 16.8434C93.2592 16.7791 93.2269 16.6185 93.2269 16.3614C93.2269 16.0884 93.2592 15.9518 93.3238 15.9518C93.5017 15.9518 93.8007 15.8795 94.221 15.7349C94.6413 15.5904 94.8676 15.4618 94.8999 15.3494C95.0131 14.8675 95.0697 14.257 95.0697 13.5181V3.95181Z" fill="white"/>
</svg>
