<svg width="86" height="86" viewBox="0 0 86 86" fill="none" xmlns="http://www.w3.org/2000/svg">
<circle cx="43" cy="43" r="42.5" stroke="#DDDDDD"/>
<circle cx="43" cy="43" r="30" fill="url(#paint0_linear)"/>
<path d="M35.1139 50.67C41.8939 45.97 45.2839 42.07 45.2839 38.97C45.2839 38.03 45.0539 37.29 44.5939 36.75C44.1539 36.21 43.4539 35.94 42.4939 35.94C40.5139 35.94 39.4639 37.29 39.3439 39.99H35.2339C35.3539 37.49 36.1139 35.6 37.5139 34.32C38.9139 33.02 40.6839 32.37 42.8239 32.37C45.0039 32.37 46.6739 32.94 47.8339 34.08C49.0139 35.2 49.6039 36.7 49.6039 38.58C49.6039 40.06 49.1639 41.55 48.2839 43.05C47.4239 44.53 46.3239 45.9 44.9839 47.16C43.6439 48.4 42.2339 49.47 40.7539 50.37H50.0239V53.82H35.1139V50.67Z" fill="white"/>
<defs>
<linearGradient id="paint0_linear" x1="9.36678" y1="32.2857" x2="71.8016" y2="35.8284" gradientUnits="userSpaceOnUse">
<stop stop-color="#6A1BEA"/>
<stop offset="1" stop-color="#716EF5"/>
</linearGradient>
</defs>
</svg>
