<svg width="86" height="86" viewBox="0 0 86 86" fill="none" xmlns="http://www.w3.org/2000/svg">
<circle cx="43" cy="43" r="42.5" stroke="#DDDDDD"/>
<circle cx="43" cy="43" r="30" fill="url(#paint0_linear)"/>
<path d="M42.5505 32.01C43.9905 32.01 45.2205 32.26 46.2405 32.76C47.2805 33.26 48.0605 33.95 48.5805 34.83C49.1205 35.71 49.3905 36.69 49.3905 37.77C49.3905 39.13 49.0205 40.25 48.2805 41.13C47.5405 41.99 46.5605 42.52 45.3405 42.72V42.87C48.3005 43.75 49.7805 45.49 49.7805 48.09C49.7805 49.91 49.1705 51.39 47.9505 52.53C46.7305 53.65 45.0105 54.21 42.7905 54.21C40.4305 54.21 38.5505 53.63 37.1505 52.47C35.7505 51.29 34.9705 49.52 34.8105 47.16H38.9505C39.0505 48.24 39.4005 49.1 40.0005 49.74C40.6205 50.36 41.4905 50.67 42.6105 50.67C43.5705 50.67 44.3205 50.41 44.8605 49.89C45.4005 49.35 45.6705 48.65 45.6705 47.79C45.6705 46.77 45.2805 45.99 44.5005 45.45C43.7205 44.91 42.5705 44.64 41.0505 44.64H40.1805V41.19H41.0505C43.8505 41.23 45.2505 40.26 45.2505 38.28C45.2505 37.42 45.0005 36.75 44.5005 36.27C44.0005 35.77 43.3205 35.52 42.4605 35.52C41.5605 35.52 40.8205 35.81 40.2405 36.39C39.6605 36.95 39.3305 37.74 39.2505 38.76H35.1105C35.2305 36.6 35.9305 34.94 37.2105 33.78C38.4905 32.6 40.2705 32.01 42.5505 32.01Z" fill="white"/>
<defs>
<linearGradient id="paint0_linear" x1="9.36678" y1="32.2857" x2="71.8016" y2="35.8284" gradientUnits="userSpaceOnUse">
<stop stop-color="#6A1BEA"/>
<stop offset="1" stop-color="#716EF5"/>
</linearGradient>
</defs>
</svg>
